M48
; DRILL file {KiCad (5.1.6)-1} date 08/23/20 15:31:54
; FORMAT={-:-/ absolute / metric / decimal}
; #@! TF.CreationDate,2020-08-23T15:31:54+02:00
; #@! TF.GenerationSoftware,Kicad,Pcbnew,(5.1.6)-1
; #@! TF.FileFunction,Plated,1,2,PTH
FMAT,2
METRIC
T1C0.400
T2C0.600
T3C0.850
T4C1.000
T5C1.200
T6C1.300
T7C2.200
T8C3.000
%
G90
G05
T1
X6.0Y-34.0
X7.0Y-24.5
X7.55Y-29.05
X11.0Y-28.5
X11.5Y-30.5
X14.0Y-30.5
X16.0Y-31.25
X16.5Y-26.0
X19.0Y-3.9
X19.0Y-5.4
X19.0Y-6.9
X20.5Y-3.9
X20.5Y-5.4
X20.5Y-6.9
X21.5Y-17.25
X22.0Y-3.9
X22.0Y-5.4
X22.0Y-7.0
X22.0Y-42.0
X22.25Y-38.0
X22.5Y-44.0
X23.0Y-26.5
X24.5Y-30.5
X33.6Y-30.7
X34.5Y-42.0
X35.975Y-20.225
X36.0Y-34.0
X36.0Y-44.0
X37.5Y-24.0
X37.75Y-25.5
X40.5Y-36.5
X40.75Y-35.25
X41.0Y-32.5
X43.5Y-34.5
X44.5Y-19.5
X46.5Y-40.5
X48.5Y-42.0
X54.75Y-18.25
X56.25Y-17.0
X60.0Y-36.5
X62.0Y-32.5
X62.0Y-36.5
X64.5Y-33.1
X65.0Y-44.5
T3
X4.962Y-26.0
X4.962Y-31.0
T4
X71.245Y-15.75
X71.245Y-20.25
X56.134Y-38.354
X56.134Y-40.894
X58.674Y-38.354
X58.674Y-40.894
X61.214Y-38.354
X61.214Y-40.894
X63.754Y-38.354
X63.754Y-40.894
X71.245Y-31.75
X71.245Y-36.25
T6
X68.755Y-30.495
X68.755Y-37.505
X27.5Y-4.5
X32.5Y-4.5
X68.755Y-14.495
X68.755Y-21.505
T7
X4.0Y-50.0
X70.0Y-4.0
X4.0Y-4.0
X70.0Y-50.0
T8
X49.0Y-20.75
T2
G00X1.912Y-25.0
M15
G01X2.612Y-25.0
M16
G05
G00X2.612Y-32.0
M15
G01X1.912Y-32.0
M16
G05
T5
G00X5.7Y-14.0
M15
G01X5.7Y-16.0
M16
G05
G00X11.7Y-13.8
M15
G01X11.7Y-16.2
M16
G05
G00X6.45Y-43.5
M15
G01X5.95Y-43.5
M16
G05
G00X11.75Y-39.25
M15
G01X11.25Y-39.25
M16
G05
G00X11.75Y-44.75
M15
G01X11.25Y-44.75
M16
G05
T0
M30
