%TF.GenerationSoftware,KiCad,Pcbnew,(5.1.6)-1*%
%TF.CreationDate,2020-08-23T15:31:51+02:00*%
%TF.ProjectId,ESP32MiniDrop,45535033-324d-4696-9e69-44726f702e6b,rev?*%
%TF.SameCoordinates,Original*%
%TF.FileFunction,Copper,L2,Bot*%
%TF.FilePolarity,Positive*%
%FSLAX46Y46*%
G04 Gerber Fmt 4.6, Leading zero omitted, Abs format (unit mm)*
G04 Created by KiCad (PCBNEW (5.1.6)-1) date 2020-08-23 15:31:51*
%MOMM*%
%LPD*%
G01*
G04 APERTURE LIST*
%TA.AperFunction,ComponentPad*%
%ADD10C,1.800000*%
%TD*%
%TA.AperFunction,ComponentPad*%
%ADD11C,2.300000*%
%TD*%
%TA.AperFunction,ComponentPad*%
%ADD12O,1.700000X1.700000*%
%TD*%
%TA.AperFunction,ComponentPad*%
%ADD13R,1.700000X1.700000*%
%TD*%
%TA.AperFunction,ComponentPad*%
%ADD14C,2.600000*%
%TD*%
%TA.AperFunction,ComponentPad*%
%ADD15R,2.600000X2.600000*%
%TD*%
%TA.AperFunction,ComponentPad*%
%ADD16C,2.800000*%
%TD*%
%TA.AperFunction,ComponentPad*%
%ADD17C,3.800000*%
%TD*%
%TA.AperFunction,ComponentPad*%
%ADD18O,1.900000X1.200000*%
%TD*%
%TA.AperFunction,ComponentPad*%
%ADD19C,1.450000*%
%TD*%
%TA.AperFunction,ComponentPad*%
%ADD20R,2.200000X4.400000*%
%TD*%
%TA.AperFunction,ViaPad*%
%ADD21C,4.500000*%
%TD*%
%TA.AperFunction,ViaPad*%
%ADD22C,0.800000*%
%TD*%
%TA.AperFunction,Conductor*%
%ADD23C,0.500000*%
%TD*%
%TA.AperFunction,Conductor*%
%ADD24C,0.250000*%
%TD*%
%TA.AperFunction,Conductor*%
%ADD25C,0.200000*%
%TD*%
%TA.AperFunction,Conductor*%
%ADD26C,1.000000*%
%TD*%
%TA.AperFunction,Conductor*%
%ADD27C,0.254000*%
%TD*%
G04 APERTURE END LIST*
D10*
%TO.P,SW1,2*%
%TO.N,GND*%
X71245000Y-31750000D03*
%TO.P,SW1,1*%
%TO.N,/EN*%
X71245000Y-36250000D03*
D11*
%TO.P,SW1,M*%
%TO.N,N/C*%
X68755000Y-30495000D03*
X68755000Y-37505000D03*
%TD*%
D12*
%TO.P,J5,8*%
%TO.N,/USB_RX*%
X56134000Y-40894000D03*
%TO.P,J5,7*%
%TO.N,/VREG_IN*%
X56134000Y-38354000D03*
%TO.P,J5,6*%
%TO.N,/USB_TX*%
X58674000Y-40894000D03*
%TO.P,J5,5*%
%TO.N,GND*%
X58674000Y-38354000D03*
%TO.P,J5,4*%
%TO.N,/IO0*%
X61214000Y-40894000D03*
%TO.P,J5,3*%
%TO.N,GND*%
X61214000Y-38354000D03*
%TO.P,J5,2*%
%TO.N,/EN*%
X63754000Y-40894000D03*
D13*
%TO.P,J5,1*%
%TO.N,GND*%
X63754000Y-38354000D03*
%TD*%
D14*
%TO.P,J4,2*%
%TO.N,+12V*%
X32500000Y-4500000D03*
D15*
%TO.P,J4,1*%
%TO.N,Net-(D7-Pad1)*%
X27500000Y-4500000D03*
%TD*%
D16*
%TO.P,J3,T*%
%TO.N,Net-(J3-PadT)*%
X11500000Y-39250000D03*
%TO.P,J3,R*%
%TO.N,Net-(J3-PadR)*%
X11500000Y-44750000D03*
%TO.P,J3,S*%
%TO.N,Net-(J3-PadS)*%
X6200000Y-43500000D03*
%TD*%
D17*
%TO.P,REF\u002A\u002A,1*%
%TO.N,N/C*%
X4000000Y-4000000D03*
%TD*%
D18*
%TO.P,J1,6*%
%TO.N,GND*%
X2262500Y-25000000D03*
X2262500Y-32000000D03*
D19*
X4962500Y-31000000D03*
X4962500Y-26000000D03*
%TD*%
D20*
%TO.P,J2,2*%
%TO.N,GND*%
X5700000Y-15000000D03*
%TO.P,J2,1*%
%TO.N,+12V*%
X11700000Y-15000000D03*
%TD*%
D10*
%TO.P,SW2,2*%
%TO.N,GND*%
X71245000Y-15750000D03*
%TO.P,SW2,1*%
%TO.N,/PairWitch_CTLI*%
X71245000Y-20250000D03*
D11*
%TO.P,SW2,M*%
%TO.N,N/C*%
X68755000Y-14495000D03*
X68755000Y-21505000D03*
%TD*%
D17*
%TO.P,REF\u002A\u002A,1*%
%TO.N,N/C*%
X70000000Y-4000000D03*
%TD*%
%TO.P,REF\u002A\u002A,1*%
%TO.N,N/C*%
X4000000Y-50000000D03*
%TD*%
%TO.P,REF\u002A\u002A,1*%
%TO.N,N/C*%
X70000000Y-50000000D03*
%TD*%
D21*
%TO.N,GND*%
X49000000Y-20750000D03*
D22*
X24500000Y-30500000D03*
X40750000Y-35250000D03*
X62000000Y-36500000D03*
%TO.N,+3V3*%
X16000000Y-31250000D03*
X35975000Y-20225000D03*
X36000000Y-34000000D03*
X22250000Y-38000000D03*
X43500000Y-34500000D03*
X64500000Y-33100000D03*
%TO.N,Solenoid_1_CTLO*%
X22000000Y-3900000D03*
X20500000Y-3900000D03*
X19000000Y-3900000D03*
X22000000Y-7000000D03*
X20500000Y-6900000D03*
X19000000Y-6900000D03*
X19000000Y-5400000D03*
X22000000Y-5400000D03*
X20500000Y-5400000D03*
X21500000Y-17250000D03*
X44500000Y-19500000D03*
%TO.N,Net-(J3-PadS)*%
X22500000Y-44000000D03*
X36000000Y-44000000D03*
%TO.N,/EN*%
X41000000Y-32500000D03*
X62000000Y-32500000D03*
%TO.N,/VUSB*%
X6000000Y-34000000D03*
X7000000Y-24500000D03*
%TO.N,/D+*%
X11000000Y-28500000D03*
X7550000Y-29050000D03*
%TO.N,/D-*%
X11500000Y-30500000D03*
X14000000Y-30500000D03*
%TO.N,/IO0*%
X40500000Y-36500000D03*
X60000000Y-36500000D03*
%TO.N,/DTR*%
X33600000Y-30700000D03*
X23000000Y-26500000D03*
%TO.N,/USB_RX*%
X56250000Y-17000000D03*
X37750000Y-25500000D03*
%TO.N,/USB_TX*%
X37500000Y-24000000D03*
X54750000Y-18250000D03*
X65000000Y-44500000D03*
%TO.N,Net-(R14-Pad1)*%
X46500000Y-40500000D03*
X22000000Y-42000000D03*
%TO.N,Net-(R15-Pad1)*%
X48500000Y-42000000D03*
X34500000Y-42000000D03*
%TO.N,/VREG_IN*%
X16500000Y-26000000D03*
%TD*%
D23*
%TO.N,+3V3*%
X35975000Y-20225000D02*
X35975000Y-33975000D01*
X35975000Y-33975000D02*
X36000000Y-34000000D01*
X16000000Y-31250000D02*
X16000000Y-35500000D01*
X18500000Y-38000000D02*
X22250000Y-38000000D01*
X16000000Y-35500000D02*
X18500000Y-38000000D01*
X32000000Y-38000000D02*
X36000000Y-34000000D01*
X22250000Y-38000000D02*
X32000000Y-38000000D01*
X36000000Y-34000000D02*
X43000000Y-34000000D01*
X43000000Y-34000000D02*
X43500000Y-34500000D01*
D24*
X63100000Y-34500000D02*
X64500000Y-33100000D01*
X43500000Y-34500000D02*
X63100000Y-34500000D01*
%TO.N,Solenoid_1_CTLO*%
X21500000Y-17250000D02*
X37250000Y-17250000D01*
X37250000Y-17250000D02*
X43500000Y-17250000D01*
X43500000Y-17250000D02*
X44500000Y-18250000D01*
X44500000Y-18250000D02*
X44500000Y-19500000D01*
D23*
%TO.N,Net-(J3-PadS)*%
X22500000Y-44000000D02*
X19000000Y-44000000D01*
X19000000Y-44000000D02*
X15500000Y-47500000D01*
X10200000Y-47500000D02*
X6200000Y-43500000D01*
X15500000Y-47500000D02*
X10200000Y-47500000D01*
X22500000Y-44000000D02*
X36000000Y-44000000D01*
D24*
%TO.N,/EN*%
X41000000Y-32500000D02*
X62000000Y-32500000D01*
%TO.N,/VUSB*%
X3912499Y-31912499D02*
X3912499Y-25087501D01*
X6000000Y-34000000D02*
X3912499Y-31912499D01*
X3912499Y-25087501D02*
X4500000Y-24500000D01*
X4500000Y-24500000D02*
X7000000Y-24500000D01*
%TO.N,/D+*%
X8100000Y-28500000D02*
X7550000Y-29050000D01*
X11000000Y-28500000D02*
X8100000Y-28500000D01*
D25*
%TO.N,/D-*%
X11500000Y-30500000D02*
X14000000Y-30500000D01*
D26*
%TO.N,+12V*%
X32500000Y-10900000D02*
X32500000Y-4500000D01*
X11700000Y-15000000D02*
X28400000Y-15000000D01*
X28400000Y-15000000D02*
X32500000Y-10900000D01*
D24*
%TO.N,/IO0*%
X40500000Y-36500000D02*
X60000000Y-36500000D01*
%TO.N,/DTR*%
X33600000Y-30700000D02*
X27200000Y-30700000D01*
X27200000Y-30700000D02*
X23000000Y-26500000D01*
%TO.N,/USB_RX*%
X51676998Y-24750000D02*
X38500000Y-24750000D01*
X38500000Y-24750000D02*
X37750000Y-25500000D01*
X53213499Y-24750000D02*
X51676998Y-24750000D01*
X56250000Y-24750000D02*
X53213499Y-24750000D01*
X56250000Y-17000000D02*
X56250000Y-24750000D01*
X56134000Y-43134000D02*
X56134000Y-40894000D01*
X56500000Y-43500000D02*
X56134000Y-43134000D01*
X62250000Y-24750000D02*
X65500000Y-28000000D01*
X53213499Y-24750000D02*
X62250000Y-24750000D01*
X65500000Y-28000000D02*
X65500000Y-42225001D01*
X65500000Y-42225001D02*
X64225001Y-43500000D01*
X64225001Y-43500000D02*
X56500000Y-43500000D01*
%TO.N,/USB_TX*%
X37500000Y-24000000D02*
X53500000Y-24000000D01*
X54750000Y-22750000D02*
X54750000Y-18250000D01*
X53500000Y-24000000D02*
X54750000Y-22750000D01*
X54750000Y-16750000D02*
X54750000Y-18250000D01*
X55500000Y-16000000D02*
X54750000Y-16750000D01*
X58674000Y-40894000D02*
X58674000Y-40674000D01*
X66500000Y-23500000D02*
X59000000Y-16000000D01*
X65000000Y-44500000D02*
X66500000Y-43000000D01*
X66500000Y-43000000D02*
X66500000Y-23500000D01*
X59000000Y-16000000D02*
X55500000Y-16000000D01*
%TO.N,Net-(R14-Pad1)*%
X46500000Y-40500000D02*
X23500000Y-40500000D01*
X23500000Y-40500000D02*
X22000000Y-42000000D01*
%TO.N,Net-(R15-Pad1)*%
X48500000Y-42000000D02*
X34500000Y-42000000D01*
%TO.N,/VREG_IN*%
X16500000Y-29573002D02*
X16500000Y-26565685D01*
X15000000Y-31073002D02*
X16500000Y-29573002D01*
X34146000Y-38354000D02*
X33000000Y-39500000D01*
X56134000Y-38354000D02*
X34146000Y-38354000D01*
X33000000Y-39500000D02*
X18000000Y-39500000D01*
X16500000Y-26565685D02*
X16500000Y-26000000D01*
X18000000Y-39500000D02*
X15000000Y-36500000D01*
X15000000Y-36500000D02*
X15000000Y-31073002D01*
%TD*%
D27*
%TO.N,GND*%
G36*
X73340001Y-3273382D02*
G01*
X73340000Y-50726619D01*
X70726620Y-53340000D01*
X3273381Y-53340000D01*
X660000Y-50726620D01*
X660000Y-49750324D01*
X1465000Y-49750324D01*
X1465000Y-50249676D01*
X1562418Y-50739432D01*
X1753512Y-51200773D01*
X2030937Y-51615968D01*
X2384032Y-51969063D01*
X2799227Y-52246488D01*
X3260568Y-52437582D01*
X3750324Y-52535000D01*
X4249676Y-52535000D01*
X4739432Y-52437582D01*
X5200773Y-52246488D01*
X5615968Y-51969063D01*
X5969063Y-51615968D01*
X6246488Y-51200773D01*
X6437582Y-50739432D01*
X6535000Y-50249676D01*
X6535000Y-49750324D01*
X67465000Y-49750324D01*
X67465000Y-50249676D01*
X67562418Y-50739432D01*
X67753512Y-51200773D01*
X68030937Y-51615968D01*
X68384032Y-51969063D01*
X68799227Y-52246488D01*
X69260568Y-52437582D01*
X69750324Y-52535000D01*
X70249676Y-52535000D01*
X70739432Y-52437582D01*
X71200773Y-52246488D01*
X71615968Y-51969063D01*
X71969063Y-51615968D01*
X72246488Y-51200773D01*
X72437582Y-50739432D01*
X72535000Y-50249676D01*
X72535000Y-49750324D01*
X72437582Y-49260568D01*
X72246488Y-48799227D01*
X71969063Y-48384032D01*
X71615968Y-48030937D01*
X71200773Y-47753512D01*
X70739432Y-47562418D01*
X70249676Y-47465000D01*
X69750324Y-47465000D01*
X69260568Y-47562418D01*
X68799227Y-47753512D01*
X68384032Y-48030937D01*
X68030937Y-48384032D01*
X67753512Y-48799227D01*
X67562418Y-49260568D01*
X67465000Y-49750324D01*
X6535000Y-49750324D01*
X6437582Y-49260568D01*
X6246488Y-48799227D01*
X5969063Y-48384032D01*
X5615968Y-48030937D01*
X5200773Y-47753512D01*
X4739432Y-47562418D01*
X4249676Y-47465000D01*
X3750324Y-47465000D01*
X3260568Y-47562418D01*
X2799227Y-47753512D01*
X2384032Y-48030937D01*
X2030937Y-48384032D01*
X1753512Y-48799227D01*
X1562418Y-49260568D01*
X1465000Y-49750324D01*
X660000Y-49750324D01*
X660000Y-43299570D01*
X4165000Y-43299570D01*
X4165000Y-43700430D01*
X4243204Y-44093587D01*
X4396607Y-44463934D01*
X4619313Y-44797237D01*
X4902763Y-45080687D01*
X5236066Y-45303393D01*
X5606413Y-45456796D01*
X5999570Y-45535000D01*
X6400430Y-45535000D01*
X6793587Y-45456796D01*
X6872522Y-45424100D01*
X9543470Y-48095049D01*
X9571183Y-48128817D01*
X9604951Y-48156530D01*
X9604953Y-48156532D01*
X9676452Y-48215210D01*
X9705941Y-48239411D01*
X9859687Y-48321589D01*
X10026510Y-48372195D01*
X10156523Y-48385000D01*
X10156533Y-48385000D01*
X10199999Y-48389281D01*
X10243465Y-48385000D01*
X15456531Y-48385000D01*
X15500000Y-48389281D01*
X15543469Y-48385000D01*
X15543477Y-48385000D01*
X15673490Y-48372195D01*
X15840313Y-48321589D01*
X15994059Y-48239411D01*
X16128817Y-48128817D01*
X16156534Y-48095044D01*
X19366579Y-44885000D01*
X21961546Y-44885000D01*
X22009744Y-44917205D01*
X22198102Y-44995226D01*
X22398061Y-45035000D01*
X22601939Y-45035000D01*
X22801898Y-44995226D01*
X22990256Y-44917205D01*
X23038454Y-44885000D01*
X35461546Y-44885000D01*
X35509744Y-44917205D01*
X35698102Y-44995226D01*
X35898061Y-45035000D01*
X36101939Y-45035000D01*
X36301898Y-44995226D01*
X36490256Y-44917205D01*
X36659774Y-44803937D01*
X36803937Y-44659774D01*
X36917205Y-44490256D01*
X36995226Y-44301898D01*
X37035000Y-44101939D01*
X37035000Y-43898061D01*
X36995226Y-43698102D01*
X36917205Y-43509744D01*
X36803937Y-43340226D01*
X36659774Y-43196063D01*
X36490256Y-43082795D01*
X36301898Y-43004774D01*
X36101939Y-42965000D01*
X35898061Y-42965000D01*
X35698102Y-43004774D01*
X35509744Y-43082795D01*
X35461546Y-43115000D01*
X23038454Y-43115000D01*
X22990256Y-43082795D01*
X22801898Y-43004774D01*
X22601939Y-42965000D01*
X22398061Y-42965000D01*
X22353444Y-42973875D01*
X22490256Y-42917205D01*
X22659774Y-42803937D01*
X22803937Y-42659774D01*
X22917205Y-42490256D01*
X22995226Y-42301898D01*
X23035000Y-42101939D01*
X23035000Y-42039801D01*
X23814802Y-41260000D01*
X33776289Y-41260000D01*
X33696063Y-41340226D01*
X33582795Y-41509744D01*
X33504774Y-41698102D01*
X33465000Y-41898061D01*
X33465000Y-42101939D01*
X33504774Y-42301898D01*
X33582795Y-42490256D01*
X33696063Y-42659774D01*
X33840226Y-42803937D01*
X34009744Y-42917205D01*
X34198102Y-42995226D01*
X34398061Y-43035000D01*
X34601939Y-43035000D01*
X34801898Y-42995226D01*
X34990256Y-42917205D01*
X35159774Y-42803937D01*
X35203711Y-42760000D01*
X47796289Y-42760000D01*
X47840226Y-42803937D01*
X48009744Y-42917205D01*
X48198102Y-42995226D01*
X48398061Y-43035000D01*
X48601939Y-43035000D01*
X48801898Y-42995226D01*
X48990256Y-42917205D01*
X49159774Y-42803937D01*
X49303937Y-42659774D01*
X49417205Y-42490256D01*
X49495226Y-42301898D01*
X49535000Y-42101939D01*
X49535000Y-41898061D01*
X49495226Y-41698102D01*
X49417205Y-41509744D01*
X49303937Y-41340226D01*
X49159774Y-41196063D01*
X48990256Y-41082795D01*
X48801898Y-41004774D01*
X48601939Y-40965000D01*
X48398061Y-40965000D01*
X48198102Y-41004774D01*
X48009744Y-41082795D01*
X47840226Y-41196063D01*
X47796289Y-41240000D01*
X47223711Y-41240000D01*
X47303937Y-41159774D01*
X47417205Y-40990256D01*
X47495226Y-40801898D01*
X47535000Y-40601939D01*
X47535000Y-40398061D01*
X47495226Y-40198102D01*
X47417205Y-40009744D01*
X47303937Y-39840226D01*
X47159774Y-39696063D01*
X46990256Y-39582795D01*
X46801898Y-39504774D01*
X46601939Y-39465000D01*
X46398061Y-39465000D01*
X46198102Y-39504774D01*
X46009744Y-39582795D01*
X45840226Y-39696063D01*
X45796289Y-39740000D01*
X33834801Y-39740000D01*
X34460802Y-39114000D01*
X54855822Y-39114000D01*
X54980525Y-39300632D01*
X55187368Y-39507475D01*
X55361760Y-39624000D01*
X55187368Y-39740525D01*
X54980525Y-39947368D01*
X54818010Y-40190589D01*
X54706068Y-40460842D01*
X54649000Y-40747740D01*
X54649000Y-41040260D01*
X54706068Y-41327158D01*
X54818010Y-41597411D01*
X54980525Y-41840632D01*
X55187368Y-42047475D01*
X55374000Y-42172179D01*
X55374000Y-43096677D01*
X55370324Y-43134000D01*
X55374000Y-43171322D01*
X55374000Y-43171332D01*
X55384997Y-43282985D01*
X55411751Y-43371183D01*
X55428454Y-43426246D01*
X55499026Y-43558276D01*
X55538871Y-43606826D01*
X55593999Y-43674001D01*
X55623003Y-43697804D01*
X55936196Y-44010997D01*
X55959999Y-44040001D01*
X56075724Y-44134974D01*
X56207753Y-44205546D01*
X56351014Y-44249003D01*
X56462667Y-44260000D01*
X56462676Y-44260000D01*
X56499999Y-44263676D01*
X56537322Y-44260000D01*
X63992462Y-44260000D01*
X63965000Y-44398061D01*
X63965000Y-44601939D01*
X64004774Y-44801898D01*
X64082795Y-44990256D01*
X64196063Y-45159774D01*
X64340226Y-45303937D01*
X64509744Y-45417205D01*
X64698102Y-45495226D01*
X64898061Y-45535000D01*
X65101939Y-45535000D01*
X65301898Y-45495226D01*
X65490256Y-45417205D01*
X65659774Y-45303937D01*
X65803937Y-45159774D01*
X65917205Y-44990256D01*
X65995226Y-44801898D01*
X66035000Y-44601939D01*
X66035000Y-44539801D01*
X67011004Y-43563798D01*
X67040001Y-43540001D01*
X67134974Y-43424276D01*
X67205546Y-43292247D01*
X67249003Y-43148986D01*
X67260000Y-43037333D01*
X67260000Y-43037324D01*
X67263676Y-43000001D01*
X67260000Y-42962678D01*
X67260000Y-38480490D01*
X67368500Y-38642871D01*
X67617129Y-38891500D01*
X67909485Y-39086847D01*
X68234335Y-39221404D01*
X68579193Y-39290000D01*
X68930807Y-39290000D01*
X69275665Y-39221404D01*
X69600515Y-39086847D01*
X69892871Y-38891500D01*
X70141500Y-38642871D01*
X70336847Y-38350515D01*
X70471404Y-38025665D01*
X70540000Y-37680807D01*
X70540000Y-37619451D01*
X70797257Y-37726011D01*
X71093816Y-37785000D01*
X71396184Y-37785000D01*
X71692743Y-37726011D01*
X71972095Y-37610299D01*
X72223505Y-37442312D01*
X72437312Y-37228505D01*
X72605299Y-36977095D01*
X72721011Y-36697743D01*
X72780000Y-36401184D01*
X72780000Y-36098816D01*
X72721011Y-35802257D01*
X72605299Y-35522905D01*
X72437312Y-35271495D01*
X72223505Y-35057688D01*
X71972095Y-34889701D01*
X71692743Y-34773989D01*
X71396184Y-34715000D01*
X71093816Y-34715000D01*
X70797257Y-34773989D01*
X70517905Y-34889701D01*
X70266495Y-35057688D01*
X70052688Y-35271495D01*
X69884701Y-35522905D01*
X69768989Y-35802257D01*
X69727998Y-36008335D01*
X69600515Y-35923153D01*
X69275665Y-35788596D01*
X68930807Y-35720000D01*
X68579193Y-35720000D01*
X68234335Y-35788596D01*
X67909485Y-35923153D01*
X67617129Y-36118500D01*
X67368500Y-36367129D01*
X67260000Y-36529510D01*
X67260000Y-32814080D01*
X70360525Y-32814080D01*
X70444208Y-33068261D01*
X70716775Y-33199158D01*
X71009642Y-33274365D01*
X71311553Y-33290991D01*
X71610907Y-33248397D01*
X71896199Y-33148222D01*
X72045792Y-33068261D01*
X72129475Y-32814080D01*
X71245000Y-31929605D01*
X70360525Y-32814080D01*
X67260000Y-32814080D01*
X67260000Y-31470490D01*
X67368500Y-31632871D01*
X67617129Y-31881500D01*
X67909485Y-32076847D01*
X68234335Y-32211404D01*
X68579193Y-32280000D01*
X68930807Y-32280000D01*
X69275665Y-32211404D01*
X69600515Y-32076847D01*
X69728845Y-31991099D01*
X69746603Y-32115907D01*
X69846778Y-32401199D01*
X69926739Y-32550792D01*
X70180920Y-32634475D01*
X71065395Y-31750000D01*
X71424605Y-31750000D01*
X72309080Y-32634475D01*
X72563261Y-32550792D01*
X72694158Y-32278225D01*
X72769365Y-31985358D01*
X72785991Y-31683447D01*
X72743397Y-31384093D01*
X72643222Y-31098801D01*
X72563261Y-30949208D01*
X72309080Y-30865525D01*
X71424605Y-31750000D01*
X71065395Y-31750000D01*
X71051253Y-31735858D01*
X71230858Y-31556253D01*
X71245000Y-31570395D01*
X72129475Y-30685920D01*
X72045792Y-30431739D01*
X71773225Y-30300842D01*
X71480358Y-30225635D01*
X71178447Y-30209009D01*
X70879093Y-30251603D01*
X70593801Y-30351778D01*
X70540000Y-30380536D01*
X70540000Y-30319193D01*
X70471404Y-29974335D01*
X70336847Y-29649485D01*
X70141500Y-29357129D01*
X69892871Y-29108500D01*
X69600515Y-28913153D01*
X69275665Y-28778596D01*
X68930807Y-28710000D01*
X68579193Y-28710000D01*
X68234335Y-28778596D01*
X67909485Y-28913153D01*
X67617129Y-29108500D01*
X67368500Y-29357129D01*
X67260000Y-29519510D01*
X67260000Y-23537325D01*
X67263676Y-23500000D01*
X67260000Y-23462675D01*
X67260000Y-23462667D01*
X67249003Y-23351014D01*
X67205546Y-23207753D01*
X67134974Y-23075724D01*
X67040001Y-22959999D01*
X67011003Y-22936201D01*
X65403995Y-21329193D01*
X66970000Y-21329193D01*
X66970000Y-21680807D01*
X67038596Y-22025665D01*
X67173153Y-22350515D01*
X67368500Y-22642871D01*
X67617129Y-22891500D01*
X67909485Y-23086847D01*
X68234335Y-23221404D01*
X68579193Y-23290000D01*
X68930807Y-23290000D01*
X69275665Y-23221404D01*
X69600515Y-23086847D01*
X69892871Y-22891500D01*
X70141500Y-22642871D01*
X70336847Y-22350515D01*
X70471404Y-22025665D01*
X70540000Y-21680807D01*
X70540000Y-21619451D01*
X70797257Y-21726011D01*
X71093816Y-21785000D01*
X71396184Y-21785000D01*
X71692743Y-21726011D01*
X71972095Y-21610299D01*
X72223505Y-21442312D01*
X72437312Y-21228505D01*
X72605299Y-20977095D01*
X72721011Y-20697743D01*
X72780000Y-20401184D01*
X72780000Y-20098816D01*
X72721011Y-19802257D01*
X72605299Y-19522905D01*
X72437312Y-19271495D01*
X72223505Y-19057688D01*
X71972095Y-18889701D01*
X71692743Y-18773989D01*
X71396184Y-18715000D01*
X71093816Y-18715000D01*
X70797257Y-18773989D01*
X70517905Y-18889701D01*
X70266495Y-19057688D01*
X70052688Y-19271495D01*
X69884701Y-19522905D01*
X69768989Y-19802257D01*
X69727998Y-20008335D01*
X69600515Y-19923153D01*
X69275665Y-19788596D01*
X68930807Y-19720000D01*
X68579193Y-19720000D01*
X68234335Y-19788596D01*
X67909485Y-19923153D01*
X67617129Y-20118500D01*
X67368500Y-20367129D01*
X67173153Y-20659485D01*
X67038596Y-20984335D01*
X66970000Y-21329193D01*
X65403995Y-21329193D01*
X60888882Y-16814080D01*
X70360525Y-16814080D01*
X70444208Y-17068261D01*
X70716775Y-17199158D01*
X71009642Y-17274365D01*
X71311553Y-17290991D01*
X71610907Y-17248397D01*
X71896199Y-17148222D01*
X72045792Y-17068261D01*
X72129475Y-16814080D01*
X71245000Y-15929605D01*
X70360525Y-16814080D01*
X60888882Y-16814080D01*
X59563804Y-15489003D01*
X59540001Y-15459999D01*
X59424276Y-15365026D01*
X59292247Y-15294454D01*
X59148986Y-15250997D01*
X59037333Y-15240000D01*
X59037322Y-15240000D01*
X59000000Y-15236324D01*
X58962678Y-15240000D01*
X55537322Y-15240000D01*
X55499999Y-15236324D01*
X55462676Y-15240000D01*
X55462667Y-15240000D01*
X55351014Y-15250997D01*
X55207753Y-15294454D01*
X55075724Y-15365026D01*
X54959999Y-15459999D01*
X54936201Y-15488998D01*
X54239002Y-16186197D01*
X54209999Y-16209999D01*
X54154871Y-16277174D01*
X54115026Y-16325724D01*
X54062348Y-16424277D01*
X54044454Y-16457754D01*
X54000997Y-16601015D01*
X53990000Y-16712668D01*
X53990000Y-16712678D01*
X53986324Y-16750000D01*
X53990000Y-16787323D01*
X53990001Y-17546288D01*
X53946063Y-17590226D01*
X53832795Y-17759744D01*
X53754774Y-17948102D01*
X53715000Y-18148061D01*
X53715000Y-18351939D01*
X53754774Y-18551898D01*
X53832795Y-18740256D01*
X53946063Y-18909774D01*
X53990001Y-18953712D01*
X53990000Y-22435198D01*
X53185199Y-23240000D01*
X38203711Y-23240000D01*
X38159774Y-23196063D01*
X37990256Y-23082795D01*
X37801898Y-23004774D01*
X37601939Y-22965000D01*
X37398061Y-22965000D01*
X37198102Y-23004774D01*
X37009744Y-23082795D01*
X36860000Y-23182850D01*
X36860000Y-20763454D01*
X36892205Y-20715256D01*
X36970226Y-20526898D01*
X37010000Y-20326939D01*
X37010000Y-20123061D01*
X36970226Y-19923102D01*
X36892205Y-19734744D01*
X36778937Y-19565226D01*
X36634774Y-19421063D01*
X36465256Y-19307795D01*
X36276898Y-19229774D01*
X36076939Y-19190000D01*
X35873061Y-19190000D01*
X35673102Y-19229774D01*
X35484744Y-19307795D01*
X35315226Y-19421063D01*
X35171063Y-19565226D01*
X35057795Y-19734744D01*
X34979774Y-19923102D01*
X34940000Y-20123061D01*
X34940000Y-20326939D01*
X34979774Y-20526898D01*
X35057795Y-20715256D01*
X35090000Y-20763454D01*
X35090001Y-33498959D01*
X35082795Y-33509744D01*
X35004774Y-33698102D01*
X34993465Y-33754956D01*
X31633422Y-37115000D01*
X22788454Y-37115000D01*
X22740256Y-37082795D01*
X22551898Y-37004774D01*
X22351939Y-36965000D01*
X22148061Y-36965000D01*
X21948102Y-37004774D01*
X21759744Y-37082795D01*
X21711546Y-37115000D01*
X18866579Y-37115000D01*
X16885000Y-35133422D01*
X16885000Y-31788454D01*
X16917205Y-31740256D01*
X16995226Y-31551898D01*
X17035000Y-31351939D01*
X17035000Y-31148061D01*
X16995226Y-30948102D01*
X16917205Y-30759744D01*
X16803937Y-30590226D01*
X16680757Y-30467046D01*
X17011004Y-30136800D01*
X17040001Y-30113003D01*
X17134974Y-29997278D01*
X17205546Y-29865249D01*
X17249003Y-29721988D01*
X17260000Y-29610335D01*
X17260000Y-29610326D01*
X17263676Y-29573003D01*
X17260000Y-29535680D01*
X17260000Y-26703711D01*
X17303937Y-26659774D01*
X17417205Y-26490256D01*
X17455393Y-26398061D01*
X21965000Y-26398061D01*
X21965000Y-26601939D01*
X22004774Y-26801898D01*
X22082795Y-26990256D01*
X22196063Y-27159774D01*
X22340226Y-27303937D01*
X22509744Y-27417205D01*
X22698102Y-27495226D01*
X22898061Y-27535000D01*
X22960199Y-27535000D01*
X26636201Y-31211003D01*
X26659999Y-31240001D01*
X26688997Y-31263799D01*
X26775723Y-31334974D01*
X26845925Y-31372498D01*
X26907753Y-31405546D01*
X27051014Y-31449003D01*
X27162667Y-31460000D01*
X27162677Y-31460000D01*
X27200000Y-31463676D01*
X27237323Y-31460000D01*
X32896289Y-31460000D01*
X32940226Y-31503937D01*
X33109744Y-31617205D01*
X33298102Y-31695226D01*
X33498061Y-31735000D01*
X33701939Y-31735000D01*
X33901898Y-31695226D01*
X34090256Y-31617205D01*
X34259774Y-31503937D01*
X34403937Y-31359774D01*
X34517205Y-31190256D01*
X34595226Y-31001898D01*
X34635000Y-30801939D01*
X34635000Y-30598061D01*
X34595226Y-30398102D01*
X34517205Y-30209744D01*
X34403937Y-30040226D01*
X34259774Y-29896063D01*
X34090256Y-29782795D01*
X33901898Y-29704774D01*
X33701939Y-29665000D01*
X33498061Y-29665000D01*
X33298102Y-29704774D01*
X33109744Y-29782795D01*
X32940226Y-29896063D01*
X32896289Y-29940000D01*
X27514802Y-29940000D01*
X24035000Y-26460199D01*
X24035000Y-26398061D01*
X23995226Y-26198102D01*
X23917205Y-26009744D01*
X23803937Y-25840226D01*
X23659774Y-25696063D01*
X23490256Y-25582795D01*
X23301898Y-25504774D01*
X23101939Y-25465000D01*
X22898061Y-25465000D01*
X22698102Y-25504774D01*
X22509744Y-25582795D01*
X22340226Y-25696063D01*
X22196063Y-25840226D01*
X22082795Y-26009744D01*
X22004774Y-26198102D01*
X21965000Y-26398061D01*
X17455393Y-26398061D01*
X17495226Y-26301898D01*
X17535000Y-26101939D01*
X17535000Y-25898061D01*
X17495226Y-25698102D01*
X17417205Y-25509744D01*
X17303937Y-25340226D01*
X17159774Y-25196063D01*
X16990256Y-25082795D01*
X16801898Y-25004774D01*
X16601939Y-24965000D01*
X16398061Y-24965000D01*
X16198102Y-25004774D01*
X16009744Y-25082795D01*
X15840226Y-25196063D01*
X15696063Y-25340226D01*
X15582795Y-25509744D01*
X15504774Y-25698102D01*
X15465000Y-25898061D01*
X15465000Y-26101939D01*
X15504774Y-26301898D01*
X15582795Y-26490256D01*
X15696063Y-26659774D01*
X15740001Y-26703712D01*
X15740000Y-29258200D01*
X14938074Y-30060126D01*
X14917205Y-30009744D01*
X14803937Y-29840226D01*
X14659774Y-29696063D01*
X14490256Y-29582795D01*
X14301898Y-29504774D01*
X14101939Y-29465000D01*
X13898061Y-29465000D01*
X13698102Y-29504774D01*
X13509744Y-29582795D01*
X13340226Y-29696063D01*
X13271289Y-29765000D01*
X12228711Y-29765000D01*
X12159774Y-29696063D01*
X11990256Y-29582795D01*
X11801898Y-29504774D01*
X11601939Y-29465000D01*
X11398061Y-29465000D01*
X11353444Y-29473875D01*
X11490256Y-29417205D01*
X11659774Y-29303937D01*
X11803937Y-29159774D01*
X11917205Y-28990256D01*
X11995226Y-28801898D01*
X12035000Y-28601939D01*
X12035000Y-28398061D01*
X11995226Y-28198102D01*
X11917205Y-28009744D01*
X11803937Y-27840226D01*
X11659774Y-27696063D01*
X11490256Y-27582795D01*
X11301898Y-27504774D01*
X11101939Y-27465000D01*
X10898061Y-27465000D01*
X10698102Y-27504774D01*
X10509744Y-27582795D01*
X10340226Y-27696063D01*
X10296289Y-27740000D01*
X8137322Y-27740000D01*
X8099999Y-27736324D01*
X8062676Y-27740000D01*
X8062667Y-27740000D01*
X7951014Y-27750997D01*
X7807753Y-27794454D01*
X7675724Y-27865026D01*
X7675722Y-27865027D01*
X7675723Y-27865027D01*
X7588996Y-27936201D01*
X7588992Y-27936205D01*
X7559999Y-27959999D01*
X7536205Y-27988993D01*
X7510197Y-28015000D01*
X7448061Y-28015000D01*
X7248102Y-28054774D01*
X7059744Y-28132795D01*
X6890226Y-28246063D01*
X6746063Y-28390226D01*
X6632795Y-28559744D01*
X6554774Y-28748102D01*
X6515000Y-28948061D01*
X6515000Y-29151939D01*
X6554774Y-29351898D01*
X6632795Y-29540256D01*
X6746063Y-29709774D01*
X6890226Y-29853937D01*
X7059744Y-29967205D01*
X7248102Y-30045226D01*
X7448061Y-30085000D01*
X7651939Y-30085000D01*
X7851898Y-30045226D01*
X8040256Y-29967205D01*
X8209774Y-29853937D01*
X8353937Y-29709774D01*
X8467205Y-29540256D01*
X8545226Y-29351898D01*
X8563506Y-29260000D01*
X10296289Y-29260000D01*
X10340226Y-29303937D01*
X10509744Y-29417205D01*
X10698102Y-29495226D01*
X10898061Y-29535000D01*
X11101939Y-29535000D01*
X11146556Y-29526125D01*
X11009744Y-29582795D01*
X10840226Y-29696063D01*
X10696063Y-29840226D01*
X10582795Y-30009744D01*
X10504774Y-30198102D01*
X10465000Y-30398061D01*
X10465000Y-30601939D01*
X10504774Y-30801898D01*
X10582795Y-30990256D01*
X10696063Y-31159774D01*
X10840226Y-31303937D01*
X11009744Y-31417205D01*
X11198102Y-31495226D01*
X11398061Y-31535000D01*
X11601939Y-31535000D01*
X11801898Y-31495226D01*
X11990256Y-31417205D01*
X12159774Y-31303937D01*
X12228711Y-31235000D01*
X13271289Y-31235000D01*
X13340226Y-31303937D01*
X13509744Y-31417205D01*
X13698102Y-31495226D01*
X13898061Y-31535000D01*
X14101939Y-31535000D01*
X14240001Y-31507538D01*
X14240000Y-36462677D01*
X14236324Y-36500000D01*
X14240000Y-36537322D01*
X14240000Y-36537332D01*
X14250997Y-36648985D01*
X14294454Y-36792246D01*
X14365026Y-36924276D01*
X14366497Y-36926068D01*
X14459999Y-37040001D01*
X14489003Y-37063804D01*
X17436201Y-40011003D01*
X17459999Y-40040001D01*
X17575724Y-40134974D01*
X17707753Y-40205546D01*
X17851014Y-40249003D01*
X17962667Y-40260000D01*
X17962675Y-40260000D01*
X18000000Y-40263676D01*
X18037325Y-40260000D01*
X22665198Y-40260000D01*
X21960199Y-40965000D01*
X21898061Y-40965000D01*
X21698102Y-41004774D01*
X21509744Y-41082795D01*
X21340226Y-41196063D01*
X21196063Y-41340226D01*
X21082795Y-41509744D01*
X21004774Y-41698102D01*
X20965000Y-41898061D01*
X20965000Y-42101939D01*
X21004774Y-42301898D01*
X21082795Y-42490256D01*
X21196063Y-42659774D01*
X21340226Y-42803937D01*
X21509744Y-42917205D01*
X21698102Y-42995226D01*
X21898061Y-43035000D01*
X22101939Y-43035000D01*
X22146556Y-43026125D01*
X22009744Y-43082795D01*
X21961546Y-43115000D01*
X19043465Y-43115000D01*
X18999999Y-43110719D01*
X18956533Y-43115000D01*
X18956523Y-43115000D01*
X18826510Y-43127805D01*
X18659687Y-43178411D01*
X18505941Y-43260589D01*
X18505939Y-43260590D01*
X18505940Y-43260590D01*
X18404953Y-43343468D01*
X18404951Y-43343470D01*
X18371183Y-43371183D01*
X18343470Y-43404951D01*
X15133422Y-46615000D01*
X12315202Y-46615000D01*
X12463934Y-46553393D01*
X12797237Y-46330687D01*
X13080687Y-46047237D01*
X13303393Y-45713934D01*
X13456796Y-45343587D01*
X13535000Y-44950430D01*
X13535000Y-44549570D01*
X13456796Y-44156413D01*
X13303393Y-43786066D01*
X13080687Y-43452763D01*
X12797237Y-43169313D01*
X12463934Y-42946607D01*
X12093587Y-42793204D01*
X11700430Y-42715000D01*
X11299570Y-42715000D01*
X10906413Y-42793204D01*
X10536066Y-42946607D01*
X10202763Y-43169313D01*
X9919313Y-43452763D01*
X9696607Y-43786066D01*
X9543204Y-44156413D01*
X9465000Y-44549570D01*
X9465000Y-44950430D01*
X9543204Y-45343587D01*
X9696607Y-45713934D01*
X9759221Y-45807642D01*
X8124100Y-44172522D01*
X8156796Y-44093587D01*
X8235000Y-43700430D01*
X8235000Y-43299570D01*
X8156796Y-42906413D01*
X8003393Y-42536066D01*
X7780687Y-42202763D01*
X7497237Y-41919313D01*
X7450692Y-41888212D01*
X8465000Y-41888212D01*
X8465000Y-42111788D01*
X8508617Y-42331067D01*
X8594176Y-42537624D01*
X8718388Y-42723520D01*
X8876480Y-42881612D01*
X9062376Y-43005824D01*
X9268933Y-43091383D01*
X9488212Y-43135000D01*
X9711788Y-43135000D01*
X9931067Y-43091383D01*
X10137624Y-43005824D01*
X10323520Y-42881612D01*
X10481612Y-42723520D01*
X10605824Y-42537624D01*
X10691383Y-42331067D01*
X10735000Y-42111788D01*
X10735000Y-41888212D01*
X10691383Y-41668933D01*
X10605824Y-41462376D01*
X10481612Y-41276480D01*
X10323520Y-41118388D01*
X10137624Y-40994176D01*
X9931067Y-40908617D01*
X9711788Y-40865000D01*
X9488212Y-40865000D01*
X9268933Y-40908617D01*
X9062376Y-40994176D01*
X8876480Y-41118388D01*
X8718388Y-41276480D01*
X8594176Y-41462376D01*
X8508617Y-41668933D01*
X8465000Y-41888212D01*
X7450692Y-41888212D01*
X7163934Y-41696607D01*
X6793587Y-41543204D01*
X6400430Y-41465000D01*
X5999570Y-41465000D01*
X5606413Y-41543204D01*
X5236066Y-41696607D01*
X4902763Y-41919313D01*
X4619313Y-42202763D01*
X4396607Y-42536066D01*
X4243204Y-42906413D01*
X4165000Y-43299570D01*
X660000Y-43299570D01*
X660000Y-41888212D01*
X965000Y-41888212D01*
X965000Y-42111788D01*
X1008617Y-42331067D01*
X1094176Y-42537624D01*
X1218388Y-42723520D01*
X1376480Y-42881612D01*
X1562376Y-43005824D01*
X1768933Y-43091383D01*
X1988212Y-43135000D01*
X2211788Y-43135000D01*
X2431067Y-43091383D01*
X2637624Y-43005824D01*
X2823520Y-42881612D01*
X2981612Y-42723520D01*
X3105824Y-42537624D01*
X3191383Y-42331067D01*
X3235000Y-42111788D01*
X3235000Y-41888212D01*
X3191383Y-41668933D01*
X3105824Y-41462376D01*
X2981612Y-41276480D01*
X2823520Y-41118388D01*
X2637624Y-40994176D01*
X2431067Y-40908617D01*
X2211788Y-40865000D01*
X1988212Y-40865000D01*
X1768933Y-40908617D01*
X1562376Y-40994176D01*
X1376480Y-41118388D01*
X1218388Y-41276480D01*
X1094176Y-41462376D01*
X1008617Y-41668933D01*
X965000Y-41888212D01*
X660000Y-41888212D01*
X660000Y-39049570D01*
X9465000Y-39049570D01*
X9465000Y-39450430D01*
X9543204Y-39843587D01*
X9696607Y-40213934D01*
X9919313Y-40547237D01*
X10202763Y-40830687D01*
X10536066Y-41053393D01*
X10906413Y-41206796D01*
X11299570Y-41285000D01*
X11700430Y-41285000D01*
X12093587Y-41206796D01*
X12463934Y-41053393D01*
X12797237Y-40830687D01*
X13080687Y-40547237D01*
X13303393Y-40213934D01*
X13456796Y-39843587D01*
X13535000Y-39450430D01*
X13535000Y-39049570D01*
X13456796Y-38656413D01*
X13303393Y-38286066D01*
X13080687Y-37952763D01*
X12797237Y-37669313D01*
X12463934Y-37446607D01*
X12093587Y-37293204D01*
X11700430Y-37215000D01*
X11299570Y-37215000D01*
X10906413Y-37293204D01*
X10536066Y-37446607D01*
X10202763Y-37669313D01*
X9919313Y-37952763D01*
X9696607Y-38286066D01*
X9543204Y-38656413D01*
X9465000Y-39049570D01*
X660000Y-39049570D01*
X660000Y-32317609D01*
X719038Y-32317609D01*
X722909Y-32355282D01*
X815079Y-32580533D01*
X949422Y-32783474D01*
X1120775Y-32956307D01*
X1322554Y-33092390D01*
X1547004Y-33186493D01*
X1785500Y-33235000D01*
X2135500Y-33235000D01*
X2135500Y-32127000D01*
X843769Y-32127000D01*
X719038Y-32317609D01*
X660000Y-32317609D01*
X660000Y-31682391D01*
X719038Y-31682391D01*
X843769Y-31873000D01*
X2135500Y-31873000D01*
X2135500Y-30765000D01*
X1785500Y-30765000D01*
X1547004Y-30813507D01*
X1322554Y-30907610D01*
X1120775Y-31043693D01*
X949422Y-31216526D01*
X815079Y-31419467D01*
X722909Y-31644718D01*
X719038Y-31682391D01*
X660000Y-31682391D01*
X660000Y-25317609D01*
X719038Y-25317609D01*
X722909Y-25355282D01*
X815079Y-25580533D01*
X949422Y-25783474D01*
X1120775Y-25956307D01*
X1322554Y-26092390D01*
X1547004Y-26186493D01*
X1785500Y-26235000D01*
X2135500Y-26235000D01*
X2135500Y-25127000D01*
X843769Y-25127000D01*
X719038Y-25317609D01*
X660000Y-25317609D01*
X660000Y-24682391D01*
X719038Y-24682391D01*
X843769Y-24873000D01*
X2135500Y-24873000D01*
X2135500Y-23765000D01*
X2389500Y-23765000D01*
X2389500Y-24873000D01*
X2409500Y-24873000D01*
X2409500Y-25127000D01*
X2389500Y-25127000D01*
X2389500Y-26235000D01*
X2739500Y-26235000D01*
X2977996Y-26186493D01*
X3152500Y-26113330D01*
X3152499Y-30886669D01*
X2977996Y-30813507D01*
X2739500Y-30765000D01*
X2389500Y-30765000D01*
X2389500Y-31873000D01*
X2409500Y-31873000D01*
X2409500Y-32127000D01*
X2389500Y-32127000D01*
X2389500Y-33235000D01*
X2739500Y-33235000D01*
X2977996Y-33186493D01*
X3202446Y-33092390D01*
X3404225Y-32956307D01*
X3575578Y-32783474D01*
X3628591Y-32703392D01*
X4965000Y-34039802D01*
X4965000Y-34101939D01*
X5004774Y-34301898D01*
X5082795Y-34490256D01*
X5196063Y-34659774D01*
X5340226Y-34803937D01*
X5509744Y-34917205D01*
X5698102Y-34995226D01*
X5898061Y-35035000D01*
X6101939Y-35035000D01*
X6301898Y-34995226D01*
X6490256Y-34917205D01*
X6659774Y-34803937D01*
X6803937Y-34659774D01*
X6917205Y-34490256D01*
X6995226Y-34301898D01*
X7035000Y-34101939D01*
X7035000Y-33898061D01*
X6995226Y-33698102D01*
X6917205Y-33509744D01*
X6803937Y-33340226D01*
X6659774Y-33196063D01*
X6490256Y-33082795D01*
X6301898Y-33004774D01*
X6101939Y-32965000D01*
X6039802Y-32965000D01*
X5372727Y-32297926D01*
X5552600Y-32232609D01*
X5659535Y-32175450D01*
X5722028Y-31939133D01*
X4962500Y-31179605D01*
X4948358Y-31193748D01*
X4768753Y-31014143D01*
X4782895Y-31000000D01*
X5142105Y-31000000D01*
X5901633Y-31759528D01*
X6137950Y-31697035D01*
X6251350Y-31454322D01*
X6315219Y-31194151D01*
X6327104Y-30926518D01*
X6286548Y-30661709D01*
X6195109Y-30409900D01*
X6137950Y-30302965D01*
X5901633Y-30240472D01*
X5142105Y-31000000D01*
X4782895Y-31000000D01*
X4768753Y-30985858D01*
X4948358Y-30806253D01*
X4962500Y-30820395D01*
X5722028Y-30060867D01*
X5659535Y-29824550D01*
X5416822Y-29711150D01*
X5156651Y-29647281D01*
X4889018Y-29635396D01*
X4672499Y-29668556D01*
X4672499Y-27329189D01*
X4768349Y-27352719D01*
X5035982Y-27364604D01*
X5300791Y-27324048D01*
X5552600Y-27232609D01*
X5659535Y-27175450D01*
X5722028Y-26939133D01*
X4962500Y-26179605D01*
X4948358Y-26193748D01*
X4768753Y-26014143D01*
X4782895Y-26000000D01*
X4768753Y-25985858D01*
X4948358Y-25806253D01*
X4962500Y-25820395D01*
X4976643Y-25806253D01*
X5156248Y-25985858D01*
X5142105Y-26000000D01*
X5901633Y-26759528D01*
X6137950Y-26697035D01*
X6251350Y-26454322D01*
X6315219Y-26194151D01*
X6327104Y-25926518D01*
X6286548Y-25661709D01*
X6195109Y-25409900D01*
X6137950Y-25302965D01*
X5975478Y-25260000D01*
X6296289Y-25260000D01*
X6340226Y-25303937D01*
X6509744Y-25417205D01*
X6698102Y-25495226D01*
X6898061Y-25535000D01*
X7101939Y-25535000D01*
X7301898Y-25495226D01*
X7490256Y-25417205D01*
X7659774Y-25303937D01*
X7803937Y-25159774D01*
X7917205Y-24990256D01*
X7995226Y-24801898D01*
X8035000Y-24601939D01*
X8035000Y-24398061D01*
X7995226Y-24198102D01*
X7917205Y-24009744D01*
X7803937Y-23840226D01*
X7659774Y-23696063D01*
X7490256Y-23582795D01*
X7301898Y-23504774D01*
X7101939Y-23465000D01*
X6898061Y-23465000D01*
X6698102Y-23504774D01*
X6509744Y-23582795D01*
X6340226Y-23696063D01*
X6296289Y-23740000D01*
X4537323Y-23740000D01*
X4500000Y-23736324D01*
X4462677Y-23740000D01*
X4462667Y-23740000D01*
X4351014Y-23750997D01*
X4215032Y-23792246D01*
X4207753Y-23794454D01*
X4075723Y-23865026D01*
X3992083Y-23933668D01*
X3959999Y-23959999D01*
X3936200Y-23988998D01*
X3628591Y-24296608D01*
X3575578Y-24216526D01*
X3404225Y-24043693D01*
X3202446Y-23907610D01*
X2977996Y-23813507D01*
X2739500Y-23765000D01*
X2389500Y-23765000D01*
X2135500Y-23765000D01*
X1785500Y-23765000D01*
X1547004Y-23813507D01*
X1322554Y-23907610D01*
X1120775Y-24043693D01*
X949422Y-24216526D01*
X815079Y-24419467D01*
X722909Y-24644718D01*
X719038Y-24682391D01*
X660000Y-24682391D01*
X660000Y-17200000D01*
X3961928Y-17200000D01*
X3974188Y-17324482D01*
X4010498Y-17444180D01*
X4069463Y-17554494D01*
X4148815Y-17651185D01*
X4245506Y-17730537D01*
X4355820Y-17789502D01*
X4475518Y-17825812D01*
X4600000Y-17838072D01*
X5414250Y-17835000D01*
X5573000Y-17676250D01*
X5573000Y-15127000D01*
X5827000Y-15127000D01*
X5827000Y-17676250D01*
X5985750Y-17835000D01*
X6800000Y-17838072D01*
X6924482Y-17825812D01*
X7044180Y-17789502D01*
X7154494Y-17730537D01*
X7251185Y-17651185D01*
X7330537Y-17554494D01*
X7389502Y-17444180D01*
X7425812Y-17324482D01*
X7438072Y-17200000D01*
X7435000Y-15285750D01*
X7276250Y-15127000D01*
X5827000Y-15127000D01*
X5573000Y-15127000D01*
X4123750Y-15127000D01*
X3965000Y-15285750D01*
X3961928Y-17200000D01*
X660000Y-17200000D01*
X660000Y-12800000D01*
X3961928Y-12800000D01*
X3965000Y-14714250D01*
X4123750Y-14873000D01*
X5573000Y-14873000D01*
X5573000Y-12323750D01*
X5827000Y-12323750D01*
X5827000Y-14873000D01*
X7276250Y-14873000D01*
X7435000Y-14714250D01*
X7438072Y-12800000D01*
X9961928Y-12800000D01*
X9961928Y-17200000D01*
X9974188Y-17324482D01*
X10010498Y-17444180D01*
X10069463Y-17554494D01*
X10148815Y-17651185D01*
X10245506Y-17730537D01*
X10355820Y-17789502D01*
X10475518Y-17825812D01*
X10600000Y-17838072D01*
X12800000Y-17838072D01*
X12924482Y-17825812D01*
X13044180Y-17789502D01*
X13154494Y-17730537D01*
X13251185Y-17651185D01*
X13330537Y-17554494D01*
X13389502Y-17444180D01*
X13425812Y-17324482D01*
X13438072Y-17200000D01*
X13438072Y-17148061D01*
X20465000Y-17148061D01*
X20465000Y-17351939D01*
X20504774Y-17551898D01*
X20582795Y-17740256D01*
X20696063Y-17909774D01*
X20840226Y-18053937D01*
X21009744Y-18167205D01*
X21198102Y-18245226D01*
X21398061Y-18285000D01*
X21601939Y-18285000D01*
X21801898Y-18245226D01*
X21990256Y-18167205D01*
X22159774Y-18053937D01*
X22203711Y-18010000D01*
X43185199Y-18010000D01*
X43740000Y-18564802D01*
X43740000Y-18796289D01*
X43696063Y-18840226D01*
X43582795Y-19009744D01*
X43504774Y-19198102D01*
X43465000Y-19398061D01*
X43465000Y-19601939D01*
X43504774Y-19801898D01*
X43582795Y-19990256D01*
X43696063Y-20159774D01*
X43840226Y-20303937D01*
X44009744Y-20417205D01*
X44198102Y-20495226D01*
X44398061Y-20535000D01*
X44601939Y-20535000D01*
X44801898Y-20495226D01*
X44990256Y-20417205D01*
X45159774Y-20303937D01*
X45303937Y-20159774D01*
X45417205Y-19990256D01*
X45495226Y-19801898D01*
X45535000Y-19601939D01*
X45535000Y-19398061D01*
X45495226Y-19198102D01*
X45417205Y-19009744D01*
X45303937Y-18840226D01*
X45260000Y-18796289D01*
X45260000Y-18287333D01*
X45263677Y-18250000D01*
X45249003Y-18101014D01*
X45205546Y-17957753D01*
X45134974Y-17825724D01*
X45063799Y-17738997D01*
X45040001Y-17709999D01*
X45011004Y-17686202D01*
X44063804Y-16739002D01*
X44040001Y-16709999D01*
X43924276Y-16615026D01*
X43792247Y-16544454D01*
X43648986Y-16500997D01*
X43537333Y-16490000D01*
X43537322Y-16490000D01*
X43500000Y-16486324D01*
X43462678Y-16490000D01*
X22203711Y-16490000D01*
X22159774Y-16446063D01*
X21990256Y-16332795D01*
X21801898Y-16254774D01*
X21601939Y-16215000D01*
X21398061Y-16215000D01*
X21198102Y-16254774D01*
X21009744Y-16332795D01*
X20840226Y-16446063D01*
X20696063Y-16590226D01*
X20582795Y-16759744D01*
X20504774Y-16948102D01*
X20465000Y-17148061D01*
X13438072Y-17148061D01*
X13438072Y-16135000D01*
X28344249Y-16135000D01*
X28400000Y-16140491D01*
X28455751Y-16135000D01*
X28455752Y-16135000D01*
X28622499Y-16118577D01*
X28836447Y-16053676D01*
X29033623Y-15948284D01*
X29206449Y-15806449D01*
X29241996Y-15763135D01*
X30685938Y-14319193D01*
X66970000Y-14319193D01*
X66970000Y-14670807D01*
X67038596Y-15015665D01*
X67173153Y-15340515D01*
X67368500Y-15632871D01*
X67617129Y-15881500D01*
X67909485Y-16076847D01*
X68234335Y-16211404D01*
X68579193Y-16280000D01*
X68930807Y-16280000D01*
X69275665Y-16211404D01*
X69600515Y-16076847D01*
X69728845Y-15991099D01*
X69746603Y-16115907D01*
X69846778Y-16401199D01*
X69926739Y-16550792D01*
X70180920Y-16634475D01*
X71065395Y-15750000D01*
X71424605Y-15750000D01*
X72309080Y-16634475D01*
X72563261Y-16550792D01*
X72694158Y-16278225D01*
X72769365Y-15985358D01*
X72785991Y-15683447D01*
X72743397Y-15384093D01*
X72643222Y-15098801D01*
X72563261Y-14949208D01*
X72309080Y-14865525D01*
X71424605Y-15750000D01*
X71065395Y-15750000D01*
X71051253Y-15735858D01*
X71230858Y-15556253D01*
X71245000Y-15570395D01*
X72129475Y-14685920D01*
X72045792Y-14431739D01*
X71773225Y-14300842D01*
X71480358Y-14225635D01*
X71178447Y-14209009D01*
X70879093Y-14251603D01*
X70593801Y-14351778D01*
X70540000Y-14380536D01*
X70540000Y-14319193D01*
X70471404Y-13974335D01*
X70336847Y-13649485D01*
X70141500Y-13357129D01*
X69892871Y-13108500D01*
X69600515Y-12913153D01*
X69275665Y-12778596D01*
X68930807Y-12710000D01*
X68579193Y-12710000D01*
X68234335Y-12778596D01*
X67909485Y-12913153D01*
X67617129Y-13108500D01*
X67368500Y-13357129D01*
X67173153Y-13649485D01*
X67038596Y-13974335D01*
X66970000Y-14319193D01*
X30685938Y-14319193D01*
X33263146Y-11741987D01*
X33306449Y-11706449D01*
X33448284Y-11533623D01*
X33553676Y-11336447D01*
X33618577Y-11122499D01*
X33635000Y-10955752D01*
X33635000Y-10955751D01*
X33640491Y-10900000D01*
X33635000Y-10844248D01*
X33635000Y-6068822D01*
X33733491Y-6003013D01*
X34003013Y-5733491D01*
X34214775Y-5416566D01*
X34360639Y-5064419D01*
X34435000Y-4690581D01*
X34435000Y-4309419D01*
X34360639Y-3935581D01*
X34283904Y-3750324D01*
X67465000Y-3750324D01*
X67465000Y-4249676D01*
X67562418Y-4739432D01*
X67753512Y-5200773D01*
X68030937Y-5615968D01*
X68384032Y-5969063D01*
X68799227Y-6246488D01*
X69260568Y-6437582D01*
X69750324Y-6535000D01*
X70249676Y-6535000D01*
X70739432Y-6437582D01*
X71200773Y-6246488D01*
X71615968Y-5969063D01*
X71969063Y-5615968D01*
X72246488Y-5200773D01*
X72437582Y-4739432D01*
X72535000Y-4249676D01*
X72535000Y-3750324D01*
X72437582Y-3260568D01*
X72246488Y-2799227D01*
X71969063Y-2384032D01*
X71615968Y-2030937D01*
X71200773Y-1753512D01*
X70739432Y-1562418D01*
X70249676Y-1465000D01*
X69750324Y-1465000D01*
X69260568Y-1562418D01*
X68799227Y-1753512D01*
X68384032Y-2030937D01*
X68030937Y-2384032D01*
X67753512Y-2799227D01*
X67562418Y-3260568D01*
X67465000Y-3750324D01*
X34283904Y-3750324D01*
X34214775Y-3583434D01*
X34003013Y-3266509D01*
X33733491Y-2996987D01*
X33416566Y-2785225D01*
X33064419Y-2639361D01*
X32690581Y-2565000D01*
X32309419Y-2565000D01*
X31935581Y-2639361D01*
X31583434Y-2785225D01*
X31266509Y-2996987D01*
X30996987Y-3266509D01*
X30785225Y-3583434D01*
X30639361Y-3935581D01*
X30565000Y-4309419D01*
X30565000Y-4690581D01*
X30639361Y-5064419D01*
X30785225Y-5416566D01*
X30996987Y-5733491D01*
X31266509Y-6003013D01*
X31365001Y-6068823D01*
X31365000Y-10429867D01*
X27929869Y-13865000D01*
X13438072Y-13865000D01*
X13438072Y-12800000D01*
X13425812Y-12675518D01*
X13389502Y-12555820D01*
X13330537Y-12445506D01*
X13251185Y-12348815D01*
X13154494Y-12269463D01*
X13044180Y-12210498D01*
X12924482Y-12174188D01*
X12800000Y-12161928D01*
X10600000Y-12161928D01*
X10475518Y-12174188D01*
X10355820Y-12210498D01*
X10245506Y-12269463D01*
X10148815Y-12348815D01*
X10069463Y-12445506D01*
X10010498Y-12555820D01*
X9974188Y-12675518D01*
X9961928Y-12800000D01*
X7438072Y-12800000D01*
X7425812Y-12675518D01*
X7389502Y-12555820D01*
X7330537Y-12445506D01*
X7251185Y-12348815D01*
X7154494Y-12269463D01*
X7044180Y-12210498D01*
X6924482Y-12174188D01*
X6800000Y-12161928D01*
X5985750Y-12165000D01*
X5827000Y-12323750D01*
X5573000Y-12323750D01*
X5414250Y-12165000D01*
X4600000Y-12161928D01*
X4475518Y-12174188D01*
X4355820Y-12210498D01*
X4245506Y-12269463D01*
X4148815Y-12348815D01*
X4069463Y-12445506D01*
X4010498Y-12555820D01*
X3974188Y-12675518D01*
X3961928Y-12800000D01*
X660000Y-12800000D01*
X660000Y-3750324D01*
X1465000Y-3750324D01*
X1465000Y-4249676D01*
X1562418Y-4739432D01*
X1753512Y-5200773D01*
X2030937Y-5615968D01*
X2384032Y-5969063D01*
X2799227Y-6246488D01*
X3260568Y-6437582D01*
X3750324Y-6535000D01*
X4249676Y-6535000D01*
X4739432Y-6437582D01*
X5200773Y-6246488D01*
X5615968Y-5969063D01*
X5969063Y-5615968D01*
X6246488Y-5200773D01*
X6437582Y-4739432D01*
X6535000Y-4249676D01*
X6535000Y-3750324D01*
X6437582Y-3260568D01*
X6246488Y-2799227D01*
X5969063Y-2384032D01*
X5615968Y-2030937D01*
X5569668Y-2000000D01*
X16865000Y-2000000D01*
X16865000Y-8500000D01*
X16877201Y-8623882D01*
X16913336Y-8743004D01*
X16972017Y-8852787D01*
X17050987Y-8949013D01*
X17147213Y-9027983D01*
X17256996Y-9086664D01*
X17376118Y-9122799D01*
X17500000Y-9135000D01*
X23500000Y-9135000D01*
X23623882Y-9122799D01*
X23743004Y-9086664D01*
X23852787Y-9027983D01*
X23949013Y-8949013D01*
X24027983Y-8852787D01*
X24086664Y-8743004D01*
X24122799Y-8623882D01*
X24135000Y-8500000D01*
X24135000Y-3200000D01*
X25561928Y-3200000D01*
X25561928Y-5800000D01*
X25574188Y-5924482D01*
X25610498Y-6044180D01*
X25669463Y-6154494D01*
X25748815Y-6251185D01*
X25845506Y-6330537D01*
X25955820Y-6389502D01*
X26075518Y-6425812D01*
X26200000Y-6438072D01*
X28800000Y-6438072D01*
X28924482Y-6425812D01*
X29044180Y-6389502D01*
X29154494Y-6330537D01*
X29251185Y-6251185D01*
X29330537Y-6154494D01*
X29389502Y-6044180D01*
X29425812Y-5924482D01*
X29438072Y-5800000D01*
X29438072Y-3200000D01*
X29425812Y-3075518D01*
X29389502Y-2955820D01*
X29330537Y-2845506D01*
X29251185Y-2748815D01*
X29154494Y-2669463D01*
X29044180Y-2610498D01*
X28924482Y-2574188D01*
X28800000Y-2561928D01*
X26200000Y-2561928D01*
X26075518Y-2574188D01*
X25955820Y-2610498D01*
X25845506Y-2669463D01*
X25748815Y-2748815D01*
X25669463Y-2845506D01*
X25610498Y-2955820D01*
X25574188Y-3075518D01*
X25561928Y-3200000D01*
X24135000Y-3200000D01*
X24135000Y-2000000D01*
X24122799Y-1876118D01*
X24086664Y-1756996D01*
X24027983Y-1647213D01*
X23949013Y-1550987D01*
X23852787Y-1472017D01*
X23743004Y-1413336D01*
X23623882Y-1377201D01*
X23500000Y-1365000D01*
X17500000Y-1365000D01*
X17376118Y-1377201D01*
X17256996Y-1413336D01*
X17147213Y-1472017D01*
X17050987Y-1550987D01*
X16972017Y-1647213D01*
X16913336Y-1756996D01*
X16877201Y-1876118D01*
X16865000Y-2000000D01*
X5569668Y-2000000D01*
X5200773Y-1753512D01*
X4739432Y-1562418D01*
X4249676Y-1465000D01*
X3750324Y-1465000D01*
X3260568Y-1562418D01*
X2799227Y-1753512D01*
X2384032Y-2030937D01*
X2030937Y-2384032D01*
X1753512Y-2799227D01*
X1562418Y-3260568D01*
X1465000Y-3750324D01*
X660000Y-3750324D01*
X660000Y-3273380D01*
X3273381Y-660000D01*
X70726620Y-660000D01*
X73340001Y-3273382D01*
G37*
X73340001Y-3273382D02*
X73340000Y-50726619D01*
X70726620Y-53340000D01*
X3273381Y-53340000D01*
X660000Y-50726620D01*
X660000Y-49750324D01*
X1465000Y-49750324D01*
X1465000Y-50249676D01*
X1562418Y-50739432D01*
X1753512Y-51200773D01*
X2030937Y-51615968D01*
X2384032Y-51969063D01*
X2799227Y-52246488D01*
X3260568Y-52437582D01*
X3750324Y-52535000D01*
X4249676Y-52535000D01*
X4739432Y-52437582D01*
X5200773Y-52246488D01*
X5615968Y-51969063D01*
X5969063Y-51615968D01*
X6246488Y-51200773D01*
X6437582Y-50739432D01*
X6535000Y-50249676D01*
X6535000Y-49750324D01*
X67465000Y-49750324D01*
X67465000Y-50249676D01*
X67562418Y-50739432D01*
X67753512Y-51200773D01*
X68030937Y-51615968D01*
X68384032Y-51969063D01*
X68799227Y-52246488D01*
X69260568Y-52437582D01*
X69750324Y-52535000D01*
X70249676Y-52535000D01*
X70739432Y-52437582D01*
X71200773Y-52246488D01*
X71615968Y-51969063D01*
X71969063Y-51615968D01*
X72246488Y-51200773D01*
X72437582Y-50739432D01*
X72535000Y-50249676D01*
X72535000Y-49750324D01*
X72437582Y-49260568D01*
X72246488Y-48799227D01*
X71969063Y-48384032D01*
X71615968Y-48030937D01*
X71200773Y-47753512D01*
X70739432Y-47562418D01*
X70249676Y-47465000D01*
X69750324Y-47465000D01*
X69260568Y-47562418D01*
X68799227Y-47753512D01*
X68384032Y-48030937D01*
X68030937Y-48384032D01*
X67753512Y-48799227D01*
X67562418Y-49260568D01*
X67465000Y-49750324D01*
X6535000Y-49750324D01*
X6437582Y-49260568D01*
X6246488Y-48799227D01*
X5969063Y-48384032D01*
X5615968Y-48030937D01*
X5200773Y-47753512D01*
X4739432Y-47562418D01*
X4249676Y-47465000D01*
X3750324Y-47465000D01*
X3260568Y-47562418D01*
X2799227Y-47753512D01*
X2384032Y-48030937D01*
X2030937Y-48384032D01*
X1753512Y-48799227D01*
X1562418Y-49260568D01*
X1465000Y-49750324D01*
X660000Y-49750324D01*
X660000Y-43299570D01*
X4165000Y-43299570D01*
X4165000Y-43700430D01*
X4243204Y-44093587D01*
X4396607Y-44463934D01*
X4619313Y-44797237D01*
X4902763Y-45080687D01*
X5236066Y-45303393D01*
X5606413Y-45456796D01*
X5999570Y-45535000D01*
X6400430Y-45535000D01*
X6793587Y-45456796D01*
X6872522Y-45424100D01*
X9543470Y-48095049D01*
X9571183Y-48128817D01*
X9604951Y-48156530D01*
X9604953Y-48156532D01*
X9676452Y-48215210D01*
X9705941Y-48239411D01*
X9859687Y-48321589D01*
X10026510Y-48372195D01*
X10156523Y-48385000D01*
X10156533Y-48385000D01*
X10199999Y-48389281D01*
X10243465Y-48385000D01*
X15456531Y-48385000D01*
X15500000Y-48389281D01*
X15543469Y-48385000D01*
X15543477Y-48385000D01*
X15673490Y-48372195D01*
X15840313Y-48321589D01*
X15994059Y-48239411D01*
X16128817Y-48128817D01*
X16156534Y-48095044D01*
X19366579Y-44885000D01*
X21961546Y-44885000D01*
X22009744Y-44917205D01*
X22198102Y-44995226D01*
X22398061Y-45035000D01*
X22601939Y-45035000D01*
X22801898Y-44995226D01*
X22990256Y-44917205D01*
X23038454Y-44885000D01*
X35461546Y-44885000D01*
X35509744Y-44917205D01*
X35698102Y-44995226D01*
X35898061Y-45035000D01*
X36101939Y-45035000D01*
X36301898Y-44995226D01*
X36490256Y-44917205D01*
X36659774Y-44803937D01*
X36803937Y-44659774D01*
X36917205Y-44490256D01*
X36995226Y-44301898D01*
X37035000Y-44101939D01*
X37035000Y-43898061D01*
X36995226Y-43698102D01*
X36917205Y-43509744D01*
X36803937Y-43340226D01*
X36659774Y-43196063D01*
X36490256Y-43082795D01*
X36301898Y-43004774D01*
X36101939Y-42965000D01*
X35898061Y-42965000D01*
X35698102Y-43004774D01*
X35509744Y-43082795D01*
X35461546Y-43115000D01*
X23038454Y-43115000D01*
X22990256Y-43082795D01*
X22801898Y-43004774D01*
X22601939Y-42965000D01*
X22398061Y-42965000D01*
X22353444Y-42973875D01*
X22490256Y-42917205D01*
X22659774Y-42803937D01*
X22803937Y-42659774D01*
X22917205Y-42490256D01*
X22995226Y-42301898D01*
X23035000Y-42101939D01*
X23035000Y-42039801D01*
X23814802Y-41260000D01*
X33776289Y-41260000D01*
X33696063Y-41340226D01*
X33582795Y-41509744D01*
X33504774Y-41698102D01*
X33465000Y-41898061D01*
X33465000Y-42101939D01*
X33504774Y-42301898D01*
X33582795Y-42490256D01*
X33696063Y-42659774D01*
X33840226Y-42803937D01*
X34009744Y-42917205D01*
X34198102Y-42995226D01*
X34398061Y-43035000D01*
X34601939Y-43035000D01*
X34801898Y-42995226D01*
X34990256Y-42917205D01*
X35159774Y-42803937D01*
X35203711Y-42760000D01*
X47796289Y-42760000D01*
X47840226Y-42803937D01*
X48009744Y-42917205D01*
X48198102Y-42995226D01*
X48398061Y-43035000D01*
X48601939Y-43035000D01*
X48801898Y-42995226D01*
X48990256Y-42917205D01*
X49159774Y-42803937D01*
X49303937Y-42659774D01*
X49417205Y-42490256D01*
X49495226Y-42301898D01*
X49535000Y-42101939D01*
X49535000Y-41898061D01*
X49495226Y-41698102D01*
X49417205Y-41509744D01*
X49303937Y-41340226D01*
X49159774Y-41196063D01*
X48990256Y-41082795D01*
X48801898Y-41004774D01*
X48601939Y-40965000D01*
X48398061Y-40965000D01*
X48198102Y-41004774D01*
X48009744Y-41082795D01*
X47840226Y-41196063D01*
X47796289Y-41240000D01*
X47223711Y-41240000D01*
X47303937Y-41159774D01*
X47417205Y-40990256D01*
X47495226Y-40801898D01*
X47535000Y-40601939D01*
X47535000Y-40398061D01*
X47495226Y-40198102D01*
X47417205Y-40009744D01*
X47303937Y-39840226D01*
X47159774Y-39696063D01*
X46990256Y-39582795D01*
X46801898Y-39504774D01*
X46601939Y-39465000D01*
X46398061Y-39465000D01*
X46198102Y-39504774D01*
X46009744Y-39582795D01*
X45840226Y-39696063D01*
X45796289Y-39740000D01*
X33834801Y-39740000D01*
X34460802Y-39114000D01*
X54855822Y-39114000D01*
X54980525Y-39300632D01*
X55187368Y-39507475D01*
X55361760Y-39624000D01*
X55187368Y-39740525D01*
X54980525Y-39947368D01*
X54818010Y-40190589D01*
X54706068Y-40460842D01*
X54649000Y-40747740D01*
X54649000Y-41040260D01*
X54706068Y-41327158D01*
X54818010Y-41597411D01*
X54980525Y-41840632D01*
X55187368Y-42047475D01*
X55374000Y-42172179D01*
X55374000Y-43096677D01*
X55370324Y-43134000D01*
X55374000Y-43171322D01*
X55374000Y-43171332D01*
X55384997Y-43282985D01*
X55411751Y-43371183D01*
X55428454Y-43426246D01*
X55499026Y-43558276D01*
X55538871Y-43606826D01*
X55593999Y-43674001D01*
X55623003Y-43697804D01*
X55936196Y-44010997D01*
X55959999Y-44040001D01*
X56075724Y-44134974D01*
X56207753Y-44205546D01*
X56351014Y-44249003D01*
X56462667Y-44260000D01*
X56462676Y-44260000D01*
X56499999Y-44263676D01*
X56537322Y-44260000D01*
X63992462Y-44260000D01*
X63965000Y-44398061D01*
X63965000Y-44601939D01*
X64004774Y-44801898D01*
X64082795Y-44990256D01*
X64196063Y-45159774D01*
X64340226Y-45303937D01*
X64509744Y-45417205D01*
X64698102Y-45495226D01*
X64898061Y-45535000D01*
X65101939Y-45535000D01*
X65301898Y-45495226D01*
X65490256Y-45417205D01*
X65659774Y-45303937D01*
X65803937Y-45159774D01*
X65917205Y-44990256D01*
X65995226Y-44801898D01*
X66035000Y-44601939D01*
X66035000Y-44539801D01*
X67011004Y-43563798D01*
X67040001Y-43540001D01*
X67134974Y-43424276D01*
X67205546Y-43292247D01*
X67249003Y-43148986D01*
X67260000Y-43037333D01*
X67260000Y-43037324D01*
X67263676Y-43000001D01*
X67260000Y-42962678D01*
X67260000Y-38480490D01*
X67368500Y-38642871D01*
X67617129Y-38891500D01*
X67909485Y-39086847D01*
X68234335Y-39221404D01*
X68579193Y-39290000D01*
X68930807Y-39290000D01*
X69275665Y-39221404D01*
X69600515Y-39086847D01*
X69892871Y-38891500D01*
X70141500Y-38642871D01*
X70336847Y-38350515D01*
X70471404Y-38025665D01*
X70540000Y-37680807D01*
X70540000Y-37619451D01*
X70797257Y-37726011D01*
X71093816Y-37785000D01*
X71396184Y-37785000D01*
X71692743Y-37726011D01*
X71972095Y-37610299D01*
X72223505Y-37442312D01*
X72437312Y-37228505D01*
X72605299Y-36977095D01*
X72721011Y-36697743D01*
X72780000Y-36401184D01*
X72780000Y-36098816D01*
X72721011Y-35802257D01*
X72605299Y-35522905D01*
X72437312Y-35271495D01*
X72223505Y-35057688D01*
X71972095Y-34889701D01*
X71692743Y-34773989D01*
X71396184Y-34715000D01*
X71093816Y-34715000D01*
X70797257Y-34773989D01*
X70517905Y-34889701D01*
X70266495Y-35057688D01*
X70052688Y-35271495D01*
X69884701Y-35522905D01*
X69768989Y-35802257D01*
X69727998Y-36008335D01*
X69600515Y-35923153D01*
X69275665Y-35788596D01*
X68930807Y-35720000D01*
X68579193Y-35720000D01*
X68234335Y-35788596D01*
X67909485Y-35923153D01*
X67617129Y-36118500D01*
X67368500Y-36367129D01*
X67260000Y-36529510D01*
X67260000Y-32814080D01*
X70360525Y-32814080D01*
X70444208Y-33068261D01*
X70716775Y-33199158D01*
X71009642Y-33274365D01*
X71311553Y-33290991D01*
X71610907Y-33248397D01*
X71896199Y-33148222D01*
X72045792Y-33068261D01*
X72129475Y-32814080D01*
X71245000Y-31929605D01*
X70360525Y-32814080D01*
X67260000Y-32814080D01*
X67260000Y-31470490D01*
X67368500Y-31632871D01*
X67617129Y-31881500D01*
X67909485Y-32076847D01*
X68234335Y-32211404D01*
X68579193Y-32280000D01*
X68930807Y-32280000D01*
X69275665Y-32211404D01*
X69600515Y-32076847D01*
X69728845Y-31991099D01*
X69746603Y-32115907D01*
X69846778Y-32401199D01*
X69926739Y-32550792D01*
X70180920Y-32634475D01*
X71065395Y-31750000D01*
X71424605Y-31750000D01*
X72309080Y-32634475D01*
X72563261Y-32550792D01*
X72694158Y-32278225D01*
X72769365Y-31985358D01*
X72785991Y-31683447D01*
X72743397Y-31384093D01*
X72643222Y-31098801D01*
X72563261Y-30949208D01*
X72309080Y-30865525D01*
X71424605Y-31750000D01*
X71065395Y-31750000D01*
X71051253Y-31735858D01*
X71230858Y-31556253D01*
X71245000Y-31570395D01*
X72129475Y-30685920D01*
X72045792Y-30431739D01*
X71773225Y-30300842D01*
X71480358Y-30225635D01*
X71178447Y-30209009D01*
X70879093Y-30251603D01*
X70593801Y-30351778D01*
X70540000Y-30380536D01*
X70540000Y-30319193D01*
X70471404Y-29974335D01*
X70336847Y-29649485D01*
X70141500Y-29357129D01*
X69892871Y-29108500D01*
X69600515Y-28913153D01*
X69275665Y-28778596D01*
X68930807Y-28710000D01*
X68579193Y-28710000D01*
X68234335Y-28778596D01*
X67909485Y-28913153D01*
X67617129Y-29108500D01*
X67368500Y-29357129D01*
X67260000Y-29519510D01*
X67260000Y-23537325D01*
X67263676Y-23500000D01*
X67260000Y-23462675D01*
X67260000Y-23462667D01*
X67249003Y-23351014D01*
X67205546Y-23207753D01*
X67134974Y-23075724D01*
X67040001Y-22959999D01*
X67011003Y-22936201D01*
X65403995Y-21329193D01*
X66970000Y-21329193D01*
X66970000Y-21680807D01*
X67038596Y-22025665D01*
X67173153Y-22350515D01*
X67368500Y-22642871D01*
X67617129Y-22891500D01*
X67909485Y-23086847D01*
X68234335Y-23221404D01*
X68579193Y-23290000D01*
X68930807Y-23290000D01*
X69275665Y-23221404D01*
X69600515Y-23086847D01*
X69892871Y-22891500D01*
X70141500Y-22642871D01*
X70336847Y-22350515D01*
X70471404Y-22025665D01*
X70540000Y-21680807D01*
X70540000Y-21619451D01*
X70797257Y-21726011D01*
X71093816Y-21785000D01*
X71396184Y-21785000D01*
X71692743Y-21726011D01*
X71972095Y-21610299D01*
X72223505Y-21442312D01*
X72437312Y-21228505D01*
X72605299Y-20977095D01*
X72721011Y-20697743D01*
X72780000Y-20401184D01*
X72780000Y-20098816D01*
X72721011Y-19802257D01*
X72605299Y-19522905D01*
X72437312Y-19271495D01*
X72223505Y-19057688D01*
X71972095Y-18889701D01*
X71692743Y-18773989D01*
X71396184Y-18715000D01*
X71093816Y-18715000D01*
X70797257Y-18773989D01*
X70517905Y-18889701D01*
X70266495Y-19057688D01*
X70052688Y-19271495D01*
X69884701Y-19522905D01*
X69768989Y-19802257D01*
X69727998Y-20008335D01*
X69600515Y-19923153D01*
X69275665Y-19788596D01*
X68930807Y-19720000D01*
X68579193Y-19720000D01*
X68234335Y-19788596D01*
X67909485Y-19923153D01*
X67617129Y-20118500D01*
X67368500Y-20367129D01*
X67173153Y-20659485D01*
X67038596Y-20984335D01*
X66970000Y-21329193D01*
X65403995Y-21329193D01*
X60888882Y-16814080D01*
X70360525Y-16814080D01*
X70444208Y-17068261D01*
X70716775Y-17199158D01*
X71009642Y-17274365D01*
X71311553Y-17290991D01*
X71610907Y-17248397D01*
X71896199Y-17148222D01*
X72045792Y-17068261D01*
X72129475Y-16814080D01*
X71245000Y-15929605D01*
X70360525Y-16814080D01*
X60888882Y-16814080D01*
X59563804Y-15489003D01*
X59540001Y-15459999D01*
X59424276Y-15365026D01*
X59292247Y-15294454D01*
X59148986Y-15250997D01*
X59037333Y-15240000D01*
X59037322Y-15240000D01*
X59000000Y-15236324D01*
X58962678Y-15240000D01*
X55537322Y-15240000D01*
X55499999Y-15236324D01*
X55462676Y-15240000D01*
X55462667Y-15240000D01*
X55351014Y-15250997D01*
X55207753Y-15294454D01*
X55075724Y-15365026D01*
X54959999Y-15459999D01*
X54936201Y-15488998D01*
X54239002Y-16186197D01*
X54209999Y-16209999D01*
X54154871Y-16277174D01*
X54115026Y-16325724D01*
X54062348Y-16424277D01*
X54044454Y-16457754D01*
X54000997Y-16601015D01*
X53990000Y-16712668D01*
X53990000Y-16712678D01*
X53986324Y-16750000D01*
X53990000Y-16787323D01*
X53990001Y-17546288D01*
X53946063Y-17590226D01*
X53832795Y-17759744D01*
X53754774Y-17948102D01*
X53715000Y-18148061D01*
X53715000Y-18351939D01*
X53754774Y-18551898D01*
X53832795Y-18740256D01*
X53946063Y-18909774D01*
X53990001Y-18953712D01*
X53990000Y-22435198D01*
X53185199Y-23240000D01*
X38203711Y-23240000D01*
X38159774Y-23196063D01*
X37990256Y-23082795D01*
X37801898Y-23004774D01*
X37601939Y-22965000D01*
X37398061Y-22965000D01*
X37198102Y-23004774D01*
X37009744Y-23082795D01*
X36860000Y-23182850D01*
X36860000Y-20763454D01*
X36892205Y-20715256D01*
X36970226Y-20526898D01*
X37010000Y-20326939D01*
X37010000Y-20123061D01*
X36970226Y-19923102D01*
X36892205Y-19734744D01*
X36778937Y-19565226D01*
X36634774Y-19421063D01*
X36465256Y-19307795D01*
X36276898Y-19229774D01*
X36076939Y-19190000D01*
X35873061Y-19190000D01*
X35673102Y-19229774D01*
X35484744Y-19307795D01*
X35315226Y-19421063D01*
X35171063Y-19565226D01*
X35057795Y-19734744D01*
X34979774Y-19923102D01*
X34940000Y-20123061D01*
X34940000Y-20326939D01*
X34979774Y-20526898D01*
X35057795Y-20715256D01*
X35090000Y-20763454D01*
X35090001Y-33498959D01*
X35082795Y-33509744D01*
X35004774Y-33698102D01*
X34993465Y-33754956D01*
X31633422Y-37115000D01*
X22788454Y-37115000D01*
X22740256Y-37082795D01*
X22551898Y-37004774D01*
X22351939Y-36965000D01*
X22148061Y-36965000D01*
X21948102Y-37004774D01*
X21759744Y-37082795D01*
X21711546Y-37115000D01*
X18866579Y-37115000D01*
X16885000Y-35133422D01*
X16885000Y-31788454D01*
X16917205Y-31740256D01*
X16995226Y-31551898D01*
X17035000Y-31351939D01*
X17035000Y-31148061D01*
X16995226Y-30948102D01*
X16917205Y-30759744D01*
X16803937Y-30590226D01*
X16680757Y-30467046D01*
X17011004Y-30136800D01*
X17040001Y-30113003D01*
X17134974Y-29997278D01*
X17205546Y-29865249D01*
X17249003Y-29721988D01*
X17260000Y-29610335D01*
X17260000Y-29610326D01*
X17263676Y-29573003D01*
X17260000Y-29535680D01*
X17260000Y-26703711D01*
X17303937Y-26659774D01*
X17417205Y-26490256D01*
X17455393Y-26398061D01*
X21965000Y-26398061D01*
X21965000Y-26601939D01*
X22004774Y-26801898D01*
X22082795Y-26990256D01*
X22196063Y-27159774D01*
X22340226Y-27303937D01*
X22509744Y-27417205D01*
X22698102Y-27495226D01*
X22898061Y-27535000D01*
X22960199Y-27535000D01*
X26636201Y-31211003D01*
X26659999Y-31240001D01*
X26688997Y-31263799D01*
X26775723Y-31334974D01*
X26845925Y-31372498D01*
X26907753Y-31405546D01*
X27051014Y-31449003D01*
X27162667Y-31460000D01*
X27162677Y-31460000D01*
X27200000Y-31463676D01*
X27237323Y-31460000D01*
X32896289Y-31460000D01*
X32940226Y-31503937D01*
X33109744Y-31617205D01*
X33298102Y-31695226D01*
X33498061Y-31735000D01*
X33701939Y-31735000D01*
X33901898Y-31695226D01*
X34090256Y-31617205D01*
X34259774Y-31503937D01*
X34403937Y-31359774D01*
X34517205Y-31190256D01*
X34595226Y-31001898D01*
X34635000Y-30801939D01*
X34635000Y-30598061D01*
X34595226Y-30398102D01*
X34517205Y-30209744D01*
X34403937Y-30040226D01*
X34259774Y-29896063D01*
X34090256Y-29782795D01*
X33901898Y-29704774D01*
X33701939Y-29665000D01*
X33498061Y-29665000D01*
X33298102Y-29704774D01*
X33109744Y-29782795D01*
X32940226Y-29896063D01*
X32896289Y-29940000D01*
X27514802Y-29940000D01*
X24035000Y-26460199D01*
X24035000Y-26398061D01*
X23995226Y-26198102D01*
X23917205Y-26009744D01*
X23803937Y-25840226D01*
X23659774Y-25696063D01*
X23490256Y-25582795D01*
X23301898Y-25504774D01*
X23101939Y-25465000D01*
X22898061Y-25465000D01*
X22698102Y-25504774D01*
X22509744Y-25582795D01*
X22340226Y-25696063D01*
X22196063Y-25840226D01*
X22082795Y-26009744D01*
X22004774Y-26198102D01*
X21965000Y-26398061D01*
X17455393Y-26398061D01*
X17495226Y-26301898D01*
X17535000Y-26101939D01*
X17535000Y-25898061D01*
X17495226Y-25698102D01*
X17417205Y-25509744D01*
X17303937Y-25340226D01*
X17159774Y-25196063D01*
X16990256Y-25082795D01*
X16801898Y-25004774D01*
X16601939Y-24965000D01*
X16398061Y-24965000D01*
X16198102Y-25004774D01*
X16009744Y-25082795D01*
X15840226Y-25196063D01*
X15696063Y-25340226D01*
X15582795Y-25509744D01*
X15504774Y-25698102D01*
X15465000Y-25898061D01*
X15465000Y-26101939D01*
X15504774Y-26301898D01*
X15582795Y-26490256D01*
X15696063Y-26659774D01*
X15740001Y-26703712D01*
X15740000Y-29258200D01*
X14938074Y-30060126D01*
X14917205Y-30009744D01*
X14803937Y-29840226D01*
X14659774Y-29696063D01*
X14490256Y-29582795D01*
X14301898Y-29504774D01*
X14101939Y-29465000D01*
X13898061Y-29465000D01*
X13698102Y-29504774D01*
X13509744Y-29582795D01*
X13340226Y-29696063D01*
X13271289Y-29765000D01*
X12228711Y-29765000D01*
X12159774Y-29696063D01*
X11990256Y-29582795D01*
X11801898Y-29504774D01*
X11601939Y-29465000D01*
X11398061Y-29465000D01*
X11353444Y-29473875D01*
X11490256Y-29417205D01*
X11659774Y-29303937D01*
X11803937Y-29159774D01*
X11917205Y-28990256D01*
X11995226Y-28801898D01*
X12035000Y-28601939D01*
X12035000Y-28398061D01*
X11995226Y-28198102D01*
X11917205Y-28009744D01*
X11803937Y-27840226D01*
X11659774Y-27696063D01*
X11490256Y-27582795D01*
X11301898Y-27504774D01*
X11101939Y-27465000D01*
X10898061Y-27465000D01*
X10698102Y-27504774D01*
X10509744Y-27582795D01*
X10340226Y-27696063D01*
X10296289Y-27740000D01*
X8137322Y-27740000D01*
X8099999Y-27736324D01*
X8062676Y-27740000D01*
X8062667Y-27740000D01*
X7951014Y-27750997D01*
X7807753Y-27794454D01*
X7675724Y-27865026D01*
X7675722Y-27865027D01*
X7675723Y-27865027D01*
X7588996Y-27936201D01*
X7588992Y-27936205D01*
X7559999Y-27959999D01*
X7536205Y-27988993D01*
X7510197Y-28015000D01*
X7448061Y-28015000D01*
X7248102Y-28054774D01*
X7059744Y-28132795D01*
X6890226Y-28246063D01*
X6746063Y-28390226D01*
X6632795Y-28559744D01*
X6554774Y-28748102D01*
X6515000Y-28948061D01*
X6515000Y-29151939D01*
X6554774Y-29351898D01*
X6632795Y-29540256D01*
X6746063Y-29709774D01*
X6890226Y-29853937D01*
X7059744Y-29967205D01*
X7248102Y-30045226D01*
X7448061Y-30085000D01*
X7651939Y-30085000D01*
X7851898Y-30045226D01*
X8040256Y-29967205D01*
X8209774Y-29853937D01*
X8353937Y-29709774D01*
X8467205Y-29540256D01*
X8545226Y-29351898D01*
X8563506Y-29260000D01*
X10296289Y-29260000D01*
X10340226Y-29303937D01*
X10509744Y-29417205D01*
X10698102Y-29495226D01*
X10898061Y-29535000D01*
X11101939Y-29535000D01*
X11146556Y-29526125D01*
X11009744Y-29582795D01*
X10840226Y-29696063D01*
X10696063Y-29840226D01*
X10582795Y-30009744D01*
X10504774Y-30198102D01*
X10465000Y-30398061D01*
X10465000Y-30601939D01*
X10504774Y-30801898D01*
X10582795Y-30990256D01*
X10696063Y-31159774D01*
X10840226Y-31303937D01*
X11009744Y-31417205D01*
X11198102Y-31495226D01*
X11398061Y-31535000D01*
X11601939Y-31535000D01*
X11801898Y-31495226D01*
X11990256Y-31417205D01*
X12159774Y-31303937D01*
X12228711Y-31235000D01*
X13271289Y-31235000D01*
X13340226Y-31303937D01*
X13509744Y-31417205D01*
X13698102Y-31495226D01*
X13898061Y-31535000D01*
X14101939Y-31535000D01*
X14240001Y-31507538D01*
X14240000Y-36462677D01*
X14236324Y-36500000D01*
X14240000Y-36537322D01*
X14240000Y-36537332D01*
X14250997Y-36648985D01*
X14294454Y-36792246D01*
X14365026Y-36924276D01*
X14366497Y-36926068D01*
X14459999Y-37040001D01*
X14489003Y-37063804D01*
X17436201Y-40011003D01*
X17459999Y-40040001D01*
X17575724Y-40134974D01*
X17707753Y-40205546D01*
X17851014Y-40249003D01*
X17962667Y-40260000D01*
X17962675Y-40260000D01*
X18000000Y-40263676D01*
X18037325Y-40260000D01*
X22665198Y-40260000D01*
X21960199Y-40965000D01*
X21898061Y-40965000D01*
X21698102Y-41004774D01*
X21509744Y-41082795D01*
X21340226Y-41196063D01*
X21196063Y-41340226D01*
X21082795Y-41509744D01*
X21004774Y-41698102D01*
X20965000Y-41898061D01*
X20965000Y-42101939D01*
X21004774Y-42301898D01*
X21082795Y-42490256D01*
X21196063Y-42659774D01*
X21340226Y-42803937D01*
X21509744Y-42917205D01*
X21698102Y-42995226D01*
X21898061Y-43035000D01*
X22101939Y-43035000D01*
X22146556Y-43026125D01*
X22009744Y-43082795D01*
X21961546Y-43115000D01*
X19043465Y-43115000D01*
X18999999Y-43110719D01*
X18956533Y-43115000D01*
X18956523Y-43115000D01*
X18826510Y-43127805D01*
X18659687Y-43178411D01*
X18505941Y-43260589D01*
X18505939Y-43260590D01*
X18505940Y-43260590D01*
X18404953Y-43343468D01*
X18404951Y-43343470D01*
X18371183Y-43371183D01*
X18343470Y-43404951D01*
X15133422Y-46615000D01*
X12315202Y-46615000D01*
X12463934Y-46553393D01*
X12797237Y-46330687D01*
X13080687Y-46047237D01*
X13303393Y-45713934D01*
X13456796Y-45343587D01*
X13535000Y-44950430D01*
X13535000Y-44549570D01*
X13456796Y-44156413D01*
X13303393Y-43786066D01*
X13080687Y-43452763D01*
X12797237Y-43169313D01*
X12463934Y-42946607D01*
X12093587Y-42793204D01*
X11700430Y-42715000D01*
X11299570Y-42715000D01*
X10906413Y-42793204D01*
X10536066Y-42946607D01*
X10202763Y-43169313D01*
X9919313Y-43452763D01*
X9696607Y-43786066D01*
X9543204Y-44156413D01*
X9465000Y-44549570D01*
X9465000Y-44950430D01*
X9543204Y-45343587D01*
X9696607Y-45713934D01*
X9759221Y-45807642D01*
X8124100Y-44172522D01*
X8156796Y-44093587D01*
X8235000Y-43700430D01*
X8235000Y-43299570D01*
X8156796Y-42906413D01*
X8003393Y-42536066D01*
X7780687Y-42202763D01*
X7497237Y-41919313D01*
X7450692Y-41888212D01*
X8465000Y-41888212D01*
X8465000Y-42111788D01*
X8508617Y-42331067D01*
X8594176Y-42537624D01*
X8718388Y-42723520D01*
X8876480Y-42881612D01*
X9062376Y-43005824D01*
X9268933Y-43091383D01*
X9488212Y-43135000D01*
X9711788Y-43135000D01*
X9931067Y-43091383D01*
X10137624Y-43005824D01*
X10323520Y-42881612D01*
X10481612Y-42723520D01*
X10605824Y-42537624D01*
X10691383Y-42331067D01*
X10735000Y-42111788D01*
X10735000Y-41888212D01*
X10691383Y-41668933D01*
X10605824Y-41462376D01*
X10481612Y-41276480D01*
X10323520Y-41118388D01*
X10137624Y-40994176D01*
X9931067Y-40908617D01*
X9711788Y-40865000D01*
X9488212Y-40865000D01*
X9268933Y-40908617D01*
X9062376Y-40994176D01*
X8876480Y-41118388D01*
X8718388Y-41276480D01*
X8594176Y-41462376D01*
X8508617Y-41668933D01*
X8465000Y-41888212D01*
X7450692Y-41888212D01*
X7163934Y-41696607D01*
X6793587Y-41543204D01*
X6400430Y-41465000D01*
X5999570Y-41465000D01*
X5606413Y-41543204D01*
X5236066Y-41696607D01*
X4902763Y-41919313D01*
X4619313Y-42202763D01*
X4396607Y-42536066D01*
X4243204Y-42906413D01*
X4165000Y-43299570D01*
X660000Y-43299570D01*
X660000Y-41888212D01*
X965000Y-41888212D01*
X965000Y-42111788D01*
X1008617Y-42331067D01*
X1094176Y-42537624D01*
X1218388Y-42723520D01*
X1376480Y-42881612D01*
X1562376Y-43005824D01*
X1768933Y-43091383D01*
X1988212Y-43135000D01*
X2211788Y-43135000D01*
X2431067Y-43091383D01*
X2637624Y-43005824D01*
X2823520Y-42881612D01*
X2981612Y-42723520D01*
X3105824Y-42537624D01*
X3191383Y-42331067D01*
X3235000Y-42111788D01*
X3235000Y-41888212D01*
X3191383Y-41668933D01*
X3105824Y-41462376D01*
X2981612Y-41276480D01*
X2823520Y-41118388D01*
X2637624Y-40994176D01*
X2431067Y-40908617D01*
X2211788Y-40865000D01*
X1988212Y-40865000D01*
X1768933Y-40908617D01*
X1562376Y-40994176D01*
X1376480Y-41118388D01*
X1218388Y-41276480D01*
X1094176Y-41462376D01*
X1008617Y-41668933D01*
X965000Y-41888212D01*
X660000Y-41888212D01*
X660000Y-39049570D01*
X9465000Y-39049570D01*
X9465000Y-39450430D01*
X9543204Y-39843587D01*
X9696607Y-40213934D01*
X9919313Y-40547237D01*
X10202763Y-40830687D01*
X10536066Y-41053393D01*
X10906413Y-41206796D01*
X11299570Y-41285000D01*
X11700430Y-41285000D01*
X12093587Y-41206796D01*
X12463934Y-41053393D01*
X12797237Y-40830687D01*
X13080687Y-40547237D01*
X13303393Y-40213934D01*
X13456796Y-39843587D01*
X13535000Y-39450430D01*
X13535000Y-39049570D01*
X13456796Y-38656413D01*
X13303393Y-38286066D01*
X13080687Y-37952763D01*
X12797237Y-37669313D01*
X12463934Y-37446607D01*
X12093587Y-37293204D01*
X11700430Y-37215000D01*
X11299570Y-37215000D01*
X10906413Y-37293204D01*
X10536066Y-37446607D01*
X10202763Y-37669313D01*
X9919313Y-37952763D01*
X9696607Y-38286066D01*
X9543204Y-38656413D01*
X9465000Y-39049570D01*
X660000Y-39049570D01*
X660000Y-32317609D01*
X719038Y-32317609D01*
X722909Y-32355282D01*
X815079Y-32580533D01*
X949422Y-32783474D01*
X1120775Y-32956307D01*
X1322554Y-33092390D01*
X1547004Y-33186493D01*
X1785500Y-33235000D01*
X2135500Y-33235000D01*
X2135500Y-32127000D01*
X843769Y-32127000D01*
X719038Y-32317609D01*
X660000Y-32317609D01*
X660000Y-31682391D01*
X719038Y-31682391D01*
X843769Y-31873000D01*
X2135500Y-31873000D01*
X2135500Y-30765000D01*
X1785500Y-30765000D01*
X1547004Y-30813507D01*
X1322554Y-30907610D01*
X1120775Y-31043693D01*
X949422Y-31216526D01*
X815079Y-31419467D01*
X722909Y-31644718D01*
X719038Y-31682391D01*
X660000Y-31682391D01*
X660000Y-25317609D01*
X719038Y-25317609D01*
X722909Y-25355282D01*
X815079Y-25580533D01*
X949422Y-25783474D01*
X1120775Y-25956307D01*
X1322554Y-26092390D01*
X1547004Y-26186493D01*
X1785500Y-26235000D01*
X2135500Y-26235000D01*
X2135500Y-25127000D01*
X843769Y-25127000D01*
X719038Y-25317609D01*
X660000Y-25317609D01*
X660000Y-24682391D01*
X719038Y-24682391D01*
X843769Y-24873000D01*
X2135500Y-24873000D01*
X2135500Y-23765000D01*
X2389500Y-23765000D01*
X2389500Y-24873000D01*
X2409500Y-24873000D01*
X2409500Y-25127000D01*
X2389500Y-25127000D01*
X2389500Y-26235000D01*
X2739500Y-26235000D01*
X2977996Y-26186493D01*
X3152500Y-26113330D01*
X3152499Y-30886669D01*
X2977996Y-30813507D01*
X2739500Y-30765000D01*
X2389500Y-30765000D01*
X2389500Y-31873000D01*
X2409500Y-31873000D01*
X2409500Y-32127000D01*
X2389500Y-32127000D01*
X2389500Y-33235000D01*
X2739500Y-33235000D01*
X2977996Y-33186493D01*
X3202446Y-33092390D01*
X3404225Y-32956307D01*
X3575578Y-32783474D01*
X3628591Y-32703392D01*
X4965000Y-34039802D01*
X4965000Y-34101939D01*
X5004774Y-34301898D01*
X5082795Y-34490256D01*
X5196063Y-34659774D01*
X5340226Y-34803937D01*
X5509744Y-34917205D01*
X5698102Y-34995226D01*
X5898061Y-35035000D01*
X6101939Y-35035000D01*
X6301898Y-34995226D01*
X6490256Y-34917205D01*
X6659774Y-34803937D01*
X6803937Y-34659774D01*
X6917205Y-34490256D01*
X6995226Y-34301898D01*
X7035000Y-34101939D01*
X7035000Y-33898061D01*
X6995226Y-33698102D01*
X6917205Y-33509744D01*
X6803937Y-33340226D01*
X6659774Y-33196063D01*
X6490256Y-33082795D01*
X6301898Y-33004774D01*
X6101939Y-32965000D01*
X6039802Y-32965000D01*
X5372727Y-32297926D01*
X5552600Y-32232609D01*
X5659535Y-32175450D01*
X5722028Y-31939133D01*
X4962500Y-31179605D01*
X4948358Y-31193748D01*
X4768753Y-31014143D01*
X4782895Y-31000000D01*
X5142105Y-31000000D01*
X5901633Y-31759528D01*
X6137950Y-31697035D01*
X6251350Y-31454322D01*
X6315219Y-31194151D01*
X6327104Y-30926518D01*
X6286548Y-30661709D01*
X6195109Y-30409900D01*
X6137950Y-30302965D01*
X5901633Y-30240472D01*
X5142105Y-31000000D01*
X4782895Y-31000000D01*
X4768753Y-30985858D01*
X4948358Y-30806253D01*
X4962500Y-30820395D01*
X5722028Y-30060867D01*
X5659535Y-29824550D01*
X5416822Y-29711150D01*
X5156651Y-29647281D01*
X4889018Y-29635396D01*
X4672499Y-29668556D01*
X4672499Y-27329189D01*
X4768349Y-27352719D01*
X5035982Y-27364604D01*
X5300791Y-27324048D01*
X5552600Y-27232609D01*
X5659535Y-27175450D01*
X5722028Y-26939133D01*
X4962500Y-26179605D01*
X4948358Y-26193748D01*
X4768753Y-26014143D01*
X4782895Y-26000000D01*
X4768753Y-25985858D01*
X4948358Y-25806253D01*
X4962500Y-25820395D01*
X4976643Y-25806253D01*
X5156248Y-25985858D01*
X5142105Y-26000000D01*
X5901633Y-26759528D01*
X6137950Y-26697035D01*
X6251350Y-26454322D01*
X6315219Y-26194151D01*
X6327104Y-25926518D01*
X6286548Y-25661709D01*
X6195109Y-25409900D01*
X6137950Y-25302965D01*
X5975478Y-25260000D01*
X6296289Y-25260000D01*
X6340226Y-25303937D01*
X6509744Y-25417205D01*
X6698102Y-25495226D01*
X6898061Y-25535000D01*
X7101939Y-25535000D01*
X7301898Y-25495226D01*
X7490256Y-25417205D01*
X7659774Y-25303937D01*
X7803937Y-25159774D01*
X7917205Y-24990256D01*
X7995226Y-24801898D01*
X8035000Y-24601939D01*
X8035000Y-24398061D01*
X7995226Y-24198102D01*
X7917205Y-24009744D01*
X7803937Y-23840226D01*
X7659774Y-23696063D01*
X7490256Y-23582795D01*
X7301898Y-23504774D01*
X7101939Y-23465000D01*
X6898061Y-23465000D01*
X6698102Y-23504774D01*
X6509744Y-23582795D01*
X6340226Y-23696063D01*
X6296289Y-23740000D01*
X4537323Y-23740000D01*
X4500000Y-23736324D01*
X4462677Y-23740000D01*
X4462667Y-23740000D01*
X4351014Y-23750997D01*
X4215032Y-23792246D01*
X4207753Y-23794454D01*
X4075723Y-23865026D01*
X3992083Y-23933668D01*
X3959999Y-23959999D01*
X3936200Y-23988998D01*
X3628591Y-24296608D01*
X3575578Y-24216526D01*
X3404225Y-24043693D01*
X3202446Y-23907610D01*
X2977996Y-23813507D01*
X2739500Y-23765000D01*
X2389500Y-23765000D01*
X2135500Y-23765000D01*
X1785500Y-23765000D01*
X1547004Y-23813507D01*
X1322554Y-23907610D01*
X1120775Y-24043693D01*
X949422Y-24216526D01*
X815079Y-24419467D01*
X722909Y-24644718D01*
X719038Y-24682391D01*
X660000Y-24682391D01*
X660000Y-17200000D01*
X3961928Y-17200000D01*
X3974188Y-17324482D01*
X4010498Y-17444180D01*
X4069463Y-17554494D01*
X4148815Y-17651185D01*
X4245506Y-17730537D01*
X4355820Y-17789502D01*
X4475518Y-17825812D01*
X4600000Y-17838072D01*
X5414250Y-17835000D01*
X5573000Y-17676250D01*
X5573000Y-15127000D01*
X5827000Y-15127000D01*
X5827000Y-17676250D01*
X5985750Y-17835000D01*
X6800000Y-17838072D01*
X6924482Y-17825812D01*
X7044180Y-17789502D01*
X7154494Y-17730537D01*
X7251185Y-17651185D01*
X7330537Y-17554494D01*
X7389502Y-17444180D01*
X7425812Y-17324482D01*
X7438072Y-17200000D01*
X7435000Y-15285750D01*
X7276250Y-15127000D01*
X5827000Y-15127000D01*
X5573000Y-15127000D01*
X4123750Y-15127000D01*
X3965000Y-15285750D01*
X3961928Y-17200000D01*
X660000Y-17200000D01*
X660000Y-12800000D01*
X3961928Y-12800000D01*
X3965000Y-14714250D01*
X4123750Y-14873000D01*
X5573000Y-14873000D01*
X5573000Y-12323750D01*
X5827000Y-12323750D01*
X5827000Y-14873000D01*
X7276250Y-14873000D01*
X7435000Y-14714250D01*
X7438072Y-12800000D01*
X9961928Y-12800000D01*
X9961928Y-17200000D01*
X9974188Y-17324482D01*
X10010498Y-17444180D01*
X10069463Y-17554494D01*
X10148815Y-17651185D01*
X10245506Y-17730537D01*
X10355820Y-17789502D01*
X10475518Y-17825812D01*
X10600000Y-17838072D01*
X12800000Y-17838072D01*
X12924482Y-17825812D01*
X13044180Y-17789502D01*
X13154494Y-17730537D01*
X13251185Y-17651185D01*
X13330537Y-17554494D01*
X13389502Y-17444180D01*
X13425812Y-17324482D01*
X13438072Y-17200000D01*
X13438072Y-17148061D01*
X20465000Y-17148061D01*
X20465000Y-17351939D01*
X20504774Y-17551898D01*
X20582795Y-17740256D01*
X20696063Y-17909774D01*
X20840226Y-18053937D01*
X21009744Y-18167205D01*
X21198102Y-18245226D01*
X21398061Y-18285000D01*
X21601939Y-18285000D01*
X21801898Y-18245226D01*
X21990256Y-18167205D01*
X22159774Y-18053937D01*
X22203711Y-18010000D01*
X43185199Y-18010000D01*
X43740000Y-18564802D01*
X43740000Y-18796289D01*
X43696063Y-18840226D01*
X43582795Y-19009744D01*
X43504774Y-19198102D01*
X43465000Y-19398061D01*
X43465000Y-19601939D01*
X43504774Y-19801898D01*
X43582795Y-19990256D01*
X43696063Y-20159774D01*
X43840226Y-20303937D01*
X44009744Y-20417205D01*
X44198102Y-20495226D01*
X44398061Y-20535000D01*
X44601939Y-20535000D01*
X44801898Y-20495226D01*
X44990256Y-20417205D01*
X45159774Y-20303937D01*
X45303937Y-20159774D01*
X45417205Y-19990256D01*
X45495226Y-19801898D01*
X45535000Y-19601939D01*
X45535000Y-19398061D01*
X45495226Y-19198102D01*
X45417205Y-19009744D01*
X45303937Y-18840226D01*
X45260000Y-18796289D01*
X45260000Y-18287333D01*
X45263677Y-18250000D01*
X45249003Y-18101014D01*
X45205546Y-17957753D01*
X45134974Y-17825724D01*
X45063799Y-17738997D01*
X45040001Y-17709999D01*
X45011004Y-17686202D01*
X44063804Y-16739002D01*
X44040001Y-16709999D01*
X43924276Y-16615026D01*
X43792247Y-16544454D01*
X43648986Y-16500997D01*
X43537333Y-16490000D01*
X43537322Y-16490000D01*
X43500000Y-16486324D01*
X43462678Y-16490000D01*
X22203711Y-16490000D01*
X22159774Y-16446063D01*
X21990256Y-16332795D01*
X21801898Y-16254774D01*
X21601939Y-16215000D01*
X21398061Y-16215000D01*
X21198102Y-16254774D01*
X21009744Y-16332795D01*
X20840226Y-16446063D01*
X20696063Y-16590226D01*
X20582795Y-16759744D01*
X20504774Y-16948102D01*
X20465000Y-17148061D01*
X13438072Y-17148061D01*
X13438072Y-16135000D01*
X28344249Y-16135000D01*
X28400000Y-16140491D01*
X28455751Y-16135000D01*
X28455752Y-16135000D01*
X28622499Y-16118577D01*
X28836447Y-16053676D01*
X29033623Y-15948284D01*
X29206449Y-15806449D01*
X29241996Y-15763135D01*
X30685938Y-14319193D01*
X66970000Y-14319193D01*
X66970000Y-14670807D01*
X67038596Y-15015665D01*
X67173153Y-15340515D01*
X67368500Y-15632871D01*
X67617129Y-15881500D01*
X67909485Y-16076847D01*
X68234335Y-16211404D01*
X68579193Y-16280000D01*
X68930807Y-16280000D01*
X69275665Y-16211404D01*
X69600515Y-16076847D01*
X69728845Y-15991099D01*
X69746603Y-16115907D01*
X69846778Y-16401199D01*
X69926739Y-16550792D01*
X70180920Y-16634475D01*
X71065395Y-15750000D01*
X71424605Y-15750000D01*
X72309080Y-16634475D01*
X72563261Y-16550792D01*
X72694158Y-16278225D01*
X72769365Y-15985358D01*
X72785991Y-15683447D01*
X72743397Y-15384093D01*
X72643222Y-15098801D01*
X72563261Y-14949208D01*
X72309080Y-14865525D01*
X71424605Y-15750000D01*
X71065395Y-15750000D01*
X71051253Y-15735858D01*
X71230858Y-15556253D01*
X71245000Y-15570395D01*
X72129475Y-14685920D01*
X72045792Y-14431739D01*
X71773225Y-14300842D01*
X71480358Y-14225635D01*
X71178447Y-14209009D01*
X70879093Y-14251603D01*
X70593801Y-14351778D01*
X70540000Y-14380536D01*
X70540000Y-14319193D01*
X70471404Y-13974335D01*
X70336847Y-13649485D01*
X70141500Y-13357129D01*
X69892871Y-13108500D01*
X69600515Y-12913153D01*
X69275665Y-12778596D01*
X68930807Y-12710000D01*
X68579193Y-12710000D01*
X68234335Y-12778596D01*
X67909485Y-12913153D01*
X67617129Y-13108500D01*
X67368500Y-13357129D01*
X67173153Y-13649485D01*
X67038596Y-13974335D01*
X66970000Y-14319193D01*
X30685938Y-14319193D01*
X33263146Y-11741987D01*
X33306449Y-11706449D01*
X33448284Y-11533623D01*
X33553676Y-11336447D01*
X33618577Y-11122499D01*
X33635000Y-10955752D01*
X33635000Y-10955751D01*
X33640491Y-10900000D01*
X33635000Y-10844248D01*
X33635000Y-6068822D01*
X33733491Y-6003013D01*
X34003013Y-5733491D01*
X34214775Y-5416566D01*
X34360639Y-5064419D01*
X34435000Y-4690581D01*
X34435000Y-4309419D01*
X34360639Y-3935581D01*
X34283904Y-3750324D01*
X67465000Y-3750324D01*
X67465000Y-4249676D01*
X67562418Y-4739432D01*
X67753512Y-5200773D01*
X68030937Y-5615968D01*
X68384032Y-5969063D01*
X68799227Y-6246488D01*
X69260568Y-6437582D01*
X69750324Y-6535000D01*
X70249676Y-6535000D01*
X70739432Y-6437582D01*
X71200773Y-6246488D01*
X71615968Y-5969063D01*
X71969063Y-5615968D01*
X72246488Y-5200773D01*
X72437582Y-4739432D01*
X72535000Y-4249676D01*
X72535000Y-3750324D01*
X72437582Y-3260568D01*
X72246488Y-2799227D01*
X71969063Y-2384032D01*
X71615968Y-2030937D01*
X71200773Y-1753512D01*
X70739432Y-1562418D01*
X70249676Y-1465000D01*
X69750324Y-1465000D01*
X69260568Y-1562418D01*
X68799227Y-1753512D01*
X68384032Y-2030937D01*
X68030937Y-2384032D01*
X67753512Y-2799227D01*
X67562418Y-3260568D01*
X67465000Y-3750324D01*
X34283904Y-3750324D01*
X34214775Y-3583434D01*
X34003013Y-3266509D01*
X33733491Y-2996987D01*
X33416566Y-2785225D01*
X33064419Y-2639361D01*
X32690581Y-2565000D01*
X32309419Y-2565000D01*
X31935581Y-2639361D01*
X31583434Y-2785225D01*
X31266509Y-2996987D01*
X30996987Y-3266509D01*
X30785225Y-3583434D01*
X30639361Y-3935581D01*
X30565000Y-4309419D01*
X30565000Y-4690581D01*
X30639361Y-5064419D01*
X30785225Y-5416566D01*
X30996987Y-5733491D01*
X31266509Y-6003013D01*
X31365001Y-6068823D01*
X31365000Y-10429867D01*
X27929869Y-13865000D01*
X13438072Y-13865000D01*
X13438072Y-12800000D01*
X13425812Y-12675518D01*
X13389502Y-12555820D01*
X13330537Y-12445506D01*
X13251185Y-12348815D01*
X13154494Y-12269463D01*
X13044180Y-12210498D01*
X12924482Y-12174188D01*
X12800000Y-12161928D01*
X10600000Y-12161928D01*
X10475518Y-12174188D01*
X10355820Y-12210498D01*
X10245506Y-12269463D01*
X10148815Y-12348815D01*
X10069463Y-12445506D01*
X10010498Y-12555820D01*
X9974188Y-12675518D01*
X9961928Y-12800000D01*
X7438072Y-12800000D01*
X7425812Y-12675518D01*
X7389502Y-12555820D01*
X7330537Y-12445506D01*
X7251185Y-12348815D01*
X7154494Y-12269463D01*
X7044180Y-12210498D01*
X6924482Y-12174188D01*
X6800000Y-12161928D01*
X5985750Y-12165000D01*
X5827000Y-12323750D01*
X5573000Y-12323750D01*
X5414250Y-12165000D01*
X4600000Y-12161928D01*
X4475518Y-12174188D01*
X4355820Y-12210498D01*
X4245506Y-12269463D01*
X4148815Y-12348815D01*
X4069463Y-12445506D01*
X4010498Y-12555820D01*
X3974188Y-12675518D01*
X3961928Y-12800000D01*
X660000Y-12800000D01*
X660000Y-3750324D01*
X1465000Y-3750324D01*
X1465000Y-4249676D01*
X1562418Y-4739432D01*
X1753512Y-5200773D01*
X2030937Y-5615968D01*
X2384032Y-5969063D01*
X2799227Y-6246488D01*
X3260568Y-6437582D01*
X3750324Y-6535000D01*
X4249676Y-6535000D01*
X4739432Y-6437582D01*
X5200773Y-6246488D01*
X5615968Y-5969063D01*
X5969063Y-5615968D01*
X6246488Y-5200773D01*
X6437582Y-4739432D01*
X6535000Y-4249676D01*
X6535000Y-3750324D01*
X6437582Y-3260568D01*
X6246488Y-2799227D01*
X5969063Y-2384032D01*
X5615968Y-2030937D01*
X5569668Y-2000000D01*
X16865000Y-2000000D01*
X16865000Y-8500000D01*
X16877201Y-8623882D01*
X16913336Y-8743004D01*
X16972017Y-8852787D01*
X17050987Y-8949013D01*
X17147213Y-9027983D01*
X17256996Y-9086664D01*
X17376118Y-9122799D01*
X17500000Y-9135000D01*
X23500000Y-9135000D01*
X23623882Y-9122799D01*
X23743004Y-9086664D01*
X23852787Y-9027983D01*
X23949013Y-8949013D01*
X24027983Y-8852787D01*
X24086664Y-8743004D01*
X24122799Y-8623882D01*
X24135000Y-8500000D01*
X24135000Y-3200000D01*
X25561928Y-3200000D01*
X25561928Y-5800000D01*
X25574188Y-5924482D01*
X25610498Y-6044180D01*
X25669463Y-6154494D01*
X25748815Y-6251185D01*
X25845506Y-6330537D01*
X25955820Y-6389502D01*
X26075518Y-6425812D01*
X26200000Y-6438072D01*
X28800000Y-6438072D01*
X28924482Y-6425812D01*
X29044180Y-6389502D01*
X29154494Y-6330537D01*
X29251185Y-6251185D01*
X29330537Y-6154494D01*
X29389502Y-6044180D01*
X29425812Y-5924482D01*
X29438072Y-5800000D01*
X29438072Y-3200000D01*
X29425812Y-3075518D01*
X29389502Y-2955820D01*
X29330537Y-2845506D01*
X29251185Y-2748815D01*
X29154494Y-2669463D01*
X29044180Y-2610498D01*
X28924482Y-2574188D01*
X28800000Y-2561928D01*
X26200000Y-2561928D01*
X26075518Y-2574188D01*
X25955820Y-2610498D01*
X25845506Y-2669463D01*
X25748815Y-2748815D01*
X25669463Y-2845506D01*
X25610498Y-2955820D01*
X25574188Y-3075518D01*
X25561928Y-3200000D01*
X24135000Y-3200000D01*
X24135000Y-2000000D01*
X24122799Y-1876118D01*
X24086664Y-1756996D01*
X24027983Y-1647213D01*
X23949013Y-1550987D01*
X23852787Y-1472017D01*
X23743004Y-1413336D01*
X23623882Y-1377201D01*
X23500000Y-1365000D01*
X17500000Y-1365000D01*
X17376118Y-1377201D01*
X17256996Y-1413336D01*
X17147213Y-1472017D01*
X17050987Y-1550987D01*
X16972017Y-1647213D01*
X16913336Y-1756996D01*
X16877201Y-1876118D01*
X16865000Y-2000000D01*
X5569668Y-2000000D01*
X5200773Y-1753512D01*
X4739432Y-1562418D01*
X4249676Y-1465000D01*
X3750324Y-1465000D01*
X3260568Y-1562418D01*
X2799227Y-1753512D01*
X2384032Y-2030937D01*
X2030937Y-2384032D01*
X1753512Y-2799227D01*
X1562418Y-3260568D01*
X1465000Y-3750324D01*
X660000Y-3750324D01*
X660000Y-3273380D01*
X3273381Y-660000D01*
X70726620Y-660000D01*
X73340001Y-3273382D01*
G36*
X64740001Y-36881682D02*
G01*
X64728482Y-36878188D01*
X64604000Y-36865928D01*
X64039750Y-36869000D01*
X63881000Y-37027750D01*
X63881000Y-38227000D01*
X63901000Y-38227000D01*
X63901000Y-38481000D01*
X63881000Y-38481000D01*
X63881000Y-38501000D01*
X63627000Y-38501000D01*
X63627000Y-38481000D01*
X61341000Y-38481000D01*
X61341000Y-38501000D01*
X61087000Y-38501000D01*
X61087000Y-38481000D01*
X58801000Y-38481000D01*
X58801000Y-38501000D01*
X58547000Y-38501000D01*
X58547000Y-38481000D01*
X58527000Y-38481000D01*
X58527000Y-38227000D01*
X58547000Y-38227000D01*
X58547000Y-38207000D01*
X58801000Y-38207000D01*
X58801000Y-38227000D01*
X61087000Y-38227000D01*
X61087000Y-37033845D01*
X61341000Y-37033845D01*
X61341000Y-38227000D01*
X63627000Y-38227000D01*
X63627000Y-37027750D01*
X63468250Y-36869000D01*
X62904000Y-36865928D01*
X62779518Y-36878188D01*
X62659820Y-36914498D01*
X62549506Y-36973463D01*
X62452815Y-37052815D01*
X62373463Y-37149506D01*
X62314498Y-37259820D01*
X62290034Y-37340466D01*
X62214269Y-37256412D01*
X61980920Y-37082359D01*
X61718099Y-36957175D01*
X61570890Y-36912524D01*
X61341000Y-37033845D01*
X61087000Y-37033845D01*
X60932847Y-36952493D01*
X60995226Y-36801898D01*
X61035000Y-36601939D01*
X61035000Y-36398061D01*
X60995226Y-36198102D01*
X60917205Y-36009744D01*
X60803937Y-35840226D01*
X60659774Y-35696063D01*
X60490256Y-35582795D01*
X60301898Y-35504774D01*
X60101939Y-35465000D01*
X59898061Y-35465000D01*
X59698102Y-35504774D01*
X59509744Y-35582795D01*
X59340226Y-35696063D01*
X59296289Y-35740000D01*
X41203711Y-35740000D01*
X41159774Y-35696063D01*
X40990256Y-35582795D01*
X40801898Y-35504774D01*
X40601939Y-35465000D01*
X40398061Y-35465000D01*
X40198102Y-35504774D01*
X40009744Y-35582795D01*
X39840226Y-35696063D01*
X39696063Y-35840226D01*
X39582795Y-36009744D01*
X39504774Y-36198102D01*
X39465000Y-36398061D01*
X39465000Y-36601939D01*
X39504774Y-36801898D01*
X39582795Y-36990256D01*
X39696063Y-37159774D01*
X39840226Y-37303937D01*
X40009744Y-37417205D01*
X40198102Y-37495226D01*
X40398061Y-37535000D01*
X40601939Y-37535000D01*
X40801898Y-37495226D01*
X40990256Y-37417205D01*
X41159774Y-37303937D01*
X41203711Y-37260000D01*
X55127893Y-37260000D01*
X54980525Y-37407368D01*
X54855822Y-37594000D01*
X34183325Y-37594000D01*
X34146000Y-37590324D01*
X34108675Y-37594000D01*
X34108667Y-37594000D01*
X33997014Y-37604997D01*
X33853753Y-37648454D01*
X33721724Y-37719026D01*
X33605999Y-37813999D01*
X33582201Y-37842997D01*
X32685199Y-38740000D01*
X32492957Y-38740000D01*
X32494059Y-38739411D01*
X32628817Y-38628817D01*
X32656534Y-38595044D01*
X36245044Y-35006535D01*
X36301898Y-34995226D01*
X36490256Y-34917205D01*
X36538454Y-34885000D01*
X42539196Y-34885000D01*
X42582795Y-34990256D01*
X42696063Y-35159774D01*
X42840226Y-35303937D01*
X43009744Y-35417205D01*
X43198102Y-35495226D01*
X43398061Y-35535000D01*
X43601939Y-35535000D01*
X43801898Y-35495226D01*
X43990256Y-35417205D01*
X44159774Y-35303937D01*
X44203711Y-35260000D01*
X63062678Y-35260000D01*
X63100000Y-35263676D01*
X63137322Y-35260000D01*
X63137333Y-35260000D01*
X63248986Y-35249003D01*
X63392247Y-35205546D01*
X63524276Y-35134974D01*
X63640001Y-35040001D01*
X63663804Y-35010997D01*
X64539802Y-34135000D01*
X64601939Y-34135000D01*
X64740000Y-34107538D01*
X64740001Y-36881682D01*
G37*
X64740001Y-36881682D02*
X64728482Y-36878188D01*
X64604000Y-36865928D01*
X64039750Y-36869000D01*
X63881000Y-37027750D01*
X63881000Y-38227000D01*
X63901000Y-38227000D01*
X63901000Y-38481000D01*
X63881000Y-38481000D01*
X63881000Y-38501000D01*
X63627000Y-38501000D01*
X63627000Y-38481000D01*
X61341000Y-38481000D01*
X61341000Y-38501000D01*
X61087000Y-38501000D01*
X61087000Y-38481000D01*
X58801000Y-38481000D01*
X58801000Y-38501000D01*
X58547000Y-38501000D01*
X58547000Y-38481000D01*
X58527000Y-38481000D01*
X58527000Y-38227000D01*
X58547000Y-38227000D01*
X58547000Y-38207000D01*
X58801000Y-38207000D01*
X58801000Y-38227000D01*
X61087000Y-38227000D01*
X61087000Y-37033845D01*
X61341000Y-37033845D01*
X61341000Y-38227000D01*
X63627000Y-38227000D01*
X63627000Y-37027750D01*
X63468250Y-36869000D01*
X62904000Y-36865928D01*
X62779518Y-36878188D01*
X62659820Y-36914498D01*
X62549506Y-36973463D01*
X62452815Y-37052815D01*
X62373463Y-37149506D01*
X62314498Y-37259820D01*
X62290034Y-37340466D01*
X62214269Y-37256412D01*
X61980920Y-37082359D01*
X61718099Y-36957175D01*
X61570890Y-36912524D01*
X61341000Y-37033845D01*
X61087000Y-37033845D01*
X60932847Y-36952493D01*
X60995226Y-36801898D01*
X61035000Y-36601939D01*
X61035000Y-36398061D01*
X60995226Y-36198102D01*
X60917205Y-36009744D01*
X60803937Y-35840226D01*
X60659774Y-35696063D01*
X60490256Y-35582795D01*
X60301898Y-35504774D01*
X60101939Y-35465000D01*
X59898061Y-35465000D01*
X59698102Y-35504774D01*
X59509744Y-35582795D01*
X59340226Y-35696063D01*
X59296289Y-35740000D01*
X41203711Y-35740000D01*
X41159774Y-35696063D01*
X40990256Y-35582795D01*
X40801898Y-35504774D01*
X40601939Y-35465000D01*
X40398061Y-35465000D01*
X40198102Y-35504774D01*
X40009744Y-35582795D01*
X39840226Y-35696063D01*
X39696063Y-35840226D01*
X39582795Y-36009744D01*
X39504774Y-36198102D01*
X39465000Y-36398061D01*
X39465000Y-36601939D01*
X39504774Y-36801898D01*
X39582795Y-36990256D01*
X39696063Y-37159774D01*
X39840226Y-37303937D01*
X40009744Y-37417205D01*
X40198102Y-37495226D01*
X40398061Y-37535000D01*
X40601939Y-37535000D01*
X40801898Y-37495226D01*
X40990256Y-37417205D01*
X41159774Y-37303937D01*
X41203711Y-37260000D01*
X55127893Y-37260000D01*
X54980525Y-37407368D01*
X54855822Y-37594000D01*
X34183325Y-37594000D01*
X34146000Y-37590324D01*
X34108675Y-37594000D01*
X34108667Y-37594000D01*
X33997014Y-37604997D01*
X33853753Y-37648454D01*
X33721724Y-37719026D01*
X33605999Y-37813999D01*
X33582201Y-37842997D01*
X32685199Y-38740000D01*
X32492957Y-38740000D01*
X32494059Y-38739411D01*
X32628817Y-38628817D01*
X32656534Y-38595044D01*
X36245044Y-35006535D01*
X36301898Y-34995226D01*
X36490256Y-34917205D01*
X36538454Y-34885000D01*
X42539196Y-34885000D01*
X42582795Y-34990256D01*
X42696063Y-35159774D01*
X42840226Y-35303937D01*
X43009744Y-35417205D01*
X43198102Y-35495226D01*
X43398061Y-35535000D01*
X43601939Y-35535000D01*
X43801898Y-35495226D01*
X43990256Y-35417205D01*
X44159774Y-35303937D01*
X44203711Y-35260000D01*
X63062678Y-35260000D01*
X63100000Y-35263676D01*
X63137322Y-35260000D01*
X63137333Y-35260000D01*
X63248986Y-35249003D01*
X63392247Y-35205546D01*
X63524276Y-35134974D01*
X63640001Y-35040001D01*
X63663804Y-35010997D01*
X64539802Y-34135000D01*
X64601939Y-34135000D01*
X64740000Y-34107538D01*
X64740001Y-36881682D01*
%TO.N,Solenoid_1_CTLO*%
G36*
X23373000Y-8373000D02*
G01*
X17627000Y-8373000D01*
X17627000Y-2127000D01*
X23373000Y-2127000D01*
X23373000Y-8373000D01*
G37*
X23373000Y-8373000D02*
X17627000Y-8373000D01*
X17627000Y-2127000D01*
X23373000Y-2127000D01*
X23373000Y-8373000D01*
%TD*%
M02*
