%TF.GenerationSoftware,KiCad,Pcbnew,(5.1.6)-1*%
%TF.CreationDate,2020-09-20T23:40:56+02:00*%
%TF.ProjectId,ESP32MiniDrop,45535033-324d-4696-9e69-44726f702e6b,rev?*%
%TF.SameCoordinates,Original*%
%TF.FileFunction,Soldermask,Top*%
%TF.FilePolarity,Negative*%
%FSLAX46Y46*%
G04 Gerber Fmt 4.6, Leading zero omitted, Abs format (unit mm)*
G04 Created by KiCad (PCBNEW (5.1.6)-1) date 2020-09-20 23:40:56*
%MOMM*%
%LPD*%
G01*
G04 APERTURE LIST*
%ADD10C,0.250000*%
%ADD11R,1.900000X4.500000*%
%ADD12O,1.900000X4.100000*%
%ADD13O,4.100000X1.900000*%
%ADD14R,2.100000X1.880000*%
%ADD15R,2.100000X1.000000*%
%ADD16R,1.000000X2.100000*%
%ADD17R,5.100000X5.100000*%
%ADD18C,5.800000*%
%ADD19C,2.400000*%
%ADD20C,1.900000*%
%ADD21R,2.700000X2.700000*%
%ADD22C,2.700000*%
%ADD23C,2.900000*%
%ADD24C,1.100000*%
%ADD25O,1.800000X1.800000*%
%ADD26R,1.800000X1.800000*%
%ADD27R,1.200000X1.200000*%
%ADD28R,3.600000X2.400000*%
%ADD29R,2.100000X1.600000*%
%ADD30R,2.100000X3.900000*%
%ADD31R,5.900000X6.500000*%
%ADD32R,1.300000X2.300000*%
G04 APERTURE END LIST*
D10*
X54261904Y-49708333D02*
X54857142Y-49708333D01*
X54142857Y-50065476D02*
X54559523Y-48815476D01*
X54976190Y-50065476D01*
X55630952Y-48815476D02*
X55750000Y-48815476D01*
X55869047Y-48875000D01*
X55928571Y-48934523D01*
X55988095Y-49053571D01*
X56047619Y-49291666D01*
X56047619Y-49589285D01*
X55988095Y-49827380D01*
X55928571Y-49946428D01*
X55869047Y-50005952D01*
X55750000Y-50065476D01*
X55630952Y-50065476D01*
X55511904Y-50005952D01*
X55452380Y-49946428D01*
X55392857Y-49827380D01*
X55333333Y-49589285D01*
X55333333Y-49291666D01*
X55392857Y-49053571D01*
X55452380Y-48934523D01*
X55511904Y-48875000D01*
X55630952Y-48815476D01*
X56523809Y-48934523D02*
X56583333Y-48875000D01*
X56702380Y-48815476D01*
X57000000Y-48815476D01*
X57119047Y-48875000D01*
X57178571Y-48934523D01*
X57238095Y-49053571D01*
X57238095Y-49172619D01*
X57178571Y-49351190D01*
X56464285Y-50065476D01*
X57238095Y-50065476D01*
D11*
%TO.C,J5*%
X11700000Y-15000000D03*
D12*
X5900000Y-15000000D03*
D13*
X8700000Y-19800000D03*
%TD*%
D14*
%TO.C,U2*%
X17735000Y-41310000D03*
X27265000Y-33690000D03*
X17735000Y-38770000D03*
X27265000Y-36230000D03*
X17735000Y-36230000D03*
X27265000Y-38770000D03*
X17735000Y-33690000D03*
X27265000Y-41310000D03*
%TD*%
%TO.C,R3*%
G36*
G01*
X39342544Y-38725000D02*
X40657456Y-38725000D01*
G75*
G02*
X40925000Y-38992544I0J-267544D01*
G01*
X40925000Y-39982456D01*
G75*
G02*
X40657456Y-40250000I-267544J0D01*
G01*
X39342544Y-40250000D01*
G75*
G02*
X39075000Y-39982456I0J267544D01*
G01*
X39075000Y-38992544D01*
G75*
G02*
X39342544Y-38725000I267544J0D01*
G01*
G37*
G36*
G01*
X39342544Y-35750000D02*
X40657456Y-35750000D01*
G75*
G02*
X40925000Y-36017544I0J-267544D01*
G01*
X40925000Y-37007456D01*
G75*
G02*
X40657456Y-37275000I-267544J0D01*
G01*
X39342544Y-37275000D01*
G75*
G02*
X39075000Y-37007456I0J267544D01*
G01*
X39075000Y-36017544D01*
G75*
G02*
X39342544Y-35750000I267544J0D01*
G01*
G37*
%TD*%
D15*
%TO.C,U1*%
X58500000Y-13245000D03*
X58500000Y-14515000D03*
X58500000Y-15785000D03*
X58500000Y-17055000D03*
X58500000Y-18325000D03*
X58500000Y-19595000D03*
X58500000Y-20865000D03*
X58500000Y-22135000D03*
X58500000Y-23405000D03*
X58500000Y-24675000D03*
X58500000Y-25945000D03*
X58500000Y-27215000D03*
X58500000Y-28485000D03*
X58500000Y-29755000D03*
D16*
X55715000Y-30755000D03*
X54445000Y-30755000D03*
X53175000Y-30755000D03*
X51905000Y-30755000D03*
X50635000Y-30755000D03*
X49365000Y-30755000D03*
X48095000Y-30755000D03*
X46825000Y-30755000D03*
X45555000Y-30755000D03*
X44285000Y-30755000D03*
D15*
X41500000Y-29755000D03*
X41500000Y-28485000D03*
X41500000Y-27215000D03*
X41500000Y-25945000D03*
X41500000Y-24675000D03*
X41500000Y-23405000D03*
X41500000Y-22135000D03*
X41500000Y-20865000D03*
X41500000Y-19595000D03*
X41500000Y-18325000D03*
X41500000Y-17055000D03*
X41500000Y-15785000D03*
X41500000Y-14515000D03*
X41500000Y-13245000D03*
D17*
X49000000Y-20745000D03*
%TD*%
%TO.C,R5*%
G36*
G01*
X37657456Y-20775000D02*
X36342544Y-20775000D01*
G75*
G02*
X36075000Y-20507456I0J267544D01*
G01*
X36075000Y-19517544D01*
G75*
G02*
X36342544Y-19250000I267544J0D01*
G01*
X37657456Y-19250000D01*
G75*
G02*
X37925000Y-19517544I0J-267544D01*
G01*
X37925000Y-20507456D01*
G75*
G02*
X37657456Y-20775000I-267544J0D01*
G01*
G37*
G36*
G01*
X37657456Y-23750000D02*
X36342544Y-23750000D01*
G75*
G02*
X36075000Y-23482456I0J267544D01*
G01*
X36075000Y-22492544D01*
G75*
G02*
X36342544Y-22225000I267544J0D01*
G01*
X37657456Y-22225000D01*
G75*
G02*
X37925000Y-22492544I0J-267544D01*
G01*
X37925000Y-23482456D01*
G75*
G02*
X37657456Y-23750000I-267544J0D01*
G01*
G37*
%TD*%
%TO.C,R6*%
G36*
G01*
X43657456Y-37275000D02*
X42342544Y-37275000D01*
G75*
G02*
X42075000Y-37007456I0J267544D01*
G01*
X42075000Y-36017544D01*
G75*
G02*
X42342544Y-35750000I267544J0D01*
G01*
X43657456Y-35750000D01*
G75*
G02*
X43925000Y-36017544I0J-267544D01*
G01*
X43925000Y-37007456D01*
G75*
G02*
X43657456Y-37275000I-267544J0D01*
G01*
G37*
G36*
G01*
X43657456Y-40250000D02*
X42342544Y-40250000D01*
G75*
G02*
X42075000Y-39982456I0J267544D01*
G01*
X42075000Y-38992544D01*
G75*
G02*
X42342544Y-38725000I267544J0D01*
G01*
X43657456Y-38725000D01*
G75*
G02*
X43925000Y-38992544I0J-267544D01*
G01*
X43925000Y-39982456D01*
G75*
G02*
X43657456Y-40250000I-267544J0D01*
G01*
G37*
%TD*%
%TO.C,R4*%
G36*
G01*
X37657456Y-37275000D02*
X36342544Y-37275000D01*
G75*
G02*
X36075000Y-37007456I0J267544D01*
G01*
X36075000Y-36017544D01*
G75*
G02*
X36342544Y-35750000I267544J0D01*
G01*
X37657456Y-35750000D01*
G75*
G02*
X37925000Y-36017544I0J-267544D01*
G01*
X37925000Y-37007456D01*
G75*
G02*
X37657456Y-37275000I-267544J0D01*
G01*
G37*
G36*
G01*
X37657456Y-40250000D02*
X36342544Y-40250000D01*
G75*
G02*
X36075000Y-39982456I0J267544D01*
G01*
X36075000Y-38992544D01*
G75*
G02*
X36342544Y-38725000I267544J0D01*
G01*
X37657456Y-38725000D01*
G75*
G02*
X37925000Y-38992544I0J-267544D01*
G01*
X37925000Y-39982456D01*
G75*
G02*
X37657456Y-40250000I-267544J0D01*
G01*
G37*
%TD*%
%TO.C,R2*%
G36*
G01*
X46657456Y-37275000D02*
X45342544Y-37275000D01*
G75*
G02*
X45075000Y-37007456I0J267544D01*
G01*
X45075000Y-36017544D01*
G75*
G02*
X45342544Y-35750000I267544J0D01*
G01*
X46657456Y-35750000D01*
G75*
G02*
X46925000Y-36017544I0J-267544D01*
G01*
X46925000Y-37007456D01*
G75*
G02*
X46657456Y-37275000I-267544J0D01*
G01*
G37*
G36*
G01*
X46657456Y-40250000D02*
X45342544Y-40250000D01*
G75*
G02*
X45075000Y-39982456I0J267544D01*
G01*
X45075000Y-38992544D01*
G75*
G02*
X45342544Y-38725000I267544J0D01*
G01*
X46657456Y-38725000D01*
G75*
G02*
X46925000Y-38992544I0J-267544D01*
G01*
X46925000Y-39982456D01*
G75*
G02*
X46657456Y-40250000I-267544J0D01*
G01*
G37*
%TD*%
%TO.C,R1*%
G36*
G01*
X33342544Y-30725000D02*
X34657456Y-30725000D01*
G75*
G02*
X34925000Y-30992544I0J-267544D01*
G01*
X34925000Y-31982456D01*
G75*
G02*
X34657456Y-32250000I-267544J0D01*
G01*
X33342544Y-32250000D01*
G75*
G02*
X33075000Y-31982456I0J267544D01*
G01*
X33075000Y-30992544D01*
G75*
G02*
X33342544Y-30725000I267544J0D01*
G01*
G37*
G36*
G01*
X33342544Y-27750000D02*
X34657456Y-27750000D01*
G75*
G02*
X34925000Y-28017544I0J-267544D01*
G01*
X34925000Y-29007456D01*
G75*
G02*
X34657456Y-29275000I-267544J0D01*
G01*
X33342544Y-29275000D01*
G75*
G02*
X33075000Y-29007456I0J267544D01*
G01*
X33075000Y-28017544D01*
G75*
G02*
X33342544Y-27750000I267544J0D01*
G01*
G37*
%TD*%
%TO.C,C3*%
G36*
G01*
X34657456Y-20775000D02*
X33342544Y-20775000D01*
G75*
G02*
X33075000Y-20507456I0J267544D01*
G01*
X33075000Y-19517544D01*
G75*
G02*
X33342544Y-19250000I267544J0D01*
G01*
X34657456Y-19250000D01*
G75*
G02*
X34925000Y-19517544I0J-267544D01*
G01*
X34925000Y-20507456D01*
G75*
G02*
X34657456Y-20775000I-267544J0D01*
G01*
G37*
G36*
G01*
X34657456Y-23750000D02*
X33342544Y-23750000D01*
G75*
G02*
X33075000Y-23482456I0J267544D01*
G01*
X33075000Y-22492544D01*
G75*
G02*
X33342544Y-22225000I267544J0D01*
G01*
X34657456Y-22225000D01*
G75*
G02*
X34925000Y-22492544I0J-267544D01*
G01*
X34925000Y-23482456D01*
G75*
G02*
X34657456Y-23750000I-267544J0D01*
G01*
G37*
%TD*%
%TO.C,C4*%
G36*
G01*
X49407456Y-37275000D02*
X48092544Y-37275000D01*
G75*
G02*
X47825000Y-37007456I0J267544D01*
G01*
X47825000Y-36017544D01*
G75*
G02*
X48092544Y-35750000I267544J0D01*
G01*
X49407456Y-35750000D01*
G75*
G02*
X49675000Y-36017544I0J-267544D01*
G01*
X49675000Y-37007456D01*
G75*
G02*
X49407456Y-37275000I-267544J0D01*
G01*
G37*
G36*
G01*
X49407456Y-40250000D02*
X48092544Y-40250000D01*
G75*
G02*
X47825000Y-39982456I0J267544D01*
G01*
X47825000Y-38992544D01*
G75*
G02*
X48092544Y-38725000I267544J0D01*
G01*
X49407456Y-38725000D01*
G75*
G02*
X49675000Y-38992544I0J-267544D01*
G01*
X49675000Y-39982456D01*
G75*
G02*
X49407456Y-40250000I-267544J0D01*
G01*
G37*
%TD*%
%TO.C,C1*%
G36*
G01*
X36342544Y-30725000D02*
X37657456Y-30725000D01*
G75*
G02*
X37925000Y-30992544I0J-267544D01*
G01*
X37925000Y-31982456D01*
G75*
G02*
X37657456Y-32250000I-267544J0D01*
G01*
X36342544Y-32250000D01*
G75*
G02*
X36075000Y-31982456I0J267544D01*
G01*
X36075000Y-30992544D01*
G75*
G02*
X36342544Y-30725000I267544J0D01*
G01*
G37*
G36*
G01*
X36342544Y-27750000D02*
X37657456Y-27750000D01*
G75*
G02*
X37925000Y-28017544I0J-267544D01*
G01*
X37925000Y-29007456D01*
G75*
G02*
X37657456Y-29275000I-267544J0D01*
G01*
X36342544Y-29275000D01*
G75*
G02*
X36075000Y-29007456I0J267544D01*
G01*
X36075000Y-28017544D01*
G75*
G02*
X36342544Y-27750000I267544J0D01*
G01*
G37*
%TD*%
D18*
%TO.C,M4*%
X69000000Y-49000000D03*
%TD*%
%TO.C,M3*%
X5000000Y-49000000D03*
%TD*%
%TO.C,M2*%
X69000000Y-5000000D03*
%TD*%
%TO.C,M1*%
X5000000Y-5000000D03*
%TD*%
D19*
%TO.C,SW1*%
X68755000Y-21505000D03*
X68755000Y-14495000D03*
D20*
X71245000Y-20250000D03*
X71245000Y-15750000D03*
%TD*%
D19*
%TO.C,SW2*%
X68755000Y-37505000D03*
X68755000Y-30495000D03*
D20*
X71245000Y-36250000D03*
X71245000Y-31750000D03*
%TD*%
D21*
%TO.C,J2*%
X27500000Y-4500000D03*
D22*
X32500000Y-4500000D03*
%TD*%
D23*
%TO.C,J3*%
X6200000Y-36500000D03*
X11500000Y-37750000D03*
X11500000Y-32250000D03*
D24*
X9600000Y-35000000D03*
X2100000Y-35000000D03*
%TD*%
D25*
%TO.C,J1*%
X56134000Y-40894000D03*
X56134000Y-38354000D03*
X58674000Y-40894000D03*
X58674000Y-38354000D03*
X61214000Y-40894000D03*
X61214000Y-38354000D03*
X63754000Y-40894000D03*
D26*
X63754000Y-38354000D03*
%TD*%
%TO.C,C2*%
G36*
G01*
X30342544Y-22225000D02*
X31657456Y-22225000D01*
G75*
G02*
X31925000Y-22492544I0J-267544D01*
G01*
X31925000Y-23482456D01*
G75*
G02*
X31657456Y-23750000I-267544J0D01*
G01*
X30342544Y-23750000D01*
G75*
G02*
X30075000Y-23482456I0J267544D01*
G01*
X30075000Y-22492544D01*
G75*
G02*
X30342544Y-22225000I267544J0D01*
G01*
G37*
G36*
G01*
X30342544Y-19250000D02*
X31657456Y-19250000D01*
G75*
G02*
X31925000Y-19517544I0J-267544D01*
G01*
X31925000Y-20507456D01*
G75*
G02*
X31657456Y-20775000I-267544J0D01*
G01*
X30342544Y-20775000D01*
G75*
G02*
X30075000Y-20507456I0J267544D01*
G01*
X30075000Y-19517544D01*
G75*
G02*
X30342544Y-19250000I267544J0D01*
G01*
G37*
%TD*%
%TO.C,C5*%
G36*
G01*
X13842544Y-25225000D02*
X15157456Y-25225000D01*
G75*
G02*
X15425000Y-25492544I0J-267544D01*
G01*
X15425000Y-26482456D01*
G75*
G02*
X15157456Y-26750000I-267544J0D01*
G01*
X13842544Y-26750000D01*
G75*
G02*
X13575000Y-26482456I0J267544D01*
G01*
X13575000Y-25492544D01*
G75*
G02*
X13842544Y-25225000I267544J0D01*
G01*
G37*
G36*
G01*
X13842544Y-22250000D02*
X15157456Y-22250000D01*
G75*
G02*
X15425000Y-22517544I0J-267544D01*
G01*
X15425000Y-23507456D01*
G75*
G02*
X15157456Y-23775000I-267544J0D01*
G01*
X13842544Y-23775000D01*
G75*
G02*
X13575000Y-23507456I0J267544D01*
G01*
X13575000Y-22517544D01*
G75*
G02*
X13842544Y-22250000I267544J0D01*
G01*
G37*
%TD*%
%TO.C,D1*%
G36*
G01*
X62657456Y-26275000D02*
X61342544Y-26275000D01*
G75*
G02*
X61075000Y-26007456I0J267544D01*
G01*
X61075000Y-25017544D01*
G75*
G02*
X61342544Y-24750000I267544J0D01*
G01*
X62657456Y-24750000D01*
G75*
G02*
X62925000Y-25017544I0J-267544D01*
G01*
X62925000Y-26007456D01*
G75*
G02*
X62657456Y-26275000I-267544J0D01*
G01*
G37*
G36*
G01*
X62657456Y-29250000D02*
X61342544Y-29250000D01*
G75*
G02*
X61075000Y-28982456I0J267544D01*
G01*
X61075000Y-27992544D01*
G75*
G02*
X61342544Y-27725000I267544J0D01*
G01*
X62657456Y-27725000D01*
G75*
G02*
X62925000Y-27992544I0J-267544D01*
G01*
X62925000Y-28982456D01*
G75*
G02*
X62657456Y-29250000I-267544J0D01*
G01*
G37*
%TD*%
%TO.C,D2*%
G36*
G01*
X61342544Y-16725000D02*
X62657456Y-16725000D01*
G75*
G02*
X62925000Y-16992544I0J-267544D01*
G01*
X62925000Y-17982456D01*
G75*
G02*
X62657456Y-18250000I-267544J0D01*
G01*
X61342544Y-18250000D01*
G75*
G02*
X61075000Y-17982456I0J267544D01*
G01*
X61075000Y-16992544D01*
G75*
G02*
X61342544Y-16725000I267544J0D01*
G01*
G37*
G36*
G01*
X61342544Y-13750000D02*
X62657456Y-13750000D01*
G75*
G02*
X62925000Y-14017544I0J-267544D01*
G01*
X62925000Y-15007456D01*
G75*
G02*
X62657456Y-15275000I-267544J0D01*
G01*
X61342544Y-15275000D01*
G75*
G02*
X61075000Y-15007456I0J267544D01*
G01*
X61075000Y-14017544D01*
G75*
G02*
X61342544Y-13750000I267544J0D01*
G01*
G37*
%TD*%
D27*
%TO.C,D4*%
X11500000Y-23100000D03*
X11500000Y-25900000D03*
%TD*%
D28*
%TO.C,D3*%
X27300000Y-14400000D03*
X32700000Y-14400000D03*
%TD*%
D29*
%TO.C,U4*%
X17850000Y-21200000D03*
X17850000Y-25800000D03*
X17850000Y-23500000D03*
D30*
X24150000Y-23500000D03*
%TD*%
D31*
%TO.C,Q1*%
X20500000Y-5400000D03*
D32*
X22780000Y-11700000D03*
X20500000Y-11700000D03*
X18220000Y-11700000D03*
%TD*%
M02*
