%TF.GenerationSoftware,KiCad,Pcbnew,(5.1.6)-1*%
%TF.CreationDate,2020-09-20T23:40:56+02:00*%
%TF.ProjectId,ESP32MiniDrop,45535033-324d-4696-9e69-44726f702e6b,rev?*%
%TF.SameCoordinates,Original*%
%TF.FileFunction,Soldermask,Bot*%
%TF.FilePolarity,Negative*%
%FSLAX46Y46*%
G04 Gerber Fmt 4.6, Leading zero omitted, Abs format (unit mm)*
G04 Created by KiCad (PCBNEW (5.1.6)-1) date 2020-09-20 23:40:56*
%MOMM*%
%LPD*%
G01*
G04 APERTURE LIST*
%ADD10C,0.100000*%
%ADD11C,2.500000*%
%ADD12R,1.900000X4.500000*%
%ADD13O,1.900000X4.100000*%
%ADD14O,4.100000X1.900000*%
%ADD15C,5.800000*%
%ADD16C,2.400000*%
%ADD17C,1.900000*%
%ADD18R,2.700000X2.700000*%
%ADD19C,2.700000*%
%ADD20C,2.900000*%
%ADD21C,1.100000*%
%ADD22O,1.800000X1.800000*%
%ADD23R,1.800000X1.800000*%
G04 APERTURE END LIST*
D10*
G36*
X30500000Y-22500000D02*
G01*
X30500000Y-28500000D01*
X29000000Y-30000000D01*
X24500000Y-30000000D01*
X19000000Y-24500000D01*
X19000000Y-22000000D01*
X20000000Y-21000000D01*
X29000000Y-21000000D01*
X30500000Y-22500000D01*
G37*
X30500000Y-22500000D02*
X30500000Y-28500000D01*
X29000000Y-30000000D01*
X24500000Y-30000000D01*
X19000000Y-24500000D01*
X19000000Y-22000000D01*
X20000000Y-21000000D01*
X29000000Y-21000000D01*
X30500000Y-22500000D01*
G36*
X23750000Y-8750000D02*
G01*
X17250000Y-8750000D01*
X17250000Y-1750000D01*
X23750000Y-1750000D01*
X23750000Y-8750000D01*
G37*
X23750000Y-8750000D02*
X17250000Y-8750000D01*
X17250000Y-1750000D01*
X23750000Y-1750000D01*
X23750000Y-8750000D01*
D11*
X50225000Y-20750000D02*
G75*
G03*
X50225000Y-20750000I-1225000J0D01*
G01*
D12*
%TO.C,J5*%
X11700000Y-15000000D03*
D13*
X5900000Y-15000000D03*
D14*
X8700000Y-19800000D03*
%TD*%
D15*
%TO.C,M4*%
X69000000Y-49000000D03*
%TD*%
%TO.C,M3*%
X5000000Y-49000000D03*
%TD*%
%TO.C,M2*%
X69000000Y-5000000D03*
%TD*%
%TO.C,M1*%
X5000000Y-5000000D03*
%TD*%
D16*
%TO.C,SW1*%
X68755000Y-21505000D03*
X68755000Y-14495000D03*
D17*
X71245000Y-20250000D03*
X71245000Y-15750000D03*
%TD*%
D16*
%TO.C,SW2*%
X68755000Y-37505000D03*
X68755000Y-30495000D03*
D17*
X71245000Y-36250000D03*
X71245000Y-31750000D03*
%TD*%
D18*
%TO.C,J2*%
X27500000Y-4500000D03*
D19*
X32500000Y-4500000D03*
%TD*%
D20*
%TO.C,J3*%
X6200000Y-36500000D03*
X11500000Y-37750000D03*
X11500000Y-32250000D03*
D21*
X9600000Y-35000000D03*
X2100000Y-35000000D03*
%TD*%
D22*
%TO.C,J1*%
X56134000Y-40894000D03*
X56134000Y-38354000D03*
X58674000Y-40894000D03*
X58674000Y-38354000D03*
X61214000Y-40894000D03*
X61214000Y-38354000D03*
X63754000Y-40894000D03*
D23*
X63754000Y-38354000D03*
%TD*%
M02*
