%TF.GenerationSoftware,KiCad,Pcbnew,(5.1.6)-1*%
%TF.CreationDate,2020-09-26T10:57:46+02:00*%
%TF.ProjectId,ESP32MiniDrop,45535033-324d-4696-9e69-44726f702e6b,rev?*%
%TF.SameCoordinates,Original*%
%TF.FileFunction,Copper,L2,Bot*%
%TF.FilePolarity,Positive*%
%FSLAX46Y46*%
G04 Gerber Fmt 4.6, Leading zero omitted, Abs format (unit mm)*
G04 Created by KiCad (PCBNEW (5.1.6)-1) date 2020-09-26 10:57:46*
%MOMM*%
%LPD*%
G01*
G04 APERTURE LIST*
%TA.AperFunction,ComponentPad*%
%ADD10C,2.300000*%
%TD*%
%TA.AperFunction,ComponentPad*%
%ADD11C,1.800000*%
%TD*%
%TA.AperFunction,ComponentPad*%
%ADD12R,1.800000X4.400000*%
%TD*%
%TA.AperFunction,ComponentPad*%
%ADD13O,1.800000X4.000000*%
%TD*%
%TA.AperFunction,ComponentPad*%
%ADD14O,4.000000X1.800000*%
%TD*%
%TA.AperFunction,ComponentPad*%
%ADD15R,2.600000X2.600000*%
%TD*%
%TA.AperFunction,ComponentPad*%
%ADD16C,2.600000*%
%TD*%
%TA.AperFunction,ComponentPad*%
%ADD17C,5.700000*%
%TD*%
%TA.AperFunction,ComponentPad*%
%ADD18O,1.700000X1.700000*%
%TD*%
%TA.AperFunction,ComponentPad*%
%ADD19R,1.700000X1.700000*%
%TD*%
%TA.AperFunction,ComponentPad*%
%ADD20O,2.500000X1.600000*%
%TD*%
%TA.AperFunction,ComponentPad*%
%ADD21O,1.600000X2.500000*%
%TD*%
%TA.AperFunction,ViaPad*%
%ADD22C,4.500000*%
%TD*%
%TA.AperFunction,ViaPad*%
%ADD23C,0.800000*%
%TD*%
%TA.AperFunction,Conductor*%
%ADD24C,0.500000*%
%TD*%
%TA.AperFunction,Conductor*%
%ADD25C,0.250000*%
%TD*%
%TA.AperFunction,Conductor*%
%ADD26C,0.254000*%
%TD*%
G04 APERTURE END LIST*
D10*
%TO.P,SW2,M*%
%TO.N,N/C*%
X68755000Y-37505000D03*
X68755000Y-30495000D03*
D11*
%TO.P,SW2,1*%
%TO.N,/EN*%
X71245000Y-36250000D03*
%TO.P,SW2,2*%
%TO.N,GND*%
X71245000Y-31750000D03*
%TD*%
D10*
%TO.P,SW1,M*%
%TO.N,N/C*%
X68755000Y-21505000D03*
X68755000Y-14495000D03*
D11*
%TO.P,SW1,1*%
%TO.N,PairSwitch_CTLI*%
X71245000Y-20250000D03*
%TO.P,SW1,2*%
%TO.N,GND*%
X71245000Y-15750000D03*
%TD*%
D12*
%TO.P,J5,1*%
%TO.N,+12V*%
X11700000Y-15000000D03*
D13*
%TO.P,J5,2*%
%TO.N,GND*%
X5900000Y-15000000D03*
D14*
%TO.P,J5,3*%
X8700000Y-19800000D03*
%TD*%
D15*
%TO.P,J2,1*%
%TO.N,Net-(D3-Pad2)*%
X27500000Y-4500000D03*
D16*
%TO.P,J2,2*%
%TO.N,+12V*%
X32500000Y-4500000D03*
%TD*%
D17*
%TO.P,M4,1*%
%TO.N,GND*%
X69000000Y-49000000D03*
%TD*%
%TO.P,M3,1*%
%TO.N,GND*%
X5000000Y-49000000D03*
%TD*%
%TO.P,M2,1*%
%TO.N,GND*%
X69000000Y-5000000D03*
%TD*%
%TO.P,M1,1*%
%TO.N,GND*%
X5000000Y-5000000D03*
%TD*%
D18*
%TO.P,J1,8*%
%TO.N,/USB_RX*%
X56134000Y-40894000D03*
%TO.P,J1,7*%
%TO.N,/VREG_IN*%
X56134000Y-38354000D03*
%TO.P,J1,6*%
%TO.N,/USB_TX*%
X58674000Y-40894000D03*
%TO.P,J1,5*%
%TO.N,GND*%
X58674000Y-38354000D03*
%TO.P,J1,4*%
%TO.N,PairSwitch_CTLI*%
X61214000Y-40894000D03*
%TO.P,J1,3*%
%TO.N,GND*%
X61214000Y-38354000D03*
%TO.P,J1,2*%
%TO.N,/EN*%
X63754000Y-40894000D03*
D19*
%TO.P,J1,1*%
%TO.N,GND*%
X63754000Y-38354000D03*
%TD*%
D20*
%TO.P,J3,10*%
%TO.N,N/C*%
X9500000Y-38500000D03*
%TO.P,J3,11*%
X9500000Y-33500000D03*
%TO.P,J3,R*%
%TO.N,Net-(J3-PadR)*%
X9500000Y-31000000D03*
%TO.P,J3,T*%
%TO.N,Net-(J3-PadT)*%
X9500000Y-41000000D03*
D21*
%TO.P,J3,S*%
%TO.N,Net-(J3-PadS)*%
X4500000Y-36000000D03*
%TD*%
D22*
%TO.N,GND*%
X49000000Y-20750000D03*
D23*
X37000000Y-27000000D03*
X37000000Y-24500000D03*
X51000000Y-39500000D03*
X62000000Y-30500000D03*
X38500000Y-38000000D03*
%TO.N,+3V3*%
X38800000Y-14800000D03*
X38800000Y-25600000D03*
X64000000Y-26400000D03*
X52600000Y-42200000D03*
X26500000Y-22500000D03*
X27500000Y-22500000D03*
X28500000Y-22500000D03*
X28500000Y-23500000D03*
X27500000Y-23500000D03*
X26500000Y-23500000D03*
X26500000Y-24500000D03*
X27500000Y-24500000D03*
X28500000Y-24500000D03*
X26500000Y-25500000D03*
X27500000Y-25500000D03*
X28500000Y-25500000D03*
X20000000Y-23500000D03*
X21000000Y-23500000D03*
X21000000Y-22500000D03*
X21000000Y-24500000D03*
X22000000Y-22000000D03*
X22000000Y-23000000D03*
X22000000Y-24000000D03*
X22000000Y-25000000D03*
X23500000Y-26500000D03*
X24500000Y-26500000D03*
X25500000Y-26500000D03*
X26500000Y-26500000D03*
X27500000Y-26500000D03*
X28500000Y-26500000D03*
X24500000Y-27500000D03*
X25500000Y-27500000D03*
X26500000Y-27500000D03*
X27500000Y-27500000D03*
X28500000Y-27500000D03*
X25500000Y-28500000D03*
X26500000Y-28500000D03*
X27500000Y-28500000D03*
X28500000Y-28500000D03*
X29500000Y-23500000D03*
X29500000Y-25500000D03*
X29500000Y-24500000D03*
X29500000Y-26500000D03*
X29500000Y-27500000D03*
X38400006Y-42600000D03*
%TO.N,Net-(J3-PadR)*%
X14900000Y-41300000D03*
%TO.N,/EN*%
X44000000Y-16250000D03*
X42500000Y-31500000D03*
%TO.N,Net-(D3-Pad2)*%
X22000000Y-3900000D03*
X20500000Y-3900000D03*
X19000000Y-3900000D03*
X22000000Y-7000000D03*
X20500000Y-6900000D03*
X19000000Y-6900000D03*
X19000000Y-5400000D03*
X22000000Y-5400000D03*
X20500000Y-5400000D03*
%TO.N,+12V*%
X32500000Y-11500000D03*
X33500000Y-10500000D03*
X31500000Y-10500000D03*
X32500000Y-9500000D03*
X33500000Y-8500000D03*
X31500000Y-8500000D03*
X32500000Y-7500000D03*
%TO.N,/USB_RX*%
X56250000Y-17000000D03*
%TO.N,/USB_TX*%
X54750000Y-18250000D03*
X65000000Y-44500000D03*
%TO.N,/VREG_IN*%
X33200000Y-43600000D03*
X21200000Y-30000000D03*
%TO.N,PairSwitch_CTLI*%
X66800000Y-42800000D03*
X56750000Y-34500000D03*
X55750000Y-22750000D03*
X67500010Y-33500000D03*
%TO.N,U0TX_Active*%
X54000000Y-28500000D03*
X51000000Y-38000000D03*
%TO.N,Net-(R4-Pad1)*%
X35000000Y-39500000D03*
X30000000Y-41500000D03*
%TD*%
D24*
%TO.N,+3V3*%
X38800000Y-14800000D02*
X38800000Y-25600000D01*
X64000000Y-26400000D02*
X64000000Y-34400000D01*
X39600000Y-26400000D02*
X39600000Y-41400006D01*
X39600000Y-41400006D02*
X38400006Y-42600000D01*
X38800000Y-25600000D02*
X39600000Y-26400000D01*
X62200000Y-36200000D02*
X64000000Y-34400000D01*
X55400000Y-36200000D02*
X62200000Y-36200000D01*
X52600000Y-42200000D02*
X52600000Y-39000000D01*
X52600000Y-39000000D02*
X55400000Y-36200000D01*
%TO.N,Net-(J3-PadR)*%
X14900000Y-41300000D02*
X14900000Y-32600000D01*
X13300000Y-31000000D02*
X9500000Y-31000000D01*
X14900000Y-32600000D02*
X13300000Y-31000000D01*
%TO.N,/EN*%
X44000000Y-16250000D02*
X44000000Y-26500000D01*
X44000000Y-26500000D02*
X44000000Y-30000000D01*
X44000000Y-30000000D02*
X42500000Y-31500000D01*
X42500000Y-46100000D02*
X43200000Y-46800000D01*
X42500000Y-31500000D02*
X42500000Y-46100000D01*
X43200000Y-46800000D02*
X65200000Y-46800000D01*
X71245000Y-40755000D02*
X71245000Y-36250000D01*
X65200000Y-46800000D02*
X71245000Y-40755000D01*
D25*
%TO.N,/USB_RX*%
X56134000Y-43134000D02*
X56134000Y-40894000D01*
X65500000Y-26250000D02*
X65500000Y-42225001D01*
X56250000Y-17000000D02*
X65500000Y-26250000D01*
X65500000Y-42225001D02*
X64225001Y-43500000D01*
X56500000Y-43500000D02*
X56134000Y-43134000D01*
X64225001Y-43500000D02*
X56500000Y-43500000D01*
%TO.N,/USB_TX*%
X58674000Y-40894000D02*
X58674000Y-40674000D01*
X54750000Y-16750000D02*
X54750000Y-18250000D01*
X65000000Y-44500000D02*
X66000000Y-43500000D01*
X66000000Y-43500000D02*
X66000000Y-23000000D01*
X66000000Y-23000000D02*
X59000000Y-16000000D01*
X59000000Y-16000000D02*
X55500000Y-16000000D01*
X55500000Y-16000000D02*
X54750000Y-16750000D01*
D24*
%TO.N,/VREG_IN*%
X32300000Y-44500000D02*
X33200000Y-43600000D01*
X22500000Y-44500000D02*
X32300000Y-44500000D01*
X21200000Y-30000000D02*
X21200000Y-43200000D01*
X21200000Y-43200000D02*
X22500000Y-44500000D01*
%TO.N,PairSwitch_CTLI*%
X56750000Y-23750000D02*
X55750000Y-22750000D01*
X56750000Y-34500000D02*
X56750000Y-23750000D01*
D25*
X66800000Y-34200010D02*
X67500010Y-33500000D01*
X66800000Y-42800000D02*
X66800000Y-34200010D01*
D24*
%TO.N,U0TX_Active*%
X51000000Y-38000000D02*
X51000000Y-29000000D01*
X51500000Y-28500000D02*
X54000000Y-28500000D01*
X51000000Y-29000000D02*
X51500000Y-28500000D01*
%TO.N,Net-(R4-Pad1)*%
X35000000Y-39500000D02*
X33000000Y-41500000D01*
X33000000Y-41500000D02*
X30000000Y-41500000D01*
%TD*%
D26*
%TO.N,GND*%
G36*
X16413336Y-756996D02*
G01*
X16377201Y-876118D01*
X16365000Y-1000000D01*
X16365000Y-11365000D01*
X10000000Y-11365000D01*
X9876118Y-11377201D01*
X9756996Y-11413336D01*
X9647213Y-11472017D01*
X9550987Y-11550987D01*
X9472017Y-11647213D01*
X9413336Y-11756996D01*
X9377201Y-11876118D01*
X9365000Y-12000000D01*
X9365000Y-18000000D01*
X9377201Y-18123882D01*
X9413336Y-18243004D01*
X9425093Y-18265000D01*
X8827000Y-18265000D01*
X8827000Y-19673000D01*
X11170378Y-19673000D01*
X11291036Y-19435260D01*
X11266755Y-19329913D01*
X11146862Y-19052796D01*
X10975210Y-18804394D01*
X10800438Y-18635000D01*
X34500000Y-18635000D01*
X34623882Y-18622799D01*
X34743004Y-18586664D01*
X34852787Y-18527983D01*
X34949013Y-18449013D01*
X35027983Y-18352787D01*
X35086664Y-18243004D01*
X35122799Y-18123882D01*
X35135000Y-18000000D01*
X35135000Y-7452033D01*
X66727572Y-7452033D01*
X67045757Y-7905850D01*
X67650210Y-8231269D01*
X68306535Y-8432512D01*
X68989510Y-8501845D01*
X69672888Y-8436605D01*
X70330407Y-8239298D01*
X70936799Y-7917506D01*
X70954243Y-7905850D01*
X71272428Y-7452033D01*
X69000000Y-5179605D01*
X66727572Y-7452033D01*
X35135000Y-7452033D01*
X35135000Y-4989510D01*
X65498155Y-4989510D01*
X65563395Y-5672888D01*
X65760702Y-6330407D01*
X66082494Y-6936799D01*
X66094150Y-6954243D01*
X66547967Y-7272428D01*
X68820395Y-5000000D01*
X69179605Y-5000000D01*
X71452033Y-7272428D01*
X71905850Y-6954243D01*
X72231269Y-6349790D01*
X72432512Y-5693465D01*
X72501845Y-5010490D01*
X72436605Y-4327112D01*
X72239298Y-3669593D01*
X71917506Y-3063201D01*
X71905850Y-3045757D01*
X71452033Y-2727572D01*
X69179605Y-5000000D01*
X68820395Y-5000000D01*
X66547967Y-2727572D01*
X66094150Y-3045757D01*
X65768731Y-3650210D01*
X65567488Y-4306535D01*
X65498155Y-4989510D01*
X35135000Y-4989510D01*
X35135000Y-2547967D01*
X66727572Y-2547967D01*
X69000000Y-4820395D01*
X71272428Y-2547967D01*
X70954243Y-2094150D01*
X70349790Y-1768731D01*
X69693465Y-1567488D01*
X69010490Y-1498155D01*
X68327112Y-1563395D01*
X67669593Y-1760702D01*
X67063201Y-2082494D01*
X67045757Y-2094150D01*
X66727572Y-2547967D01*
X35135000Y-2547967D01*
X35135000Y-1000000D01*
X35122799Y-876118D01*
X35086664Y-756996D01*
X35034818Y-660000D01*
X70726620Y-660000D01*
X73340001Y-3273382D01*
X73340000Y-50726619D01*
X70726620Y-53340000D01*
X3273381Y-53340000D01*
X1385414Y-51452033D01*
X2727572Y-51452033D01*
X3045757Y-51905850D01*
X3650210Y-52231269D01*
X4306535Y-52432512D01*
X4989510Y-52501845D01*
X5672888Y-52436605D01*
X6330407Y-52239298D01*
X6936799Y-51917506D01*
X6954243Y-51905850D01*
X7272428Y-51452033D01*
X66727572Y-51452033D01*
X67045757Y-51905850D01*
X67650210Y-52231269D01*
X68306535Y-52432512D01*
X68989510Y-52501845D01*
X69672888Y-52436605D01*
X70330407Y-52239298D01*
X70936799Y-51917506D01*
X70954243Y-51905850D01*
X71272428Y-51452033D01*
X69000000Y-49179605D01*
X66727572Y-51452033D01*
X7272428Y-51452033D01*
X5000000Y-49179605D01*
X2727572Y-51452033D01*
X1385414Y-51452033D01*
X660000Y-50726620D01*
X660000Y-48989510D01*
X1498155Y-48989510D01*
X1563395Y-49672888D01*
X1760702Y-50330407D01*
X2082494Y-50936799D01*
X2094150Y-50954243D01*
X2547967Y-51272428D01*
X4820395Y-49000000D01*
X5179605Y-49000000D01*
X7452033Y-51272428D01*
X7905850Y-50954243D01*
X8231269Y-50349790D01*
X8432512Y-49693465D01*
X8501845Y-49010490D01*
X8436605Y-48327112D01*
X8239298Y-47669593D01*
X7917506Y-47063201D01*
X7905850Y-47045757D01*
X7452033Y-46727572D01*
X5179605Y-49000000D01*
X4820395Y-49000000D01*
X2547967Y-46727572D01*
X2094150Y-47045757D01*
X1768731Y-47650210D01*
X1567488Y-48306535D01*
X1498155Y-48989510D01*
X660000Y-48989510D01*
X660000Y-46547967D01*
X2727572Y-46547967D01*
X5000000Y-48820395D01*
X7272428Y-46547967D01*
X6954243Y-46094150D01*
X6349790Y-45768731D01*
X5693465Y-45567488D01*
X5010490Y-45498155D01*
X4327112Y-45563395D01*
X3669593Y-45760702D01*
X3063201Y-46082494D01*
X3045757Y-46094150D01*
X2727572Y-46547967D01*
X660000Y-46547967D01*
X660000Y-40878363D01*
X765000Y-40878363D01*
X765000Y-41121637D01*
X812460Y-41360236D01*
X905557Y-41584992D01*
X1040713Y-41787267D01*
X1212733Y-41959287D01*
X1415008Y-42094443D01*
X1639764Y-42187540D01*
X1878363Y-42235000D01*
X2121637Y-42235000D01*
X2360236Y-42187540D01*
X2584992Y-42094443D01*
X2787267Y-41959287D01*
X2959287Y-41787267D01*
X3094443Y-41584992D01*
X3187540Y-41360236D01*
X3235000Y-41121637D01*
X3235000Y-40878363D01*
X3265000Y-40878363D01*
X3265000Y-41121637D01*
X3312460Y-41360236D01*
X3405557Y-41584992D01*
X3540713Y-41787267D01*
X3712733Y-41959287D01*
X3915008Y-42094443D01*
X4139764Y-42187540D01*
X4378363Y-42235000D01*
X4621637Y-42235000D01*
X4860236Y-42187540D01*
X5084992Y-42094443D01*
X5287267Y-41959287D01*
X5459287Y-41787267D01*
X5594443Y-41584992D01*
X5687540Y-41360236D01*
X5735000Y-41121637D01*
X5735000Y-40878363D01*
X5687540Y-40639764D01*
X5594443Y-40415008D01*
X5459287Y-40212733D01*
X5287267Y-40040713D01*
X5084992Y-39905557D01*
X4860236Y-39812460D01*
X4621637Y-39765000D01*
X4378363Y-39765000D01*
X4139764Y-39812460D01*
X3915008Y-39905557D01*
X3712733Y-40040713D01*
X3540713Y-40212733D01*
X3405557Y-40415008D01*
X3312460Y-40639764D01*
X3265000Y-40878363D01*
X3235000Y-40878363D01*
X3187540Y-40639764D01*
X3094443Y-40415008D01*
X2959287Y-40212733D01*
X2787267Y-40040713D01*
X2584992Y-39905557D01*
X2360236Y-39812460D01*
X2121637Y-39765000D01*
X1878363Y-39765000D01*
X1639764Y-39812460D01*
X1415008Y-39905557D01*
X1212733Y-40040713D01*
X1040713Y-40212733D01*
X905557Y-40415008D01*
X812460Y-40639764D01*
X765000Y-40878363D01*
X660000Y-40878363D01*
X660000Y-35479509D01*
X3065000Y-35479509D01*
X3065000Y-36520492D01*
X3085764Y-36731309D01*
X3167818Y-37001808D01*
X3301068Y-37251101D01*
X3480393Y-37469608D01*
X3698900Y-37648932D01*
X3948193Y-37782182D01*
X4218692Y-37864236D01*
X4500000Y-37891943D01*
X4781309Y-37864236D01*
X5051808Y-37782182D01*
X5301101Y-37648932D01*
X5519608Y-37469608D01*
X5698932Y-37251101D01*
X5832182Y-37001808D01*
X5914236Y-36731309D01*
X5935000Y-36520491D01*
X5935000Y-35479508D01*
X5914236Y-35268691D01*
X5832182Y-34998192D01*
X5698932Y-34748899D01*
X5519607Y-34530392D01*
X5301100Y-34351068D01*
X5051807Y-34217818D01*
X4781308Y-34135764D01*
X4500000Y-34108057D01*
X4218691Y-34135764D01*
X3948192Y-34217818D01*
X3698899Y-34351068D01*
X3480392Y-34530393D01*
X3301068Y-34748900D01*
X3167818Y-34998193D01*
X3085764Y-35268692D01*
X3065000Y-35479509D01*
X660000Y-35479509D01*
X660000Y-30878363D01*
X765000Y-30878363D01*
X765000Y-31121637D01*
X812460Y-31360236D01*
X905557Y-31584992D01*
X1040713Y-31787267D01*
X1212733Y-31959287D01*
X1415008Y-32094443D01*
X1639764Y-32187540D01*
X1878363Y-32235000D01*
X2121637Y-32235000D01*
X2360236Y-32187540D01*
X2584992Y-32094443D01*
X2787267Y-31959287D01*
X2959287Y-31787267D01*
X3094443Y-31584992D01*
X3187540Y-31360236D01*
X3235000Y-31121637D01*
X3235000Y-30878363D01*
X3265000Y-30878363D01*
X3265000Y-31121637D01*
X3312460Y-31360236D01*
X3405557Y-31584992D01*
X3540713Y-31787267D01*
X3712733Y-31959287D01*
X3915008Y-32094443D01*
X4139764Y-32187540D01*
X4378363Y-32235000D01*
X4621637Y-32235000D01*
X4860236Y-32187540D01*
X5084992Y-32094443D01*
X5287267Y-31959287D01*
X5459287Y-31787267D01*
X5594443Y-31584992D01*
X5687540Y-31360236D01*
X5735000Y-31121637D01*
X5735000Y-31000000D01*
X7608057Y-31000000D01*
X7635764Y-31281309D01*
X7717818Y-31551808D01*
X7851068Y-31801101D01*
X8030392Y-32019608D01*
X8248899Y-32198932D01*
X8344440Y-32250000D01*
X8248899Y-32301068D01*
X8030392Y-32480392D01*
X7851068Y-32698899D01*
X7717818Y-32948192D01*
X7635764Y-33218691D01*
X7608057Y-33500000D01*
X7635764Y-33781309D01*
X7717818Y-34051808D01*
X7851068Y-34301101D01*
X8030392Y-34519608D01*
X8248899Y-34698932D01*
X8498192Y-34832182D01*
X8768691Y-34914236D01*
X8884891Y-34925681D01*
X8712733Y-35040713D01*
X8540713Y-35212733D01*
X8405557Y-35415008D01*
X8312460Y-35639764D01*
X8265000Y-35878363D01*
X8265000Y-36121637D01*
X8312460Y-36360236D01*
X8405557Y-36584992D01*
X8540713Y-36787267D01*
X8712733Y-36959287D01*
X8884891Y-37074319D01*
X8768691Y-37085764D01*
X8498192Y-37167818D01*
X8248899Y-37301068D01*
X8030392Y-37480392D01*
X7851068Y-37698899D01*
X7717818Y-37948192D01*
X7635764Y-38218691D01*
X7608057Y-38500000D01*
X7635764Y-38781309D01*
X7717818Y-39051808D01*
X7851068Y-39301101D01*
X8030392Y-39519608D01*
X8248899Y-39698932D01*
X8344440Y-39750000D01*
X8248899Y-39801068D01*
X8030392Y-39980392D01*
X7851068Y-40198899D01*
X7717818Y-40448192D01*
X7635764Y-40718691D01*
X7608057Y-41000000D01*
X7635764Y-41281309D01*
X7717818Y-41551808D01*
X7851068Y-41801101D01*
X8030392Y-42019608D01*
X8248899Y-42198932D01*
X8498192Y-42332182D01*
X8768691Y-42414236D01*
X8979508Y-42435000D01*
X10020492Y-42435000D01*
X10231309Y-42414236D01*
X10501808Y-42332182D01*
X10751101Y-42198932D01*
X10969608Y-42019608D01*
X11148932Y-41801101D01*
X11282182Y-41551808D01*
X11364236Y-41281309D01*
X11391943Y-41000000D01*
X11364236Y-40718691D01*
X11282182Y-40448192D01*
X11148932Y-40198899D01*
X10969608Y-39980392D01*
X10751101Y-39801068D01*
X10655560Y-39750000D01*
X10751101Y-39698932D01*
X10969608Y-39519608D01*
X11148932Y-39301101D01*
X11282182Y-39051808D01*
X11364236Y-38781309D01*
X11391943Y-38500000D01*
X11364236Y-38218691D01*
X11282182Y-37948192D01*
X11148932Y-37698899D01*
X10969608Y-37480392D01*
X10751101Y-37301068D01*
X10501808Y-37167818D01*
X10231309Y-37085764D01*
X10115109Y-37074319D01*
X10287267Y-36959287D01*
X10459287Y-36787267D01*
X10594443Y-36584992D01*
X10687540Y-36360236D01*
X10735000Y-36121637D01*
X10735000Y-35878363D01*
X10687540Y-35639764D01*
X10594443Y-35415008D01*
X10459287Y-35212733D01*
X10287267Y-35040713D01*
X10115109Y-34925681D01*
X10231309Y-34914236D01*
X10501808Y-34832182D01*
X10751101Y-34698932D01*
X10969608Y-34519608D01*
X11148932Y-34301101D01*
X11282182Y-34051808D01*
X11364236Y-33781309D01*
X11391943Y-33500000D01*
X11364236Y-33218691D01*
X11282182Y-32948192D01*
X11148932Y-32698899D01*
X10969608Y-32480392D01*
X10751101Y-32301068D01*
X10655560Y-32250000D01*
X10751101Y-32198932D01*
X10969608Y-32019608D01*
X11080078Y-31885000D01*
X12933422Y-31885000D01*
X14015001Y-32966580D01*
X14015000Y-40761546D01*
X13982795Y-40809744D01*
X13904774Y-40998102D01*
X13865000Y-41198061D01*
X13865000Y-41401939D01*
X13904774Y-41601898D01*
X13982795Y-41790256D01*
X14096063Y-41959774D01*
X14240226Y-42103937D01*
X14409744Y-42217205D01*
X14598102Y-42295226D01*
X14798061Y-42335000D01*
X15001939Y-42335000D01*
X15201898Y-42295226D01*
X15390256Y-42217205D01*
X15559774Y-42103937D01*
X15703937Y-41959774D01*
X15817205Y-41790256D01*
X15895226Y-41601898D01*
X15935000Y-41401939D01*
X15935000Y-41198061D01*
X15895226Y-40998102D01*
X15817205Y-40809744D01*
X15785000Y-40761546D01*
X15785000Y-32643469D01*
X15789281Y-32600000D01*
X15785000Y-32556531D01*
X15785000Y-32556523D01*
X15772195Y-32426510D01*
X15721589Y-32259687D01*
X15639411Y-32105941D01*
X15528817Y-31971183D01*
X15495049Y-31943470D01*
X13956534Y-30404956D01*
X13928817Y-30371183D01*
X13794059Y-30260589D01*
X13640313Y-30178411D01*
X13473490Y-30127805D01*
X13343477Y-30115000D01*
X13343469Y-30115000D01*
X13300000Y-30110719D01*
X13256531Y-30115000D01*
X11080078Y-30115000D01*
X10969608Y-29980392D01*
X10869288Y-29898061D01*
X20165000Y-29898061D01*
X20165000Y-30101939D01*
X20204774Y-30301898D01*
X20282795Y-30490256D01*
X20315000Y-30538454D01*
X20315001Y-43156521D01*
X20310719Y-43200000D01*
X20327805Y-43373490D01*
X20378412Y-43540313D01*
X20460590Y-43694059D01*
X20543468Y-43795046D01*
X20543471Y-43795049D01*
X20571184Y-43828817D01*
X20604951Y-43856529D01*
X21843470Y-45095049D01*
X21871183Y-45128817D01*
X21904951Y-45156530D01*
X21904953Y-45156532D01*
X22005941Y-45239411D01*
X22159686Y-45321589D01*
X22288254Y-45360590D01*
X22326510Y-45372195D01*
X22456523Y-45385000D01*
X22456531Y-45385000D01*
X22500000Y-45389281D01*
X22543469Y-45385000D01*
X32256531Y-45385000D01*
X32300000Y-45389281D01*
X32343469Y-45385000D01*
X32343477Y-45385000D01*
X32473490Y-45372195D01*
X32640313Y-45321589D01*
X32794059Y-45239411D01*
X32928817Y-45128817D01*
X32956534Y-45095044D01*
X33445044Y-44606535D01*
X33501898Y-44595226D01*
X33690256Y-44517205D01*
X33859774Y-44403937D01*
X34003937Y-44259774D01*
X34117205Y-44090256D01*
X34195226Y-43901898D01*
X34235000Y-43701939D01*
X34235000Y-43498061D01*
X34195226Y-43298102D01*
X34117205Y-43109744D01*
X34003937Y-42940226D01*
X33859774Y-42796063D01*
X33690256Y-42682795D01*
X33501898Y-42604774D01*
X33301939Y-42565000D01*
X33098061Y-42565000D01*
X32898102Y-42604774D01*
X32709744Y-42682795D01*
X32540226Y-42796063D01*
X32396063Y-42940226D01*
X32282795Y-43109744D01*
X32204774Y-43298102D01*
X32193465Y-43354956D01*
X31933422Y-43615000D01*
X22866579Y-43615000D01*
X22085000Y-42833422D01*
X22085000Y-41398061D01*
X28965000Y-41398061D01*
X28965000Y-41601939D01*
X29004774Y-41801898D01*
X29082795Y-41990256D01*
X29196063Y-42159774D01*
X29340226Y-42303937D01*
X29509744Y-42417205D01*
X29698102Y-42495226D01*
X29898061Y-42535000D01*
X30101939Y-42535000D01*
X30287645Y-42498061D01*
X37365006Y-42498061D01*
X37365006Y-42701939D01*
X37404780Y-42901898D01*
X37482801Y-43090256D01*
X37596069Y-43259774D01*
X37740232Y-43403937D01*
X37909750Y-43517205D01*
X38098108Y-43595226D01*
X38298067Y-43635000D01*
X38501945Y-43635000D01*
X38701904Y-43595226D01*
X38890262Y-43517205D01*
X39059780Y-43403937D01*
X39203943Y-43259774D01*
X39317211Y-43090256D01*
X39395232Y-42901898D01*
X39406541Y-42845043D01*
X40195049Y-42056536D01*
X40228817Y-42028823D01*
X40257348Y-41994059D01*
X40339411Y-41894065D01*
X40387137Y-41804774D01*
X40421589Y-41740319D01*
X40472195Y-41573496D01*
X40485000Y-41443483D01*
X40485000Y-41443475D01*
X40489281Y-41400006D01*
X40485000Y-41356537D01*
X40485000Y-31398061D01*
X41465000Y-31398061D01*
X41465000Y-31601939D01*
X41504774Y-31801898D01*
X41582795Y-31990256D01*
X41615000Y-32038454D01*
X41615001Y-46056521D01*
X41610719Y-46100000D01*
X41627805Y-46273490D01*
X41678412Y-46440313D01*
X41760590Y-46594059D01*
X41843468Y-46695046D01*
X41843471Y-46695049D01*
X41871184Y-46728817D01*
X41904951Y-46756529D01*
X42543470Y-47395049D01*
X42571183Y-47428817D01*
X42604951Y-47456530D01*
X42604953Y-47456532D01*
X42676452Y-47515210D01*
X42705941Y-47539411D01*
X42859687Y-47621589D01*
X43026510Y-47672195D01*
X43156523Y-47685000D01*
X43156533Y-47685000D01*
X43199999Y-47689281D01*
X43243465Y-47685000D01*
X65156531Y-47685000D01*
X65200000Y-47689281D01*
X65243469Y-47685000D01*
X65243477Y-47685000D01*
X65373490Y-47672195D01*
X65540313Y-47621589D01*
X65694059Y-47539411D01*
X65828817Y-47428817D01*
X65856534Y-47395044D01*
X65963915Y-47287663D01*
X65768731Y-47650210D01*
X65567488Y-48306535D01*
X65498155Y-48989510D01*
X65563395Y-49672888D01*
X65760702Y-50330407D01*
X66082494Y-50936799D01*
X66094150Y-50954243D01*
X66547967Y-51272428D01*
X68820395Y-49000000D01*
X69179605Y-49000000D01*
X71452033Y-51272428D01*
X71905850Y-50954243D01*
X72231269Y-50349790D01*
X72432512Y-49693465D01*
X72501845Y-49010490D01*
X72436605Y-48327112D01*
X72239298Y-47669593D01*
X71917506Y-47063201D01*
X71905850Y-47045757D01*
X71452033Y-46727572D01*
X69179605Y-49000000D01*
X68820395Y-49000000D01*
X68806253Y-48985858D01*
X68985858Y-48806253D01*
X69000000Y-48820395D01*
X71272428Y-46547967D01*
X70954243Y-46094150D01*
X70349790Y-45768731D01*
X69693465Y-45567488D01*
X69010490Y-45498155D01*
X68327112Y-45563395D01*
X67669593Y-45760702D01*
X67288804Y-45962774D01*
X71840051Y-41411528D01*
X71873817Y-41383817D01*
X71906924Y-41343477D01*
X71984410Y-41249060D01*
X71984411Y-41249059D01*
X72066589Y-41095313D01*
X72117195Y-40928490D01*
X72130000Y-40798477D01*
X72130000Y-40798469D01*
X72134281Y-40755000D01*
X72130000Y-40711531D01*
X72130000Y-37504790D01*
X72223505Y-37442312D01*
X72437312Y-37228505D01*
X72605299Y-36977095D01*
X72721011Y-36697743D01*
X72780000Y-36401184D01*
X72780000Y-36098816D01*
X72721011Y-35802257D01*
X72605299Y-35522905D01*
X72437312Y-35271495D01*
X72223505Y-35057688D01*
X71972095Y-34889701D01*
X71692743Y-34773989D01*
X71396184Y-34715000D01*
X71093816Y-34715000D01*
X70797257Y-34773989D01*
X70517905Y-34889701D01*
X70266495Y-35057688D01*
X70052688Y-35271495D01*
X69884701Y-35522905D01*
X69768989Y-35802257D01*
X69727998Y-36008335D01*
X69600515Y-35923153D01*
X69275665Y-35788596D01*
X68930807Y-35720000D01*
X68579193Y-35720000D01*
X68234335Y-35788596D01*
X67909485Y-35923153D01*
X67617129Y-36118500D01*
X67560000Y-36175629D01*
X67560000Y-34535000D01*
X67601949Y-34535000D01*
X67801908Y-34495226D01*
X67990266Y-34417205D01*
X68159784Y-34303937D01*
X68303947Y-34159774D01*
X68417215Y-33990256D01*
X68495236Y-33801898D01*
X68535010Y-33601939D01*
X68535010Y-33398061D01*
X68495236Y-33198102D01*
X68417215Y-33009744D01*
X68303947Y-32840226D01*
X68277801Y-32814080D01*
X70360525Y-32814080D01*
X70444208Y-33068261D01*
X70716775Y-33199158D01*
X71009642Y-33274365D01*
X71311553Y-33290991D01*
X71610907Y-33248397D01*
X71896199Y-33148222D01*
X72045792Y-33068261D01*
X72129475Y-32814080D01*
X71245000Y-31929605D01*
X70360525Y-32814080D01*
X68277801Y-32814080D01*
X68159784Y-32696063D01*
X67990266Y-32582795D01*
X67801908Y-32504774D01*
X67601949Y-32465000D01*
X67398071Y-32465000D01*
X67198112Y-32504774D01*
X67009754Y-32582795D01*
X66840236Y-32696063D01*
X66760000Y-32776299D01*
X66760000Y-30319193D01*
X66970000Y-30319193D01*
X66970000Y-30670807D01*
X67038596Y-31015665D01*
X67173153Y-31340515D01*
X67368500Y-31632871D01*
X67617129Y-31881500D01*
X67909485Y-32076847D01*
X68234335Y-32211404D01*
X68579193Y-32280000D01*
X68930807Y-32280000D01*
X69275665Y-32211404D01*
X69600515Y-32076847D01*
X69728845Y-31991099D01*
X69746603Y-32115907D01*
X69846778Y-32401199D01*
X69926739Y-32550792D01*
X70180920Y-32634475D01*
X71065395Y-31750000D01*
X71424605Y-31750000D01*
X72309080Y-32634475D01*
X72563261Y-32550792D01*
X72694158Y-32278225D01*
X72769365Y-31985358D01*
X72785991Y-31683447D01*
X72743397Y-31384093D01*
X72643222Y-31098801D01*
X72563261Y-30949208D01*
X72309080Y-30865525D01*
X71424605Y-31750000D01*
X71065395Y-31750000D01*
X71051253Y-31735858D01*
X71230858Y-31556253D01*
X71245000Y-31570395D01*
X72129475Y-30685920D01*
X72045792Y-30431739D01*
X71773225Y-30300842D01*
X71480358Y-30225635D01*
X71178447Y-30209009D01*
X70879093Y-30251603D01*
X70593801Y-30351778D01*
X70540000Y-30380536D01*
X70540000Y-30319193D01*
X70471404Y-29974335D01*
X70336847Y-29649485D01*
X70141500Y-29357129D01*
X69892871Y-29108500D01*
X69600515Y-28913153D01*
X69275665Y-28778596D01*
X68930807Y-28710000D01*
X68579193Y-28710000D01*
X68234335Y-28778596D01*
X67909485Y-28913153D01*
X67617129Y-29108500D01*
X67368500Y-29357129D01*
X67173153Y-29649485D01*
X67038596Y-29974335D01*
X66970000Y-30319193D01*
X66760000Y-30319193D01*
X66760000Y-23037323D01*
X66763676Y-23000000D01*
X66760000Y-22962677D01*
X66760000Y-22962667D01*
X66749003Y-22851014D01*
X66705546Y-22707753D01*
X66700387Y-22698102D01*
X66634974Y-22575723D01*
X66563799Y-22488997D01*
X66540001Y-22459999D01*
X66511003Y-22436201D01*
X65403995Y-21329193D01*
X66970000Y-21329193D01*
X66970000Y-21680807D01*
X67038596Y-22025665D01*
X67173153Y-22350515D01*
X67368500Y-22642871D01*
X67617129Y-22891500D01*
X67909485Y-23086847D01*
X68234335Y-23221404D01*
X68579193Y-23290000D01*
X68930807Y-23290000D01*
X69275665Y-23221404D01*
X69600515Y-23086847D01*
X69892871Y-22891500D01*
X70141500Y-22642871D01*
X70336847Y-22350515D01*
X70471404Y-22025665D01*
X70540000Y-21680807D01*
X70540000Y-21619451D01*
X70797257Y-21726011D01*
X71093816Y-21785000D01*
X71396184Y-21785000D01*
X71692743Y-21726011D01*
X71972095Y-21610299D01*
X72223505Y-21442312D01*
X72437312Y-21228505D01*
X72605299Y-20977095D01*
X72721011Y-20697743D01*
X72780000Y-20401184D01*
X72780000Y-20098816D01*
X72721011Y-19802257D01*
X72605299Y-19522905D01*
X72437312Y-19271495D01*
X72223505Y-19057688D01*
X71972095Y-18889701D01*
X71692743Y-18773989D01*
X71396184Y-18715000D01*
X71093816Y-18715000D01*
X70797257Y-18773989D01*
X70517905Y-18889701D01*
X70266495Y-19057688D01*
X70052688Y-19271495D01*
X69884701Y-19522905D01*
X69768989Y-19802257D01*
X69727998Y-20008335D01*
X69600515Y-19923153D01*
X69275665Y-19788596D01*
X68930807Y-19720000D01*
X68579193Y-19720000D01*
X68234335Y-19788596D01*
X67909485Y-19923153D01*
X67617129Y-20118500D01*
X67368500Y-20367129D01*
X67173153Y-20659485D01*
X67038596Y-20984335D01*
X66970000Y-21329193D01*
X65403995Y-21329193D01*
X60888882Y-16814080D01*
X70360525Y-16814080D01*
X70444208Y-17068261D01*
X70716775Y-17199158D01*
X71009642Y-17274365D01*
X71311553Y-17290991D01*
X71610907Y-17248397D01*
X71896199Y-17148222D01*
X72045792Y-17068261D01*
X72129475Y-16814080D01*
X71245000Y-15929605D01*
X70360525Y-16814080D01*
X60888882Y-16814080D01*
X59563804Y-15489003D01*
X59540001Y-15459999D01*
X59424276Y-15365026D01*
X59292247Y-15294454D01*
X59148986Y-15250997D01*
X59037333Y-15240000D01*
X59037322Y-15240000D01*
X59000000Y-15236324D01*
X58962678Y-15240000D01*
X55537322Y-15240000D01*
X55499999Y-15236324D01*
X55462676Y-15240000D01*
X55462667Y-15240000D01*
X55351014Y-15250997D01*
X55207753Y-15294454D01*
X55075724Y-15365026D01*
X54959999Y-15459999D01*
X54936201Y-15488998D01*
X54239002Y-16186197D01*
X54209999Y-16209999D01*
X54154871Y-16277174D01*
X54115026Y-16325724D01*
X54062348Y-16424277D01*
X54044454Y-16457754D01*
X54000997Y-16601015D01*
X53990000Y-16712668D01*
X53990000Y-16712678D01*
X53986324Y-16750000D01*
X53990000Y-16787323D01*
X53990001Y-17546288D01*
X53946063Y-17590226D01*
X53832795Y-17759744D01*
X53754774Y-17948102D01*
X53715000Y-18148061D01*
X53715000Y-18351939D01*
X53754774Y-18551898D01*
X53832795Y-18740256D01*
X53946063Y-18909774D01*
X54090226Y-19053937D01*
X54259744Y-19167205D01*
X54448102Y-19245226D01*
X54648061Y-19285000D01*
X54851939Y-19285000D01*
X55051898Y-19245226D01*
X55240256Y-19167205D01*
X55409774Y-19053937D01*
X55553937Y-18909774D01*
X55667205Y-18740256D01*
X55745226Y-18551898D01*
X55785000Y-18351939D01*
X55785000Y-18148061D01*
X55745226Y-17948102D01*
X55721974Y-17891968D01*
X55759744Y-17917205D01*
X55948102Y-17995226D01*
X56148061Y-18035000D01*
X56210199Y-18035000D01*
X63614571Y-25439374D01*
X63509744Y-25482795D01*
X63340226Y-25596063D01*
X63196063Y-25740226D01*
X63082795Y-25909744D01*
X63004774Y-26098102D01*
X62965000Y-26298061D01*
X62965000Y-26501939D01*
X63004774Y-26701898D01*
X63082795Y-26890256D01*
X63115000Y-26938454D01*
X63115001Y-34033420D01*
X61833422Y-35315000D01*
X57393217Y-35315000D01*
X57409774Y-35303937D01*
X57553937Y-35159774D01*
X57667205Y-34990256D01*
X57745226Y-34801898D01*
X57785000Y-34601939D01*
X57785000Y-34398061D01*
X57745226Y-34198102D01*
X57667205Y-34009744D01*
X57635000Y-33961546D01*
X57635000Y-23793469D01*
X57639281Y-23750000D01*
X57635000Y-23706531D01*
X57635000Y-23706523D01*
X57622195Y-23576510D01*
X57609603Y-23535000D01*
X57571589Y-23409686D01*
X57489411Y-23255941D01*
X57406532Y-23154953D01*
X57406530Y-23154951D01*
X57378817Y-23121183D01*
X57345049Y-23093470D01*
X56756535Y-22504957D01*
X56745226Y-22448102D01*
X56667205Y-22259744D01*
X56553937Y-22090226D01*
X56409774Y-21946063D01*
X56240256Y-21832795D01*
X56051898Y-21754774D01*
X55851939Y-21715000D01*
X55648061Y-21715000D01*
X55448102Y-21754774D01*
X55259744Y-21832795D01*
X55090226Y-21946063D01*
X54946063Y-22090226D01*
X54832795Y-22259744D01*
X54754774Y-22448102D01*
X54715000Y-22648061D01*
X54715000Y-22851939D01*
X54754774Y-23051898D01*
X54832795Y-23240256D01*
X54946063Y-23409774D01*
X55090226Y-23553937D01*
X55259744Y-23667205D01*
X55448102Y-23745226D01*
X55504957Y-23756535D01*
X55865001Y-24116580D01*
X55865000Y-33961546D01*
X55832795Y-34009744D01*
X55754774Y-34198102D01*
X55715000Y-34398061D01*
X55715000Y-34601939D01*
X55754774Y-34801898D01*
X55832795Y-34990256D01*
X55946063Y-35159774D01*
X56090226Y-35303937D01*
X56106783Y-35315000D01*
X55443469Y-35315000D01*
X55400000Y-35310719D01*
X55356531Y-35315000D01*
X55356523Y-35315000D01*
X55241306Y-35326348D01*
X55226509Y-35327805D01*
X55175903Y-35343157D01*
X55059687Y-35378411D01*
X54905941Y-35460589D01*
X54905939Y-35460590D01*
X54905940Y-35460590D01*
X54804953Y-35543468D01*
X54804951Y-35543470D01*
X54771183Y-35571183D01*
X54743470Y-35604951D01*
X52004951Y-38343471D01*
X51971184Y-38371183D01*
X51961781Y-38382640D01*
X51995226Y-38301898D01*
X52035000Y-38101939D01*
X52035000Y-37898061D01*
X51995226Y-37698102D01*
X51917205Y-37509744D01*
X51885000Y-37461546D01*
X51885000Y-29385000D01*
X53461546Y-29385000D01*
X53509744Y-29417205D01*
X53698102Y-29495226D01*
X53898061Y-29535000D01*
X54101939Y-29535000D01*
X54301898Y-29495226D01*
X54490256Y-29417205D01*
X54659774Y-29303937D01*
X54803937Y-29159774D01*
X54917205Y-28990256D01*
X54995226Y-28801898D01*
X55035000Y-28601939D01*
X55035000Y-28398061D01*
X54995226Y-28198102D01*
X54917205Y-28009744D01*
X54803937Y-27840226D01*
X54659774Y-27696063D01*
X54490256Y-27582795D01*
X54301898Y-27504774D01*
X54101939Y-27465000D01*
X53898061Y-27465000D01*
X53698102Y-27504774D01*
X53509744Y-27582795D01*
X53461546Y-27615000D01*
X51543469Y-27615000D01*
X51500000Y-27610719D01*
X51456531Y-27615000D01*
X51456523Y-27615000D01*
X51326510Y-27627805D01*
X51159687Y-27678411D01*
X51005941Y-27760589D01*
X50871183Y-27871183D01*
X50843466Y-27904956D01*
X50404952Y-28343470D01*
X50371184Y-28371183D01*
X50343471Y-28404951D01*
X50343468Y-28404954D01*
X50260590Y-28505941D01*
X50178412Y-28659687D01*
X50127805Y-28826510D01*
X50110719Y-29000000D01*
X50115001Y-29043479D01*
X50115000Y-37461546D01*
X50082795Y-37509744D01*
X50004774Y-37698102D01*
X49965000Y-37898061D01*
X49965000Y-38101939D01*
X50004774Y-38301898D01*
X50082795Y-38490256D01*
X50196063Y-38659774D01*
X50340226Y-38803937D01*
X50509744Y-38917205D01*
X50698102Y-38995226D01*
X50898061Y-39035000D01*
X51101939Y-39035000D01*
X51301898Y-38995226D01*
X51490256Y-38917205D01*
X51659774Y-38803937D01*
X51767259Y-38696452D01*
X51727805Y-38826510D01*
X51710719Y-39000000D01*
X51715001Y-39043479D01*
X51715000Y-41661545D01*
X51682795Y-41709744D01*
X51604774Y-41898102D01*
X51565000Y-42098061D01*
X51565000Y-42301939D01*
X51604774Y-42501898D01*
X51682795Y-42690256D01*
X51796063Y-42859774D01*
X51940226Y-43003937D01*
X52109744Y-43117205D01*
X52298102Y-43195226D01*
X52498061Y-43235000D01*
X52701939Y-43235000D01*
X52901898Y-43195226D01*
X53090256Y-43117205D01*
X53259774Y-43003937D01*
X53403937Y-42859774D01*
X53517205Y-42690256D01*
X53595226Y-42501898D01*
X53635000Y-42301939D01*
X53635000Y-42098061D01*
X53595226Y-41898102D01*
X53517205Y-41709744D01*
X53485000Y-41661546D01*
X53485000Y-39366578D01*
X54650282Y-38201297D01*
X54649000Y-38207740D01*
X54649000Y-38500260D01*
X54706068Y-38787158D01*
X54818010Y-39057411D01*
X54980525Y-39300632D01*
X55187368Y-39507475D01*
X55361760Y-39624000D01*
X55187368Y-39740525D01*
X54980525Y-39947368D01*
X54818010Y-40190589D01*
X54706068Y-40460842D01*
X54649000Y-40747740D01*
X54649000Y-41040260D01*
X54706068Y-41327158D01*
X54818010Y-41597411D01*
X54980525Y-41840632D01*
X55187368Y-42047475D01*
X55374000Y-42172179D01*
X55374000Y-43096677D01*
X55370324Y-43134000D01*
X55374000Y-43171322D01*
X55374000Y-43171332D01*
X55384997Y-43282985D01*
X55412451Y-43373490D01*
X55428454Y-43426246D01*
X55499026Y-43558276D01*
X55533269Y-43600001D01*
X55593999Y-43674001D01*
X55623003Y-43697804D01*
X55936196Y-44010997D01*
X55959999Y-44040001D01*
X56075724Y-44134974D01*
X56207753Y-44205546D01*
X56351014Y-44249003D01*
X56462667Y-44260000D01*
X56462676Y-44260000D01*
X56499999Y-44263676D01*
X56537322Y-44260000D01*
X63992462Y-44260000D01*
X63965000Y-44398061D01*
X63965000Y-44601939D01*
X64004774Y-44801898D01*
X64082795Y-44990256D01*
X64196063Y-45159774D01*
X64340226Y-45303937D01*
X64509744Y-45417205D01*
X64698102Y-45495226D01*
X64898061Y-45535000D01*
X65101939Y-45535000D01*
X65241103Y-45507319D01*
X64833422Y-45915000D01*
X43566579Y-45915000D01*
X43385000Y-45733422D01*
X43385000Y-32038454D01*
X43417205Y-31990256D01*
X43495226Y-31801898D01*
X43506535Y-31745043D01*
X44595049Y-30656530D01*
X44628817Y-30628817D01*
X44663412Y-30586664D01*
X44739410Y-30494060D01*
X44739411Y-30494059D01*
X44821589Y-30340313D01*
X44872195Y-30173490D01*
X44885000Y-30043477D01*
X44885000Y-30043467D01*
X44889281Y-30000001D01*
X44885000Y-29956535D01*
X44885000Y-16788454D01*
X44917205Y-16740256D01*
X44995226Y-16551898D01*
X45035000Y-16351939D01*
X45035000Y-16148061D01*
X44995226Y-15948102D01*
X44917205Y-15759744D01*
X44803937Y-15590226D01*
X44659774Y-15446063D01*
X44490256Y-15332795D01*
X44301898Y-15254774D01*
X44101939Y-15215000D01*
X43898061Y-15215000D01*
X43698102Y-15254774D01*
X43509744Y-15332795D01*
X43340226Y-15446063D01*
X43196063Y-15590226D01*
X43082795Y-15759744D01*
X43004774Y-15948102D01*
X42965000Y-16148061D01*
X42965000Y-16351939D01*
X43004774Y-16551898D01*
X43082795Y-16740256D01*
X43115000Y-16788454D01*
X43115001Y-26456514D01*
X43115000Y-26456524D01*
X43115001Y-29633420D01*
X42254957Y-30493465D01*
X42198102Y-30504774D01*
X42009744Y-30582795D01*
X41840226Y-30696063D01*
X41696063Y-30840226D01*
X41582795Y-31009744D01*
X41504774Y-31198102D01*
X41465000Y-31398061D01*
X40485000Y-31398061D01*
X40485000Y-26443469D01*
X40489281Y-26400000D01*
X40485000Y-26356531D01*
X40485000Y-26356523D01*
X40472195Y-26226510D01*
X40421589Y-26059687D01*
X40339411Y-25905941D01*
X40273578Y-25825724D01*
X40256532Y-25804953D01*
X40256530Y-25804951D01*
X40228817Y-25771183D01*
X40195050Y-25743471D01*
X39806535Y-25354956D01*
X39795226Y-25298102D01*
X39717205Y-25109744D01*
X39685000Y-25061546D01*
X39685000Y-15338454D01*
X39717205Y-15290256D01*
X39795226Y-15101898D01*
X39835000Y-14901939D01*
X39835000Y-14698061D01*
X39795226Y-14498102D01*
X39721119Y-14319193D01*
X66970000Y-14319193D01*
X66970000Y-14670807D01*
X67038596Y-15015665D01*
X67173153Y-15340515D01*
X67368500Y-15632871D01*
X67617129Y-15881500D01*
X67909485Y-16076847D01*
X68234335Y-16211404D01*
X68579193Y-16280000D01*
X68930807Y-16280000D01*
X69275665Y-16211404D01*
X69600515Y-16076847D01*
X69728845Y-15991099D01*
X69746603Y-16115907D01*
X69846778Y-16401199D01*
X69926739Y-16550792D01*
X70180920Y-16634475D01*
X71065395Y-15750000D01*
X71424605Y-15750000D01*
X72309080Y-16634475D01*
X72563261Y-16550792D01*
X72694158Y-16278225D01*
X72769365Y-15985358D01*
X72785991Y-15683447D01*
X72743397Y-15384093D01*
X72643222Y-15098801D01*
X72563261Y-14949208D01*
X72309080Y-14865525D01*
X71424605Y-15750000D01*
X71065395Y-15750000D01*
X71051253Y-15735858D01*
X71230858Y-15556253D01*
X71245000Y-15570395D01*
X72129475Y-14685920D01*
X72045792Y-14431739D01*
X71773225Y-14300842D01*
X71480358Y-14225635D01*
X71178447Y-14209009D01*
X70879093Y-14251603D01*
X70593801Y-14351778D01*
X70540000Y-14380536D01*
X70540000Y-14319193D01*
X70471404Y-13974335D01*
X70336847Y-13649485D01*
X70141500Y-13357129D01*
X69892871Y-13108500D01*
X69600515Y-12913153D01*
X69275665Y-12778596D01*
X68930807Y-12710000D01*
X68579193Y-12710000D01*
X68234335Y-12778596D01*
X67909485Y-12913153D01*
X67617129Y-13108500D01*
X67368500Y-13357129D01*
X67173153Y-13649485D01*
X67038596Y-13974335D01*
X66970000Y-14319193D01*
X39721119Y-14319193D01*
X39717205Y-14309744D01*
X39603937Y-14140226D01*
X39459774Y-13996063D01*
X39290256Y-13882795D01*
X39101898Y-13804774D01*
X38901939Y-13765000D01*
X38698061Y-13765000D01*
X38498102Y-13804774D01*
X38309744Y-13882795D01*
X38140226Y-13996063D01*
X37996063Y-14140226D01*
X37882795Y-14309744D01*
X37804774Y-14498102D01*
X37765000Y-14698061D01*
X37765000Y-14901939D01*
X37804774Y-15101898D01*
X37882795Y-15290256D01*
X37915000Y-15338454D01*
X37915001Y-25061544D01*
X37882795Y-25109744D01*
X37804774Y-25298102D01*
X37765000Y-25498061D01*
X37765000Y-25701939D01*
X37804774Y-25901898D01*
X37882795Y-26090256D01*
X37996063Y-26259774D01*
X38140226Y-26403937D01*
X38309744Y-26517205D01*
X38498102Y-26595226D01*
X38554956Y-26606535D01*
X38715000Y-26766579D01*
X38715001Y-41033426D01*
X38154963Y-41593465D01*
X38098108Y-41604774D01*
X37909750Y-41682795D01*
X37740232Y-41796063D01*
X37596069Y-41940226D01*
X37482801Y-42109744D01*
X37404780Y-42298102D01*
X37365006Y-42498061D01*
X30287645Y-42498061D01*
X30301898Y-42495226D01*
X30490256Y-42417205D01*
X30538454Y-42385000D01*
X32956531Y-42385000D01*
X33000000Y-42389281D01*
X33043469Y-42385000D01*
X33043477Y-42385000D01*
X33173490Y-42372195D01*
X33340313Y-42321589D01*
X33494059Y-42239411D01*
X33628817Y-42128817D01*
X33656534Y-42095044D01*
X35245044Y-40506535D01*
X35301898Y-40495226D01*
X35490256Y-40417205D01*
X35659774Y-40303937D01*
X35803937Y-40159774D01*
X35917205Y-39990256D01*
X35995226Y-39801898D01*
X36035000Y-39601939D01*
X36035000Y-39398061D01*
X35995226Y-39198102D01*
X35917205Y-39009744D01*
X35803937Y-38840226D01*
X35659774Y-38696063D01*
X35490256Y-38582795D01*
X35301898Y-38504774D01*
X35101939Y-38465000D01*
X34898061Y-38465000D01*
X34698102Y-38504774D01*
X34509744Y-38582795D01*
X34340226Y-38696063D01*
X34196063Y-38840226D01*
X34082795Y-39009744D01*
X34004774Y-39198102D01*
X33993465Y-39254956D01*
X32633422Y-40615000D01*
X30538454Y-40615000D01*
X30490256Y-40582795D01*
X30301898Y-40504774D01*
X30101939Y-40465000D01*
X29898061Y-40465000D01*
X29698102Y-40504774D01*
X29509744Y-40582795D01*
X29340226Y-40696063D01*
X29196063Y-40840226D01*
X29082795Y-41009744D01*
X29004774Y-41198102D01*
X28965000Y-41398061D01*
X22085000Y-41398061D01*
X22085000Y-30538454D01*
X22117205Y-30490256D01*
X22195226Y-30301898D01*
X22235000Y-30101939D01*
X22235000Y-29898061D01*
X22195226Y-29698102D01*
X22117205Y-29509744D01*
X22003937Y-29340226D01*
X21859774Y-29196063D01*
X21690256Y-29082795D01*
X21501898Y-29004774D01*
X21301939Y-28965000D01*
X21098061Y-28965000D01*
X20898102Y-29004774D01*
X20709744Y-29082795D01*
X20540226Y-29196063D01*
X20396063Y-29340226D01*
X20282795Y-29509744D01*
X20204774Y-29698102D01*
X20165000Y-29898061D01*
X10869288Y-29898061D01*
X10751101Y-29801068D01*
X10501808Y-29667818D01*
X10231309Y-29585764D01*
X10020492Y-29565000D01*
X8979508Y-29565000D01*
X8768691Y-29585764D01*
X8498192Y-29667818D01*
X8248899Y-29801068D01*
X8030392Y-29980392D01*
X7851068Y-30198899D01*
X7717818Y-30448192D01*
X7635764Y-30718691D01*
X7608057Y-31000000D01*
X5735000Y-31000000D01*
X5735000Y-30878363D01*
X5687540Y-30639764D01*
X5594443Y-30415008D01*
X5459287Y-30212733D01*
X5287267Y-30040713D01*
X5084992Y-29905557D01*
X4860236Y-29812460D01*
X4621637Y-29765000D01*
X4378363Y-29765000D01*
X4139764Y-29812460D01*
X3915008Y-29905557D01*
X3712733Y-30040713D01*
X3540713Y-30212733D01*
X3405557Y-30415008D01*
X3312460Y-30639764D01*
X3265000Y-30878363D01*
X3235000Y-30878363D01*
X3187540Y-30639764D01*
X3094443Y-30415008D01*
X2959287Y-30212733D01*
X2787267Y-30040713D01*
X2584992Y-29905557D01*
X2360236Y-29812460D01*
X2121637Y-29765000D01*
X1878363Y-29765000D01*
X1639764Y-29812460D01*
X1415008Y-29905557D01*
X1212733Y-30040713D01*
X1040713Y-30212733D01*
X905557Y-30415008D01*
X812460Y-30639764D01*
X765000Y-30878363D01*
X660000Y-30878363D01*
X660000Y-22000000D01*
X18365000Y-22000000D01*
X18365000Y-24500000D01*
X18377201Y-24623882D01*
X18413336Y-24743004D01*
X18472017Y-24852787D01*
X18550987Y-24949013D01*
X24050987Y-30449013D01*
X24147213Y-30527983D01*
X24256996Y-30586664D01*
X24376118Y-30622799D01*
X24500000Y-30635000D01*
X29000000Y-30635000D01*
X29123882Y-30622799D01*
X29243004Y-30586664D01*
X29352787Y-30527983D01*
X29449013Y-30449013D01*
X30949013Y-28949013D01*
X31027983Y-28852787D01*
X31086664Y-28743004D01*
X31122799Y-28623882D01*
X31135000Y-28500000D01*
X31135000Y-22500000D01*
X31122799Y-22376118D01*
X31086664Y-22256996D01*
X31027983Y-22147213D01*
X30949013Y-22050987D01*
X29449013Y-20550987D01*
X29352787Y-20472017D01*
X29243004Y-20413336D01*
X29123882Y-20377201D01*
X29000000Y-20365000D01*
X20000000Y-20365000D01*
X19876118Y-20377201D01*
X19756996Y-20413336D01*
X19647213Y-20472017D01*
X19550987Y-20550987D01*
X18550987Y-21550987D01*
X18472017Y-21647213D01*
X18413336Y-21756996D01*
X18377201Y-21876118D01*
X18365000Y-22000000D01*
X660000Y-22000000D01*
X660000Y-20164740D01*
X6108964Y-20164740D01*
X6133245Y-20270087D01*
X6253138Y-20547204D01*
X6424790Y-20795606D01*
X6641604Y-21005748D01*
X6895249Y-21169554D01*
X7175977Y-21280729D01*
X7473000Y-21335000D01*
X8573000Y-21335000D01*
X8573000Y-19927000D01*
X8827000Y-19927000D01*
X8827000Y-21335000D01*
X9927000Y-21335000D01*
X10224023Y-21280729D01*
X10504751Y-21169554D01*
X10758396Y-21005748D01*
X10975210Y-20795606D01*
X11146862Y-20547204D01*
X11266755Y-20270087D01*
X11291036Y-20164740D01*
X11170378Y-19927000D01*
X8827000Y-19927000D01*
X8573000Y-19927000D01*
X6229622Y-19927000D01*
X6108964Y-20164740D01*
X660000Y-20164740D01*
X660000Y-19435260D01*
X6108964Y-19435260D01*
X6229622Y-19673000D01*
X8573000Y-19673000D01*
X8573000Y-18265000D01*
X7473000Y-18265000D01*
X7175977Y-18319271D01*
X6895249Y-18430446D01*
X6641604Y-18594252D01*
X6424790Y-18804394D01*
X6253138Y-19052796D01*
X6133245Y-19329913D01*
X6108964Y-19435260D01*
X660000Y-19435260D01*
X660000Y-15127000D01*
X4365000Y-15127000D01*
X4365000Y-16227000D01*
X4419271Y-16524023D01*
X4530446Y-16804751D01*
X4694252Y-17058396D01*
X4904394Y-17275210D01*
X5152796Y-17446862D01*
X5429913Y-17566755D01*
X5535260Y-17591036D01*
X5773000Y-17470378D01*
X5773000Y-15127000D01*
X6027000Y-15127000D01*
X6027000Y-17470378D01*
X6264740Y-17591036D01*
X6370087Y-17566755D01*
X6647204Y-17446862D01*
X6895606Y-17275210D01*
X7105748Y-17058396D01*
X7269554Y-16804751D01*
X7380729Y-16524023D01*
X7435000Y-16227000D01*
X7435000Y-15127000D01*
X6027000Y-15127000D01*
X5773000Y-15127000D01*
X4365000Y-15127000D01*
X660000Y-15127000D01*
X660000Y-13773000D01*
X4365000Y-13773000D01*
X4365000Y-14873000D01*
X5773000Y-14873000D01*
X5773000Y-12529622D01*
X6027000Y-12529622D01*
X6027000Y-14873000D01*
X7435000Y-14873000D01*
X7435000Y-13773000D01*
X7380729Y-13475977D01*
X7269554Y-13195249D01*
X7105748Y-12941604D01*
X6895606Y-12724790D01*
X6647204Y-12553138D01*
X6370087Y-12433245D01*
X6264740Y-12408964D01*
X6027000Y-12529622D01*
X5773000Y-12529622D01*
X5535260Y-12408964D01*
X5429913Y-12433245D01*
X5152796Y-12553138D01*
X4904394Y-12724790D01*
X4694252Y-12941604D01*
X4530446Y-13195249D01*
X4419271Y-13475977D01*
X4365000Y-13773000D01*
X660000Y-13773000D01*
X660000Y-7452033D01*
X2727572Y-7452033D01*
X3045757Y-7905850D01*
X3650210Y-8231269D01*
X4306535Y-8432512D01*
X4989510Y-8501845D01*
X5672888Y-8436605D01*
X6330407Y-8239298D01*
X6936799Y-7917506D01*
X6954243Y-7905850D01*
X7272428Y-7452033D01*
X5000000Y-5179605D01*
X2727572Y-7452033D01*
X660000Y-7452033D01*
X660000Y-4989510D01*
X1498155Y-4989510D01*
X1563395Y-5672888D01*
X1760702Y-6330407D01*
X2082494Y-6936799D01*
X2094150Y-6954243D01*
X2547967Y-7272428D01*
X4820395Y-5000000D01*
X5179605Y-5000000D01*
X7452033Y-7272428D01*
X7905850Y-6954243D01*
X8231269Y-6349790D01*
X8432512Y-5693465D01*
X8501845Y-5010490D01*
X8436605Y-4327112D01*
X8239298Y-3669593D01*
X7917506Y-3063201D01*
X7905850Y-3045757D01*
X7452033Y-2727572D01*
X5179605Y-5000000D01*
X4820395Y-5000000D01*
X2547967Y-2727572D01*
X2094150Y-3045757D01*
X1768731Y-3650210D01*
X1567488Y-4306535D01*
X1498155Y-4989510D01*
X660000Y-4989510D01*
X660000Y-3273380D01*
X1385413Y-2547967D01*
X2727572Y-2547967D01*
X5000000Y-4820395D01*
X7272428Y-2547967D01*
X6954243Y-2094150D01*
X6349790Y-1768731D01*
X5693465Y-1567488D01*
X5010490Y-1498155D01*
X4327112Y-1563395D01*
X3669593Y-1760702D01*
X3063201Y-2082494D01*
X3045757Y-2094150D01*
X2727572Y-2547967D01*
X1385413Y-2547967D01*
X3273381Y-660000D01*
X16465182Y-660000D01*
X16413336Y-756996D01*
G37*
X16413336Y-756996D02*
X16377201Y-876118D01*
X16365000Y-1000000D01*
X16365000Y-11365000D01*
X10000000Y-11365000D01*
X9876118Y-11377201D01*
X9756996Y-11413336D01*
X9647213Y-11472017D01*
X9550987Y-11550987D01*
X9472017Y-11647213D01*
X9413336Y-11756996D01*
X9377201Y-11876118D01*
X9365000Y-12000000D01*
X9365000Y-18000000D01*
X9377201Y-18123882D01*
X9413336Y-18243004D01*
X9425093Y-18265000D01*
X8827000Y-18265000D01*
X8827000Y-19673000D01*
X11170378Y-19673000D01*
X11291036Y-19435260D01*
X11266755Y-19329913D01*
X11146862Y-19052796D01*
X10975210Y-18804394D01*
X10800438Y-18635000D01*
X34500000Y-18635000D01*
X34623882Y-18622799D01*
X34743004Y-18586664D01*
X34852787Y-18527983D01*
X34949013Y-18449013D01*
X35027983Y-18352787D01*
X35086664Y-18243004D01*
X35122799Y-18123882D01*
X35135000Y-18000000D01*
X35135000Y-7452033D01*
X66727572Y-7452033D01*
X67045757Y-7905850D01*
X67650210Y-8231269D01*
X68306535Y-8432512D01*
X68989510Y-8501845D01*
X69672888Y-8436605D01*
X70330407Y-8239298D01*
X70936799Y-7917506D01*
X70954243Y-7905850D01*
X71272428Y-7452033D01*
X69000000Y-5179605D01*
X66727572Y-7452033D01*
X35135000Y-7452033D01*
X35135000Y-4989510D01*
X65498155Y-4989510D01*
X65563395Y-5672888D01*
X65760702Y-6330407D01*
X66082494Y-6936799D01*
X66094150Y-6954243D01*
X66547967Y-7272428D01*
X68820395Y-5000000D01*
X69179605Y-5000000D01*
X71452033Y-7272428D01*
X71905850Y-6954243D01*
X72231269Y-6349790D01*
X72432512Y-5693465D01*
X72501845Y-5010490D01*
X72436605Y-4327112D01*
X72239298Y-3669593D01*
X71917506Y-3063201D01*
X71905850Y-3045757D01*
X71452033Y-2727572D01*
X69179605Y-5000000D01*
X68820395Y-5000000D01*
X66547967Y-2727572D01*
X66094150Y-3045757D01*
X65768731Y-3650210D01*
X65567488Y-4306535D01*
X65498155Y-4989510D01*
X35135000Y-4989510D01*
X35135000Y-2547967D01*
X66727572Y-2547967D01*
X69000000Y-4820395D01*
X71272428Y-2547967D01*
X70954243Y-2094150D01*
X70349790Y-1768731D01*
X69693465Y-1567488D01*
X69010490Y-1498155D01*
X68327112Y-1563395D01*
X67669593Y-1760702D01*
X67063201Y-2082494D01*
X67045757Y-2094150D01*
X66727572Y-2547967D01*
X35135000Y-2547967D01*
X35135000Y-1000000D01*
X35122799Y-876118D01*
X35086664Y-756996D01*
X35034818Y-660000D01*
X70726620Y-660000D01*
X73340001Y-3273382D01*
X73340000Y-50726619D01*
X70726620Y-53340000D01*
X3273381Y-53340000D01*
X1385414Y-51452033D01*
X2727572Y-51452033D01*
X3045757Y-51905850D01*
X3650210Y-52231269D01*
X4306535Y-52432512D01*
X4989510Y-52501845D01*
X5672888Y-52436605D01*
X6330407Y-52239298D01*
X6936799Y-51917506D01*
X6954243Y-51905850D01*
X7272428Y-51452033D01*
X66727572Y-51452033D01*
X67045757Y-51905850D01*
X67650210Y-52231269D01*
X68306535Y-52432512D01*
X68989510Y-52501845D01*
X69672888Y-52436605D01*
X70330407Y-52239298D01*
X70936799Y-51917506D01*
X70954243Y-51905850D01*
X71272428Y-51452033D01*
X69000000Y-49179605D01*
X66727572Y-51452033D01*
X7272428Y-51452033D01*
X5000000Y-49179605D01*
X2727572Y-51452033D01*
X1385414Y-51452033D01*
X660000Y-50726620D01*
X660000Y-48989510D01*
X1498155Y-48989510D01*
X1563395Y-49672888D01*
X1760702Y-50330407D01*
X2082494Y-50936799D01*
X2094150Y-50954243D01*
X2547967Y-51272428D01*
X4820395Y-49000000D01*
X5179605Y-49000000D01*
X7452033Y-51272428D01*
X7905850Y-50954243D01*
X8231269Y-50349790D01*
X8432512Y-49693465D01*
X8501845Y-49010490D01*
X8436605Y-48327112D01*
X8239298Y-47669593D01*
X7917506Y-47063201D01*
X7905850Y-47045757D01*
X7452033Y-46727572D01*
X5179605Y-49000000D01*
X4820395Y-49000000D01*
X2547967Y-46727572D01*
X2094150Y-47045757D01*
X1768731Y-47650210D01*
X1567488Y-48306535D01*
X1498155Y-48989510D01*
X660000Y-48989510D01*
X660000Y-46547967D01*
X2727572Y-46547967D01*
X5000000Y-48820395D01*
X7272428Y-46547967D01*
X6954243Y-46094150D01*
X6349790Y-45768731D01*
X5693465Y-45567488D01*
X5010490Y-45498155D01*
X4327112Y-45563395D01*
X3669593Y-45760702D01*
X3063201Y-46082494D01*
X3045757Y-46094150D01*
X2727572Y-46547967D01*
X660000Y-46547967D01*
X660000Y-40878363D01*
X765000Y-40878363D01*
X765000Y-41121637D01*
X812460Y-41360236D01*
X905557Y-41584992D01*
X1040713Y-41787267D01*
X1212733Y-41959287D01*
X1415008Y-42094443D01*
X1639764Y-42187540D01*
X1878363Y-42235000D01*
X2121637Y-42235000D01*
X2360236Y-42187540D01*
X2584992Y-42094443D01*
X2787267Y-41959287D01*
X2959287Y-41787267D01*
X3094443Y-41584992D01*
X3187540Y-41360236D01*
X3235000Y-41121637D01*
X3235000Y-40878363D01*
X3265000Y-40878363D01*
X3265000Y-41121637D01*
X3312460Y-41360236D01*
X3405557Y-41584992D01*
X3540713Y-41787267D01*
X3712733Y-41959287D01*
X3915008Y-42094443D01*
X4139764Y-42187540D01*
X4378363Y-42235000D01*
X4621637Y-42235000D01*
X4860236Y-42187540D01*
X5084992Y-42094443D01*
X5287267Y-41959287D01*
X5459287Y-41787267D01*
X5594443Y-41584992D01*
X5687540Y-41360236D01*
X5735000Y-41121637D01*
X5735000Y-40878363D01*
X5687540Y-40639764D01*
X5594443Y-40415008D01*
X5459287Y-40212733D01*
X5287267Y-40040713D01*
X5084992Y-39905557D01*
X4860236Y-39812460D01*
X4621637Y-39765000D01*
X4378363Y-39765000D01*
X4139764Y-39812460D01*
X3915008Y-39905557D01*
X3712733Y-40040713D01*
X3540713Y-40212733D01*
X3405557Y-40415008D01*
X3312460Y-40639764D01*
X3265000Y-40878363D01*
X3235000Y-40878363D01*
X3187540Y-40639764D01*
X3094443Y-40415008D01*
X2959287Y-40212733D01*
X2787267Y-40040713D01*
X2584992Y-39905557D01*
X2360236Y-39812460D01*
X2121637Y-39765000D01*
X1878363Y-39765000D01*
X1639764Y-39812460D01*
X1415008Y-39905557D01*
X1212733Y-40040713D01*
X1040713Y-40212733D01*
X905557Y-40415008D01*
X812460Y-40639764D01*
X765000Y-40878363D01*
X660000Y-40878363D01*
X660000Y-35479509D01*
X3065000Y-35479509D01*
X3065000Y-36520492D01*
X3085764Y-36731309D01*
X3167818Y-37001808D01*
X3301068Y-37251101D01*
X3480393Y-37469608D01*
X3698900Y-37648932D01*
X3948193Y-37782182D01*
X4218692Y-37864236D01*
X4500000Y-37891943D01*
X4781309Y-37864236D01*
X5051808Y-37782182D01*
X5301101Y-37648932D01*
X5519608Y-37469608D01*
X5698932Y-37251101D01*
X5832182Y-37001808D01*
X5914236Y-36731309D01*
X5935000Y-36520491D01*
X5935000Y-35479508D01*
X5914236Y-35268691D01*
X5832182Y-34998192D01*
X5698932Y-34748899D01*
X5519607Y-34530392D01*
X5301100Y-34351068D01*
X5051807Y-34217818D01*
X4781308Y-34135764D01*
X4500000Y-34108057D01*
X4218691Y-34135764D01*
X3948192Y-34217818D01*
X3698899Y-34351068D01*
X3480392Y-34530393D01*
X3301068Y-34748900D01*
X3167818Y-34998193D01*
X3085764Y-35268692D01*
X3065000Y-35479509D01*
X660000Y-35479509D01*
X660000Y-30878363D01*
X765000Y-30878363D01*
X765000Y-31121637D01*
X812460Y-31360236D01*
X905557Y-31584992D01*
X1040713Y-31787267D01*
X1212733Y-31959287D01*
X1415008Y-32094443D01*
X1639764Y-32187540D01*
X1878363Y-32235000D01*
X2121637Y-32235000D01*
X2360236Y-32187540D01*
X2584992Y-32094443D01*
X2787267Y-31959287D01*
X2959287Y-31787267D01*
X3094443Y-31584992D01*
X3187540Y-31360236D01*
X3235000Y-31121637D01*
X3235000Y-30878363D01*
X3265000Y-30878363D01*
X3265000Y-31121637D01*
X3312460Y-31360236D01*
X3405557Y-31584992D01*
X3540713Y-31787267D01*
X3712733Y-31959287D01*
X3915008Y-32094443D01*
X4139764Y-32187540D01*
X4378363Y-32235000D01*
X4621637Y-32235000D01*
X4860236Y-32187540D01*
X5084992Y-32094443D01*
X5287267Y-31959287D01*
X5459287Y-31787267D01*
X5594443Y-31584992D01*
X5687540Y-31360236D01*
X5735000Y-31121637D01*
X5735000Y-31000000D01*
X7608057Y-31000000D01*
X7635764Y-31281309D01*
X7717818Y-31551808D01*
X7851068Y-31801101D01*
X8030392Y-32019608D01*
X8248899Y-32198932D01*
X8344440Y-32250000D01*
X8248899Y-32301068D01*
X8030392Y-32480392D01*
X7851068Y-32698899D01*
X7717818Y-32948192D01*
X7635764Y-33218691D01*
X7608057Y-33500000D01*
X7635764Y-33781309D01*
X7717818Y-34051808D01*
X7851068Y-34301101D01*
X8030392Y-34519608D01*
X8248899Y-34698932D01*
X8498192Y-34832182D01*
X8768691Y-34914236D01*
X8884891Y-34925681D01*
X8712733Y-35040713D01*
X8540713Y-35212733D01*
X8405557Y-35415008D01*
X8312460Y-35639764D01*
X8265000Y-35878363D01*
X8265000Y-36121637D01*
X8312460Y-36360236D01*
X8405557Y-36584992D01*
X8540713Y-36787267D01*
X8712733Y-36959287D01*
X8884891Y-37074319D01*
X8768691Y-37085764D01*
X8498192Y-37167818D01*
X8248899Y-37301068D01*
X8030392Y-37480392D01*
X7851068Y-37698899D01*
X7717818Y-37948192D01*
X7635764Y-38218691D01*
X7608057Y-38500000D01*
X7635764Y-38781309D01*
X7717818Y-39051808D01*
X7851068Y-39301101D01*
X8030392Y-39519608D01*
X8248899Y-39698932D01*
X8344440Y-39750000D01*
X8248899Y-39801068D01*
X8030392Y-39980392D01*
X7851068Y-40198899D01*
X7717818Y-40448192D01*
X7635764Y-40718691D01*
X7608057Y-41000000D01*
X7635764Y-41281309D01*
X7717818Y-41551808D01*
X7851068Y-41801101D01*
X8030392Y-42019608D01*
X8248899Y-42198932D01*
X8498192Y-42332182D01*
X8768691Y-42414236D01*
X8979508Y-42435000D01*
X10020492Y-42435000D01*
X10231309Y-42414236D01*
X10501808Y-42332182D01*
X10751101Y-42198932D01*
X10969608Y-42019608D01*
X11148932Y-41801101D01*
X11282182Y-41551808D01*
X11364236Y-41281309D01*
X11391943Y-41000000D01*
X11364236Y-40718691D01*
X11282182Y-40448192D01*
X11148932Y-40198899D01*
X10969608Y-39980392D01*
X10751101Y-39801068D01*
X10655560Y-39750000D01*
X10751101Y-39698932D01*
X10969608Y-39519608D01*
X11148932Y-39301101D01*
X11282182Y-39051808D01*
X11364236Y-38781309D01*
X11391943Y-38500000D01*
X11364236Y-38218691D01*
X11282182Y-37948192D01*
X11148932Y-37698899D01*
X10969608Y-37480392D01*
X10751101Y-37301068D01*
X10501808Y-37167818D01*
X10231309Y-37085764D01*
X10115109Y-37074319D01*
X10287267Y-36959287D01*
X10459287Y-36787267D01*
X10594443Y-36584992D01*
X10687540Y-36360236D01*
X10735000Y-36121637D01*
X10735000Y-35878363D01*
X10687540Y-35639764D01*
X10594443Y-35415008D01*
X10459287Y-35212733D01*
X10287267Y-35040713D01*
X10115109Y-34925681D01*
X10231309Y-34914236D01*
X10501808Y-34832182D01*
X10751101Y-34698932D01*
X10969608Y-34519608D01*
X11148932Y-34301101D01*
X11282182Y-34051808D01*
X11364236Y-33781309D01*
X11391943Y-33500000D01*
X11364236Y-33218691D01*
X11282182Y-32948192D01*
X11148932Y-32698899D01*
X10969608Y-32480392D01*
X10751101Y-32301068D01*
X10655560Y-32250000D01*
X10751101Y-32198932D01*
X10969608Y-32019608D01*
X11080078Y-31885000D01*
X12933422Y-31885000D01*
X14015001Y-32966580D01*
X14015000Y-40761546D01*
X13982795Y-40809744D01*
X13904774Y-40998102D01*
X13865000Y-41198061D01*
X13865000Y-41401939D01*
X13904774Y-41601898D01*
X13982795Y-41790256D01*
X14096063Y-41959774D01*
X14240226Y-42103937D01*
X14409744Y-42217205D01*
X14598102Y-42295226D01*
X14798061Y-42335000D01*
X15001939Y-42335000D01*
X15201898Y-42295226D01*
X15390256Y-42217205D01*
X15559774Y-42103937D01*
X15703937Y-41959774D01*
X15817205Y-41790256D01*
X15895226Y-41601898D01*
X15935000Y-41401939D01*
X15935000Y-41198061D01*
X15895226Y-40998102D01*
X15817205Y-40809744D01*
X15785000Y-40761546D01*
X15785000Y-32643469D01*
X15789281Y-32600000D01*
X15785000Y-32556531D01*
X15785000Y-32556523D01*
X15772195Y-32426510D01*
X15721589Y-32259687D01*
X15639411Y-32105941D01*
X15528817Y-31971183D01*
X15495049Y-31943470D01*
X13956534Y-30404956D01*
X13928817Y-30371183D01*
X13794059Y-30260589D01*
X13640313Y-30178411D01*
X13473490Y-30127805D01*
X13343477Y-30115000D01*
X13343469Y-30115000D01*
X13300000Y-30110719D01*
X13256531Y-30115000D01*
X11080078Y-30115000D01*
X10969608Y-29980392D01*
X10869288Y-29898061D01*
X20165000Y-29898061D01*
X20165000Y-30101939D01*
X20204774Y-30301898D01*
X20282795Y-30490256D01*
X20315000Y-30538454D01*
X20315001Y-43156521D01*
X20310719Y-43200000D01*
X20327805Y-43373490D01*
X20378412Y-43540313D01*
X20460590Y-43694059D01*
X20543468Y-43795046D01*
X20543471Y-43795049D01*
X20571184Y-43828817D01*
X20604951Y-43856529D01*
X21843470Y-45095049D01*
X21871183Y-45128817D01*
X21904951Y-45156530D01*
X21904953Y-45156532D01*
X22005941Y-45239411D01*
X22159686Y-45321589D01*
X22288254Y-45360590D01*
X22326510Y-45372195D01*
X22456523Y-45385000D01*
X22456531Y-45385000D01*
X22500000Y-45389281D01*
X22543469Y-45385000D01*
X32256531Y-45385000D01*
X32300000Y-45389281D01*
X32343469Y-45385000D01*
X32343477Y-45385000D01*
X32473490Y-45372195D01*
X32640313Y-45321589D01*
X32794059Y-45239411D01*
X32928817Y-45128817D01*
X32956534Y-45095044D01*
X33445044Y-44606535D01*
X33501898Y-44595226D01*
X33690256Y-44517205D01*
X33859774Y-44403937D01*
X34003937Y-44259774D01*
X34117205Y-44090256D01*
X34195226Y-43901898D01*
X34235000Y-43701939D01*
X34235000Y-43498061D01*
X34195226Y-43298102D01*
X34117205Y-43109744D01*
X34003937Y-42940226D01*
X33859774Y-42796063D01*
X33690256Y-42682795D01*
X33501898Y-42604774D01*
X33301939Y-42565000D01*
X33098061Y-42565000D01*
X32898102Y-42604774D01*
X32709744Y-42682795D01*
X32540226Y-42796063D01*
X32396063Y-42940226D01*
X32282795Y-43109744D01*
X32204774Y-43298102D01*
X32193465Y-43354956D01*
X31933422Y-43615000D01*
X22866579Y-43615000D01*
X22085000Y-42833422D01*
X22085000Y-41398061D01*
X28965000Y-41398061D01*
X28965000Y-41601939D01*
X29004774Y-41801898D01*
X29082795Y-41990256D01*
X29196063Y-42159774D01*
X29340226Y-42303937D01*
X29509744Y-42417205D01*
X29698102Y-42495226D01*
X29898061Y-42535000D01*
X30101939Y-42535000D01*
X30287645Y-42498061D01*
X37365006Y-42498061D01*
X37365006Y-42701939D01*
X37404780Y-42901898D01*
X37482801Y-43090256D01*
X37596069Y-43259774D01*
X37740232Y-43403937D01*
X37909750Y-43517205D01*
X38098108Y-43595226D01*
X38298067Y-43635000D01*
X38501945Y-43635000D01*
X38701904Y-43595226D01*
X38890262Y-43517205D01*
X39059780Y-43403937D01*
X39203943Y-43259774D01*
X39317211Y-43090256D01*
X39395232Y-42901898D01*
X39406541Y-42845043D01*
X40195049Y-42056536D01*
X40228817Y-42028823D01*
X40257348Y-41994059D01*
X40339411Y-41894065D01*
X40387137Y-41804774D01*
X40421589Y-41740319D01*
X40472195Y-41573496D01*
X40485000Y-41443483D01*
X40485000Y-41443475D01*
X40489281Y-41400006D01*
X40485000Y-41356537D01*
X40485000Y-31398061D01*
X41465000Y-31398061D01*
X41465000Y-31601939D01*
X41504774Y-31801898D01*
X41582795Y-31990256D01*
X41615000Y-32038454D01*
X41615001Y-46056521D01*
X41610719Y-46100000D01*
X41627805Y-46273490D01*
X41678412Y-46440313D01*
X41760590Y-46594059D01*
X41843468Y-46695046D01*
X41843471Y-46695049D01*
X41871184Y-46728817D01*
X41904951Y-46756529D01*
X42543470Y-47395049D01*
X42571183Y-47428817D01*
X42604951Y-47456530D01*
X42604953Y-47456532D01*
X42676452Y-47515210D01*
X42705941Y-47539411D01*
X42859687Y-47621589D01*
X43026510Y-47672195D01*
X43156523Y-47685000D01*
X43156533Y-47685000D01*
X43199999Y-47689281D01*
X43243465Y-47685000D01*
X65156531Y-47685000D01*
X65200000Y-47689281D01*
X65243469Y-47685000D01*
X65243477Y-47685000D01*
X65373490Y-47672195D01*
X65540313Y-47621589D01*
X65694059Y-47539411D01*
X65828817Y-47428817D01*
X65856534Y-47395044D01*
X65963915Y-47287663D01*
X65768731Y-47650210D01*
X65567488Y-48306535D01*
X65498155Y-48989510D01*
X65563395Y-49672888D01*
X65760702Y-50330407D01*
X66082494Y-50936799D01*
X66094150Y-50954243D01*
X66547967Y-51272428D01*
X68820395Y-49000000D01*
X69179605Y-49000000D01*
X71452033Y-51272428D01*
X71905850Y-50954243D01*
X72231269Y-50349790D01*
X72432512Y-49693465D01*
X72501845Y-49010490D01*
X72436605Y-48327112D01*
X72239298Y-47669593D01*
X71917506Y-47063201D01*
X71905850Y-47045757D01*
X71452033Y-46727572D01*
X69179605Y-49000000D01*
X68820395Y-49000000D01*
X68806253Y-48985858D01*
X68985858Y-48806253D01*
X69000000Y-48820395D01*
X71272428Y-46547967D01*
X70954243Y-46094150D01*
X70349790Y-45768731D01*
X69693465Y-45567488D01*
X69010490Y-45498155D01*
X68327112Y-45563395D01*
X67669593Y-45760702D01*
X67288804Y-45962774D01*
X71840051Y-41411528D01*
X71873817Y-41383817D01*
X71906924Y-41343477D01*
X71984410Y-41249060D01*
X71984411Y-41249059D01*
X72066589Y-41095313D01*
X72117195Y-40928490D01*
X72130000Y-40798477D01*
X72130000Y-40798469D01*
X72134281Y-40755000D01*
X72130000Y-40711531D01*
X72130000Y-37504790D01*
X72223505Y-37442312D01*
X72437312Y-37228505D01*
X72605299Y-36977095D01*
X72721011Y-36697743D01*
X72780000Y-36401184D01*
X72780000Y-36098816D01*
X72721011Y-35802257D01*
X72605299Y-35522905D01*
X72437312Y-35271495D01*
X72223505Y-35057688D01*
X71972095Y-34889701D01*
X71692743Y-34773989D01*
X71396184Y-34715000D01*
X71093816Y-34715000D01*
X70797257Y-34773989D01*
X70517905Y-34889701D01*
X70266495Y-35057688D01*
X70052688Y-35271495D01*
X69884701Y-35522905D01*
X69768989Y-35802257D01*
X69727998Y-36008335D01*
X69600515Y-35923153D01*
X69275665Y-35788596D01*
X68930807Y-35720000D01*
X68579193Y-35720000D01*
X68234335Y-35788596D01*
X67909485Y-35923153D01*
X67617129Y-36118500D01*
X67560000Y-36175629D01*
X67560000Y-34535000D01*
X67601949Y-34535000D01*
X67801908Y-34495226D01*
X67990266Y-34417205D01*
X68159784Y-34303937D01*
X68303947Y-34159774D01*
X68417215Y-33990256D01*
X68495236Y-33801898D01*
X68535010Y-33601939D01*
X68535010Y-33398061D01*
X68495236Y-33198102D01*
X68417215Y-33009744D01*
X68303947Y-32840226D01*
X68277801Y-32814080D01*
X70360525Y-32814080D01*
X70444208Y-33068261D01*
X70716775Y-33199158D01*
X71009642Y-33274365D01*
X71311553Y-33290991D01*
X71610907Y-33248397D01*
X71896199Y-33148222D01*
X72045792Y-33068261D01*
X72129475Y-32814080D01*
X71245000Y-31929605D01*
X70360525Y-32814080D01*
X68277801Y-32814080D01*
X68159784Y-32696063D01*
X67990266Y-32582795D01*
X67801908Y-32504774D01*
X67601949Y-32465000D01*
X67398071Y-32465000D01*
X67198112Y-32504774D01*
X67009754Y-32582795D01*
X66840236Y-32696063D01*
X66760000Y-32776299D01*
X66760000Y-30319193D01*
X66970000Y-30319193D01*
X66970000Y-30670807D01*
X67038596Y-31015665D01*
X67173153Y-31340515D01*
X67368500Y-31632871D01*
X67617129Y-31881500D01*
X67909485Y-32076847D01*
X68234335Y-32211404D01*
X68579193Y-32280000D01*
X68930807Y-32280000D01*
X69275665Y-32211404D01*
X69600515Y-32076847D01*
X69728845Y-31991099D01*
X69746603Y-32115907D01*
X69846778Y-32401199D01*
X69926739Y-32550792D01*
X70180920Y-32634475D01*
X71065395Y-31750000D01*
X71424605Y-31750000D01*
X72309080Y-32634475D01*
X72563261Y-32550792D01*
X72694158Y-32278225D01*
X72769365Y-31985358D01*
X72785991Y-31683447D01*
X72743397Y-31384093D01*
X72643222Y-31098801D01*
X72563261Y-30949208D01*
X72309080Y-30865525D01*
X71424605Y-31750000D01*
X71065395Y-31750000D01*
X71051253Y-31735858D01*
X71230858Y-31556253D01*
X71245000Y-31570395D01*
X72129475Y-30685920D01*
X72045792Y-30431739D01*
X71773225Y-30300842D01*
X71480358Y-30225635D01*
X71178447Y-30209009D01*
X70879093Y-30251603D01*
X70593801Y-30351778D01*
X70540000Y-30380536D01*
X70540000Y-30319193D01*
X70471404Y-29974335D01*
X70336847Y-29649485D01*
X70141500Y-29357129D01*
X69892871Y-29108500D01*
X69600515Y-28913153D01*
X69275665Y-28778596D01*
X68930807Y-28710000D01*
X68579193Y-28710000D01*
X68234335Y-28778596D01*
X67909485Y-28913153D01*
X67617129Y-29108500D01*
X67368500Y-29357129D01*
X67173153Y-29649485D01*
X67038596Y-29974335D01*
X66970000Y-30319193D01*
X66760000Y-30319193D01*
X66760000Y-23037323D01*
X66763676Y-23000000D01*
X66760000Y-22962677D01*
X66760000Y-22962667D01*
X66749003Y-22851014D01*
X66705546Y-22707753D01*
X66700387Y-22698102D01*
X66634974Y-22575723D01*
X66563799Y-22488997D01*
X66540001Y-22459999D01*
X66511003Y-22436201D01*
X65403995Y-21329193D01*
X66970000Y-21329193D01*
X66970000Y-21680807D01*
X67038596Y-22025665D01*
X67173153Y-22350515D01*
X67368500Y-22642871D01*
X67617129Y-22891500D01*
X67909485Y-23086847D01*
X68234335Y-23221404D01*
X68579193Y-23290000D01*
X68930807Y-23290000D01*
X69275665Y-23221404D01*
X69600515Y-23086847D01*
X69892871Y-22891500D01*
X70141500Y-22642871D01*
X70336847Y-22350515D01*
X70471404Y-22025665D01*
X70540000Y-21680807D01*
X70540000Y-21619451D01*
X70797257Y-21726011D01*
X71093816Y-21785000D01*
X71396184Y-21785000D01*
X71692743Y-21726011D01*
X71972095Y-21610299D01*
X72223505Y-21442312D01*
X72437312Y-21228505D01*
X72605299Y-20977095D01*
X72721011Y-20697743D01*
X72780000Y-20401184D01*
X72780000Y-20098816D01*
X72721011Y-19802257D01*
X72605299Y-19522905D01*
X72437312Y-19271495D01*
X72223505Y-19057688D01*
X71972095Y-18889701D01*
X71692743Y-18773989D01*
X71396184Y-18715000D01*
X71093816Y-18715000D01*
X70797257Y-18773989D01*
X70517905Y-18889701D01*
X70266495Y-19057688D01*
X70052688Y-19271495D01*
X69884701Y-19522905D01*
X69768989Y-19802257D01*
X69727998Y-20008335D01*
X69600515Y-19923153D01*
X69275665Y-19788596D01*
X68930807Y-19720000D01*
X68579193Y-19720000D01*
X68234335Y-19788596D01*
X67909485Y-19923153D01*
X67617129Y-20118500D01*
X67368500Y-20367129D01*
X67173153Y-20659485D01*
X67038596Y-20984335D01*
X66970000Y-21329193D01*
X65403995Y-21329193D01*
X60888882Y-16814080D01*
X70360525Y-16814080D01*
X70444208Y-17068261D01*
X70716775Y-17199158D01*
X71009642Y-17274365D01*
X71311553Y-17290991D01*
X71610907Y-17248397D01*
X71896199Y-17148222D01*
X72045792Y-17068261D01*
X72129475Y-16814080D01*
X71245000Y-15929605D01*
X70360525Y-16814080D01*
X60888882Y-16814080D01*
X59563804Y-15489003D01*
X59540001Y-15459999D01*
X59424276Y-15365026D01*
X59292247Y-15294454D01*
X59148986Y-15250997D01*
X59037333Y-15240000D01*
X59037322Y-15240000D01*
X59000000Y-15236324D01*
X58962678Y-15240000D01*
X55537322Y-15240000D01*
X55499999Y-15236324D01*
X55462676Y-15240000D01*
X55462667Y-15240000D01*
X55351014Y-15250997D01*
X55207753Y-15294454D01*
X55075724Y-15365026D01*
X54959999Y-15459999D01*
X54936201Y-15488998D01*
X54239002Y-16186197D01*
X54209999Y-16209999D01*
X54154871Y-16277174D01*
X54115026Y-16325724D01*
X54062348Y-16424277D01*
X54044454Y-16457754D01*
X54000997Y-16601015D01*
X53990000Y-16712668D01*
X53990000Y-16712678D01*
X53986324Y-16750000D01*
X53990000Y-16787323D01*
X53990001Y-17546288D01*
X53946063Y-17590226D01*
X53832795Y-17759744D01*
X53754774Y-17948102D01*
X53715000Y-18148061D01*
X53715000Y-18351939D01*
X53754774Y-18551898D01*
X53832795Y-18740256D01*
X53946063Y-18909774D01*
X54090226Y-19053937D01*
X54259744Y-19167205D01*
X54448102Y-19245226D01*
X54648061Y-19285000D01*
X54851939Y-19285000D01*
X55051898Y-19245226D01*
X55240256Y-19167205D01*
X55409774Y-19053937D01*
X55553937Y-18909774D01*
X55667205Y-18740256D01*
X55745226Y-18551898D01*
X55785000Y-18351939D01*
X55785000Y-18148061D01*
X55745226Y-17948102D01*
X55721974Y-17891968D01*
X55759744Y-17917205D01*
X55948102Y-17995226D01*
X56148061Y-18035000D01*
X56210199Y-18035000D01*
X63614571Y-25439374D01*
X63509744Y-25482795D01*
X63340226Y-25596063D01*
X63196063Y-25740226D01*
X63082795Y-25909744D01*
X63004774Y-26098102D01*
X62965000Y-26298061D01*
X62965000Y-26501939D01*
X63004774Y-26701898D01*
X63082795Y-26890256D01*
X63115000Y-26938454D01*
X63115001Y-34033420D01*
X61833422Y-35315000D01*
X57393217Y-35315000D01*
X57409774Y-35303937D01*
X57553937Y-35159774D01*
X57667205Y-34990256D01*
X57745226Y-34801898D01*
X57785000Y-34601939D01*
X57785000Y-34398061D01*
X57745226Y-34198102D01*
X57667205Y-34009744D01*
X57635000Y-33961546D01*
X57635000Y-23793469D01*
X57639281Y-23750000D01*
X57635000Y-23706531D01*
X57635000Y-23706523D01*
X57622195Y-23576510D01*
X57609603Y-23535000D01*
X57571589Y-23409686D01*
X57489411Y-23255941D01*
X57406532Y-23154953D01*
X57406530Y-23154951D01*
X57378817Y-23121183D01*
X57345049Y-23093470D01*
X56756535Y-22504957D01*
X56745226Y-22448102D01*
X56667205Y-22259744D01*
X56553937Y-22090226D01*
X56409774Y-21946063D01*
X56240256Y-21832795D01*
X56051898Y-21754774D01*
X55851939Y-21715000D01*
X55648061Y-21715000D01*
X55448102Y-21754774D01*
X55259744Y-21832795D01*
X55090226Y-21946063D01*
X54946063Y-22090226D01*
X54832795Y-22259744D01*
X54754774Y-22448102D01*
X54715000Y-22648061D01*
X54715000Y-22851939D01*
X54754774Y-23051898D01*
X54832795Y-23240256D01*
X54946063Y-23409774D01*
X55090226Y-23553937D01*
X55259744Y-23667205D01*
X55448102Y-23745226D01*
X55504957Y-23756535D01*
X55865001Y-24116580D01*
X55865000Y-33961546D01*
X55832795Y-34009744D01*
X55754774Y-34198102D01*
X55715000Y-34398061D01*
X55715000Y-34601939D01*
X55754774Y-34801898D01*
X55832795Y-34990256D01*
X55946063Y-35159774D01*
X56090226Y-35303937D01*
X56106783Y-35315000D01*
X55443469Y-35315000D01*
X55400000Y-35310719D01*
X55356531Y-35315000D01*
X55356523Y-35315000D01*
X55241306Y-35326348D01*
X55226509Y-35327805D01*
X55175903Y-35343157D01*
X55059687Y-35378411D01*
X54905941Y-35460589D01*
X54905939Y-35460590D01*
X54905940Y-35460590D01*
X54804953Y-35543468D01*
X54804951Y-35543470D01*
X54771183Y-35571183D01*
X54743470Y-35604951D01*
X52004951Y-38343471D01*
X51971184Y-38371183D01*
X51961781Y-38382640D01*
X51995226Y-38301898D01*
X52035000Y-38101939D01*
X52035000Y-37898061D01*
X51995226Y-37698102D01*
X51917205Y-37509744D01*
X51885000Y-37461546D01*
X51885000Y-29385000D01*
X53461546Y-29385000D01*
X53509744Y-29417205D01*
X53698102Y-29495226D01*
X53898061Y-29535000D01*
X54101939Y-29535000D01*
X54301898Y-29495226D01*
X54490256Y-29417205D01*
X54659774Y-29303937D01*
X54803937Y-29159774D01*
X54917205Y-28990256D01*
X54995226Y-28801898D01*
X55035000Y-28601939D01*
X55035000Y-28398061D01*
X54995226Y-28198102D01*
X54917205Y-28009744D01*
X54803937Y-27840226D01*
X54659774Y-27696063D01*
X54490256Y-27582795D01*
X54301898Y-27504774D01*
X54101939Y-27465000D01*
X53898061Y-27465000D01*
X53698102Y-27504774D01*
X53509744Y-27582795D01*
X53461546Y-27615000D01*
X51543469Y-27615000D01*
X51500000Y-27610719D01*
X51456531Y-27615000D01*
X51456523Y-27615000D01*
X51326510Y-27627805D01*
X51159687Y-27678411D01*
X51005941Y-27760589D01*
X50871183Y-27871183D01*
X50843466Y-27904956D01*
X50404952Y-28343470D01*
X50371184Y-28371183D01*
X50343471Y-28404951D01*
X50343468Y-28404954D01*
X50260590Y-28505941D01*
X50178412Y-28659687D01*
X50127805Y-28826510D01*
X50110719Y-29000000D01*
X50115001Y-29043479D01*
X50115000Y-37461546D01*
X50082795Y-37509744D01*
X50004774Y-37698102D01*
X49965000Y-37898061D01*
X49965000Y-38101939D01*
X50004774Y-38301898D01*
X50082795Y-38490256D01*
X50196063Y-38659774D01*
X50340226Y-38803937D01*
X50509744Y-38917205D01*
X50698102Y-38995226D01*
X50898061Y-39035000D01*
X51101939Y-39035000D01*
X51301898Y-38995226D01*
X51490256Y-38917205D01*
X51659774Y-38803937D01*
X51767259Y-38696452D01*
X51727805Y-38826510D01*
X51710719Y-39000000D01*
X51715001Y-39043479D01*
X51715000Y-41661545D01*
X51682795Y-41709744D01*
X51604774Y-41898102D01*
X51565000Y-42098061D01*
X51565000Y-42301939D01*
X51604774Y-42501898D01*
X51682795Y-42690256D01*
X51796063Y-42859774D01*
X51940226Y-43003937D01*
X52109744Y-43117205D01*
X52298102Y-43195226D01*
X52498061Y-43235000D01*
X52701939Y-43235000D01*
X52901898Y-43195226D01*
X53090256Y-43117205D01*
X53259774Y-43003937D01*
X53403937Y-42859774D01*
X53517205Y-42690256D01*
X53595226Y-42501898D01*
X53635000Y-42301939D01*
X53635000Y-42098061D01*
X53595226Y-41898102D01*
X53517205Y-41709744D01*
X53485000Y-41661546D01*
X53485000Y-39366578D01*
X54650282Y-38201297D01*
X54649000Y-38207740D01*
X54649000Y-38500260D01*
X54706068Y-38787158D01*
X54818010Y-39057411D01*
X54980525Y-39300632D01*
X55187368Y-39507475D01*
X55361760Y-39624000D01*
X55187368Y-39740525D01*
X54980525Y-39947368D01*
X54818010Y-40190589D01*
X54706068Y-40460842D01*
X54649000Y-40747740D01*
X54649000Y-41040260D01*
X54706068Y-41327158D01*
X54818010Y-41597411D01*
X54980525Y-41840632D01*
X55187368Y-42047475D01*
X55374000Y-42172179D01*
X55374000Y-43096677D01*
X55370324Y-43134000D01*
X55374000Y-43171322D01*
X55374000Y-43171332D01*
X55384997Y-43282985D01*
X55412451Y-43373490D01*
X55428454Y-43426246D01*
X55499026Y-43558276D01*
X55533269Y-43600001D01*
X55593999Y-43674001D01*
X55623003Y-43697804D01*
X55936196Y-44010997D01*
X55959999Y-44040001D01*
X56075724Y-44134974D01*
X56207753Y-44205546D01*
X56351014Y-44249003D01*
X56462667Y-44260000D01*
X56462676Y-44260000D01*
X56499999Y-44263676D01*
X56537322Y-44260000D01*
X63992462Y-44260000D01*
X63965000Y-44398061D01*
X63965000Y-44601939D01*
X64004774Y-44801898D01*
X64082795Y-44990256D01*
X64196063Y-45159774D01*
X64340226Y-45303937D01*
X64509744Y-45417205D01*
X64698102Y-45495226D01*
X64898061Y-45535000D01*
X65101939Y-45535000D01*
X65241103Y-45507319D01*
X64833422Y-45915000D01*
X43566579Y-45915000D01*
X43385000Y-45733422D01*
X43385000Y-32038454D01*
X43417205Y-31990256D01*
X43495226Y-31801898D01*
X43506535Y-31745043D01*
X44595049Y-30656530D01*
X44628817Y-30628817D01*
X44663412Y-30586664D01*
X44739410Y-30494060D01*
X44739411Y-30494059D01*
X44821589Y-30340313D01*
X44872195Y-30173490D01*
X44885000Y-30043477D01*
X44885000Y-30043467D01*
X44889281Y-30000001D01*
X44885000Y-29956535D01*
X44885000Y-16788454D01*
X44917205Y-16740256D01*
X44995226Y-16551898D01*
X45035000Y-16351939D01*
X45035000Y-16148061D01*
X44995226Y-15948102D01*
X44917205Y-15759744D01*
X44803937Y-15590226D01*
X44659774Y-15446063D01*
X44490256Y-15332795D01*
X44301898Y-15254774D01*
X44101939Y-15215000D01*
X43898061Y-15215000D01*
X43698102Y-15254774D01*
X43509744Y-15332795D01*
X43340226Y-15446063D01*
X43196063Y-15590226D01*
X43082795Y-15759744D01*
X43004774Y-15948102D01*
X42965000Y-16148061D01*
X42965000Y-16351939D01*
X43004774Y-16551898D01*
X43082795Y-16740256D01*
X43115000Y-16788454D01*
X43115001Y-26456514D01*
X43115000Y-26456524D01*
X43115001Y-29633420D01*
X42254957Y-30493465D01*
X42198102Y-30504774D01*
X42009744Y-30582795D01*
X41840226Y-30696063D01*
X41696063Y-30840226D01*
X41582795Y-31009744D01*
X41504774Y-31198102D01*
X41465000Y-31398061D01*
X40485000Y-31398061D01*
X40485000Y-26443469D01*
X40489281Y-26400000D01*
X40485000Y-26356531D01*
X40485000Y-26356523D01*
X40472195Y-26226510D01*
X40421589Y-26059687D01*
X40339411Y-25905941D01*
X40273578Y-25825724D01*
X40256532Y-25804953D01*
X40256530Y-25804951D01*
X40228817Y-25771183D01*
X40195050Y-25743471D01*
X39806535Y-25354956D01*
X39795226Y-25298102D01*
X39717205Y-25109744D01*
X39685000Y-25061546D01*
X39685000Y-15338454D01*
X39717205Y-15290256D01*
X39795226Y-15101898D01*
X39835000Y-14901939D01*
X39835000Y-14698061D01*
X39795226Y-14498102D01*
X39721119Y-14319193D01*
X66970000Y-14319193D01*
X66970000Y-14670807D01*
X67038596Y-15015665D01*
X67173153Y-15340515D01*
X67368500Y-15632871D01*
X67617129Y-15881500D01*
X67909485Y-16076847D01*
X68234335Y-16211404D01*
X68579193Y-16280000D01*
X68930807Y-16280000D01*
X69275665Y-16211404D01*
X69600515Y-16076847D01*
X69728845Y-15991099D01*
X69746603Y-16115907D01*
X69846778Y-16401199D01*
X69926739Y-16550792D01*
X70180920Y-16634475D01*
X71065395Y-15750000D01*
X71424605Y-15750000D01*
X72309080Y-16634475D01*
X72563261Y-16550792D01*
X72694158Y-16278225D01*
X72769365Y-15985358D01*
X72785991Y-15683447D01*
X72743397Y-15384093D01*
X72643222Y-15098801D01*
X72563261Y-14949208D01*
X72309080Y-14865525D01*
X71424605Y-15750000D01*
X71065395Y-15750000D01*
X71051253Y-15735858D01*
X71230858Y-15556253D01*
X71245000Y-15570395D01*
X72129475Y-14685920D01*
X72045792Y-14431739D01*
X71773225Y-14300842D01*
X71480358Y-14225635D01*
X71178447Y-14209009D01*
X70879093Y-14251603D01*
X70593801Y-14351778D01*
X70540000Y-14380536D01*
X70540000Y-14319193D01*
X70471404Y-13974335D01*
X70336847Y-13649485D01*
X70141500Y-13357129D01*
X69892871Y-13108500D01*
X69600515Y-12913153D01*
X69275665Y-12778596D01*
X68930807Y-12710000D01*
X68579193Y-12710000D01*
X68234335Y-12778596D01*
X67909485Y-12913153D01*
X67617129Y-13108500D01*
X67368500Y-13357129D01*
X67173153Y-13649485D01*
X67038596Y-13974335D01*
X66970000Y-14319193D01*
X39721119Y-14319193D01*
X39717205Y-14309744D01*
X39603937Y-14140226D01*
X39459774Y-13996063D01*
X39290256Y-13882795D01*
X39101898Y-13804774D01*
X38901939Y-13765000D01*
X38698061Y-13765000D01*
X38498102Y-13804774D01*
X38309744Y-13882795D01*
X38140226Y-13996063D01*
X37996063Y-14140226D01*
X37882795Y-14309744D01*
X37804774Y-14498102D01*
X37765000Y-14698061D01*
X37765000Y-14901939D01*
X37804774Y-15101898D01*
X37882795Y-15290256D01*
X37915000Y-15338454D01*
X37915001Y-25061544D01*
X37882795Y-25109744D01*
X37804774Y-25298102D01*
X37765000Y-25498061D01*
X37765000Y-25701939D01*
X37804774Y-25901898D01*
X37882795Y-26090256D01*
X37996063Y-26259774D01*
X38140226Y-26403937D01*
X38309744Y-26517205D01*
X38498102Y-26595226D01*
X38554956Y-26606535D01*
X38715000Y-26766579D01*
X38715001Y-41033426D01*
X38154963Y-41593465D01*
X38098108Y-41604774D01*
X37909750Y-41682795D01*
X37740232Y-41796063D01*
X37596069Y-41940226D01*
X37482801Y-42109744D01*
X37404780Y-42298102D01*
X37365006Y-42498061D01*
X30287645Y-42498061D01*
X30301898Y-42495226D01*
X30490256Y-42417205D01*
X30538454Y-42385000D01*
X32956531Y-42385000D01*
X33000000Y-42389281D01*
X33043469Y-42385000D01*
X33043477Y-42385000D01*
X33173490Y-42372195D01*
X33340313Y-42321589D01*
X33494059Y-42239411D01*
X33628817Y-42128817D01*
X33656534Y-42095044D01*
X35245044Y-40506535D01*
X35301898Y-40495226D01*
X35490256Y-40417205D01*
X35659774Y-40303937D01*
X35803937Y-40159774D01*
X35917205Y-39990256D01*
X35995226Y-39801898D01*
X36035000Y-39601939D01*
X36035000Y-39398061D01*
X35995226Y-39198102D01*
X35917205Y-39009744D01*
X35803937Y-38840226D01*
X35659774Y-38696063D01*
X35490256Y-38582795D01*
X35301898Y-38504774D01*
X35101939Y-38465000D01*
X34898061Y-38465000D01*
X34698102Y-38504774D01*
X34509744Y-38582795D01*
X34340226Y-38696063D01*
X34196063Y-38840226D01*
X34082795Y-39009744D01*
X34004774Y-39198102D01*
X33993465Y-39254956D01*
X32633422Y-40615000D01*
X30538454Y-40615000D01*
X30490256Y-40582795D01*
X30301898Y-40504774D01*
X30101939Y-40465000D01*
X29898061Y-40465000D01*
X29698102Y-40504774D01*
X29509744Y-40582795D01*
X29340226Y-40696063D01*
X29196063Y-40840226D01*
X29082795Y-41009744D01*
X29004774Y-41198102D01*
X28965000Y-41398061D01*
X22085000Y-41398061D01*
X22085000Y-30538454D01*
X22117205Y-30490256D01*
X22195226Y-30301898D01*
X22235000Y-30101939D01*
X22235000Y-29898061D01*
X22195226Y-29698102D01*
X22117205Y-29509744D01*
X22003937Y-29340226D01*
X21859774Y-29196063D01*
X21690256Y-29082795D01*
X21501898Y-29004774D01*
X21301939Y-28965000D01*
X21098061Y-28965000D01*
X20898102Y-29004774D01*
X20709744Y-29082795D01*
X20540226Y-29196063D01*
X20396063Y-29340226D01*
X20282795Y-29509744D01*
X20204774Y-29698102D01*
X20165000Y-29898061D01*
X10869288Y-29898061D01*
X10751101Y-29801068D01*
X10501808Y-29667818D01*
X10231309Y-29585764D01*
X10020492Y-29565000D01*
X8979508Y-29565000D01*
X8768691Y-29585764D01*
X8498192Y-29667818D01*
X8248899Y-29801068D01*
X8030392Y-29980392D01*
X7851068Y-30198899D01*
X7717818Y-30448192D01*
X7635764Y-30718691D01*
X7608057Y-31000000D01*
X5735000Y-31000000D01*
X5735000Y-30878363D01*
X5687540Y-30639764D01*
X5594443Y-30415008D01*
X5459287Y-30212733D01*
X5287267Y-30040713D01*
X5084992Y-29905557D01*
X4860236Y-29812460D01*
X4621637Y-29765000D01*
X4378363Y-29765000D01*
X4139764Y-29812460D01*
X3915008Y-29905557D01*
X3712733Y-30040713D01*
X3540713Y-30212733D01*
X3405557Y-30415008D01*
X3312460Y-30639764D01*
X3265000Y-30878363D01*
X3235000Y-30878363D01*
X3187540Y-30639764D01*
X3094443Y-30415008D01*
X2959287Y-30212733D01*
X2787267Y-30040713D01*
X2584992Y-29905557D01*
X2360236Y-29812460D01*
X2121637Y-29765000D01*
X1878363Y-29765000D01*
X1639764Y-29812460D01*
X1415008Y-29905557D01*
X1212733Y-30040713D01*
X1040713Y-30212733D01*
X905557Y-30415008D01*
X812460Y-30639764D01*
X765000Y-30878363D01*
X660000Y-30878363D01*
X660000Y-22000000D01*
X18365000Y-22000000D01*
X18365000Y-24500000D01*
X18377201Y-24623882D01*
X18413336Y-24743004D01*
X18472017Y-24852787D01*
X18550987Y-24949013D01*
X24050987Y-30449013D01*
X24147213Y-30527983D01*
X24256996Y-30586664D01*
X24376118Y-30622799D01*
X24500000Y-30635000D01*
X29000000Y-30635000D01*
X29123882Y-30622799D01*
X29243004Y-30586664D01*
X29352787Y-30527983D01*
X29449013Y-30449013D01*
X30949013Y-28949013D01*
X31027983Y-28852787D01*
X31086664Y-28743004D01*
X31122799Y-28623882D01*
X31135000Y-28500000D01*
X31135000Y-22500000D01*
X31122799Y-22376118D01*
X31086664Y-22256996D01*
X31027983Y-22147213D01*
X30949013Y-22050987D01*
X29449013Y-20550987D01*
X29352787Y-20472017D01*
X29243004Y-20413336D01*
X29123882Y-20377201D01*
X29000000Y-20365000D01*
X20000000Y-20365000D01*
X19876118Y-20377201D01*
X19756996Y-20413336D01*
X19647213Y-20472017D01*
X19550987Y-20550987D01*
X18550987Y-21550987D01*
X18472017Y-21647213D01*
X18413336Y-21756996D01*
X18377201Y-21876118D01*
X18365000Y-22000000D01*
X660000Y-22000000D01*
X660000Y-20164740D01*
X6108964Y-20164740D01*
X6133245Y-20270087D01*
X6253138Y-20547204D01*
X6424790Y-20795606D01*
X6641604Y-21005748D01*
X6895249Y-21169554D01*
X7175977Y-21280729D01*
X7473000Y-21335000D01*
X8573000Y-21335000D01*
X8573000Y-19927000D01*
X8827000Y-19927000D01*
X8827000Y-21335000D01*
X9927000Y-21335000D01*
X10224023Y-21280729D01*
X10504751Y-21169554D01*
X10758396Y-21005748D01*
X10975210Y-20795606D01*
X11146862Y-20547204D01*
X11266755Y-20270087D01*
X11291036Y-20164740D01*
X11170378Y-19927000D01*
X8827000Y-19927000D01*
X8573000Y-19927000D01*
X6229622Y-19927000D01*
X6108964Y-20164740D01*
X660000Y-20164740D01*
X660000Y-19435260D01*
X6108964Y-19435260D01*
X6229622Y-19673000D01*
X8573000Y-19673000D01*
X8573000Y-18265000D01*
X7473000Y-18265000D01*
X7175977Y-18319271D01*
X6895249Y-18430446D01*
X6641604Y-18594252D01*
X6424790Y-18804394D01*
X6253138Y-19052796D01*
X6133245Y-19329913D01*
X6108964Y-19435260D01*
X660000Y-19435260D01*
X660000Y-15127000D01*
X4365000Y-15127000D01*
X4365000Y-16227000D01*
X4419271Y-16524023D01*
X4530446Y-16804751D01*
X4694252Y-17058396D01*
X4904394Y-17275210D01*
X5152796Y-17446862D01*
X5429913Y-17566755D01*
X5535260Y-17591036D01*
X5773000Y-17470378D01*
X5773000Y-15127000D01*
X6027000Y-15127000D01*
X6027000Y-17470378D01*
X6264740Y-17591036D01*
X6370087Y-17566755D01*
X6647204Y-17446862D01*
X6895606Y-17275210D01*
X7105748Y-17058396D01*
X7269554Y-16804751D01*
X7380729Y-16524023D01*
X7435000Y-16227000D01*
X7435000Y-15127000D01*
X6027000Y-15127000D01*
X5773000Y-15127000D01*
X4365000Y-15127000D01*
X660000Y-15127000D01*
X660000Y-13773000D01*
X4365000Y-13773000D01*
X4365000Y-14873000D01*
X5773000Y-14873000D01*
X5773000Y-12529622D01*
X6027000Y-12529622D01*
X6027000Y-14873000D01*
X7435000Y-14873000D01*
X7435000Y-13773000D01*
X7380729Y-13475977D01*
X7269554Y-13195249D01*
X7105748Y-12941604D01*
X6895606Y-12724790D01*
X6647204Y-12553138D01*
X6370087Y-12433245D01*
X6264740Y-12408964D01*
X6027000Y-12529622D01*
X5773000Y-12529622D01*
X5535260Y-12408964D01*
X5429913Y-12433245D01*
X5152796Y-12553138D01*
X4904394Y-12724790D01*
X4694252Y-12941604D01*
X4530446Y-13195249D01*
X4419271Y-13475977D01*
X4365000Y-13773000D01*
X660000Y-13773000D01*
X660000Y-7452033D01*
X2727572Y-7452033D01*
X3045757Y-7905850D01*
X3650210Y-8231269D01*
X4306535Y-8432512D01*
X4989510Y-8501845D01*
X5672888Y-8436605D01*
X6330407Y-8239298D01*
X6936799Y-7917506D01*
X6954243Y-7905850D01*
X7272428Y-7452033D01*
X5000000Y-5179605D01*
X2727572Y-7452033D01*
X660000Y-7452033D01*
X660000Y-4989510D01*
X1498155Y-4989510D01*
X1563395Y-5672888D01*
X1760702Y-6330407D01*
X2082494Y-6936799D01*
X2094150Y-6954243D01*
X2547967Y-7272428D01*
X4820395Y-5000000D01*
X5179605Y-5000000D01*
X7452033Y-7272428D01*
X7905850Y-6954243D01*
X8231269Y-6349790D01*
X8432512Y-5693465D01*
X8501845Y-5010490D01*
X8436605Y-4327112D01*
X8239298Y-3669593D01*
X7917506Y-3063201D01*
X7905850Y-3045757D01*
X7452033Y-2727572D01*
X5179605Y-5000000D01*
X4820395Y-5000000D01*
X2547967Y-2727572D01*
X2094150Y-3045757D01*
X1768731Y-3650210D01*
X1567488Y-4306535D01*
X1498155Y-4989510D01*
X660000Y-4989510D01*
X660000Y-3273380D01*
X1385413Y-2547967D01*
X2727572Y-2547967D01*
X5000000Y-4820395D01*
X7272428Y-2547967D01*
X6954243Y-2094150D01*
X6349790Y-1768731D01*
X5693465Y-1567488D01*
X5010490Y-1498155D01*
X4327112Y-1563395D01*
X3669593Y-1760702D01*
X3063201Y-2082494D01*
X3045757Y-2094150D01*
X2727572Y-2547967D01*
X1385413Y-2547967D01*
X3273381Y-660000D01*
X16465182Y-660000D01*
X16413336Y-756996D01*
G36*
X64740001Y-36881682D02*
G01*
X64728482Y-36878188D01*
X64604000Y-36865928D01*
X64039750Y-36869000D01*
X63881000Y-37027750D01*
X63881000Y-38227000D01*
X63901000Y-38227000D01*
X63901000Y-38481000D01*
X63881000Y-38481000D01*
X63881000Y-38501000D01*
X63627000Y-38501000D01*
X63627000Y-38481000D01*
X61341000Y-38481000D01*
X61341000Y-38501000D01*
X61087000Y-38501000D01*
X61087000Y-38481000D01*
X58801000Y-38481000D01*
X58801000Y-38501000D01*
X58547000Y-38501000D01*
X58547000Y-38481000D01*
X58527000Y-38481000D01*
X58527000Y-38227000D01*
X58547000Y-38227000D01*
X58547000Y-38207000D01*
X58801000Y-38207000D01*
X58801000Y-38227000D01*
X61087000Y-38227000D01*
X61087000Y-38207000D01*
X61341000Y-38207000D01*
X61341000Y-38227000D01*
X63627000Y-38227000D01*
X63627000Y-37027750D01*
X63468250Y-36869000D01*
X62904000Y-36865928D01*
X62779518Y-36878188D01*
X62762291Y-36883414D01*
X62828817Y-36828817D01*
X62856534Y-36795044D01*
X64595049Y-35056530D01*
X64628817Y-35028817D01*
X64657343Y-34994059D01*
X64729975Y-34905557D01*
X64739411Y-34894059D01*
X64740001Y-34892956D01*
X64740001Y-36881682D01*
G37*
X64740001Y-36881682D02*
X64728482Y-36878188D01*
X64604000Y-36865928D01*
X64039750Y-36869000D01*
X63881000Y-37027750D01*
X63881000Y-38227000D01*
X63901000Y-38227000D01*
X63901000Y-38481000D01*
X63881000Y-38481000D01*
X63881000Y-38501000D01*
X63627000Y-38501000D01*
X63627000Y-38481000D01*
X61341000Y-38481000D01*
X61341000Y-38501000D01*
X61087000Y-38501000D01*
X61087000Y-38481000D01*
X58801000Y-38481000D01*
X58801000Y-38501000D01*
X58547000Y-38501000D01*
X58547000Y-38481000D01*
X58527000Y-38481000D01*
X58527000Y-38227000D01*
X58547000Y-38227000D01*
X58547000Y-38207000D01*
X58801000Y-38207000D01*
X58801000Y-38227000D01*
X61087000Y-38227000D01*
X61087000Y-38207000D01*
X61341000Y-38207000D01*
X61341000Y-38227000D01*
X63627000Y-38227000D01*
X63627000Y-37027750D01*
X63468250Y-36869000D01*
X62904000Y-36865928D01*
X62779518Y-36878188D01*
X62762291Y-36883414D01*
X62828817Y-36828817D01*
X62856534Y-36795044D01*
X64595049Y-35056530D01*
X64628817Y-35028817D01*
X64657343Y-34994059D01*
X64729975Y-34905557D01*
X64739411Y-34894059D01*
X64740001Y-34892956D01*
X64740001Y-36881682D01*
%TO.N,Net-(D3-Pad2)*%
G36*
X29873000Y-11373000D02*
G01*
X17127000Y-11373000D01*
X17127000Y-1127000D01*
X29873000Y-1127000D01*
X29873000Y-11373000D01*
G37*
X29873000Y-11373000D02*
X17127000Y-11373000D01*
X17127000Y-1127000D01*
X29873000Y-1127000D01*
X29873000Y-11373000D01*
%TO.N,+12V*%
G36*
X34373000Y-17873000D02*
G01*
X10127000Y-17873000D01*
X10127000Y-12127000D01*
X30500000Y-12127000D01*
X30524776Y-12124560D01*
X30548601Y-12117333D01*
X30570557Y-12105597D01*
X30589803Y-12089803D01*
X30605597Y-12070557D01*
X30617333Y-12048601D01*
X30624560Y-12024776D01*
X30627000Y-12000000D01*
X30627000Y-1127000D01*
X34373000Y-1127000D01*
X34373000Y-17873000D01*
G37*
X34373000Y-17873000D02*
X10127000Y-17873000D01*
X10127000Y-12127000D01*
X30500000Y-12127000D01*
X30524776Y-12124560D01*
X30548601Y-12117333D01*
X30570557Y-12105597D01*
X30589803Y-12089803D01*
X30605597Y-12070557D01*
X30617333Y-12048601D01*
X30624560Y-12024776D01*
X30627000Y-12000000D01*
X30627000Y-1127000D01*
X34373000Y-1127000D01*
X34373000Y-17873000D01*
%TO.N,+3V3*%
G36*
X30373000Y-22552606D02*
G01*
X30373000Y-28447394D01*
X28947394Y-29873000D01*
X24552606Y-29873000D01*
X19127000Y-24447394D01*
X19127000Y-22052606D01*
X20052606Y-21127000D01*
X28947394Y-21127000D01*
X30373000Y-22552606D01*
G37*
X30373000Y-22552606D02*
X30373000Y-28447394D01*
X28947394Y-29873000D01*
X24552606Y-29873000D01*
X19127000Y-24447394D01*
X19127000Y-22052606D01*
X20052606Y-21127000D01*
X28947394Y-21127000D01*
X30373000Y-22552606D01*
%TD*%
M02*
