M48
; DRILL file {KiCad (5.1.6)-1} date 09/26/20 11:25:45
; FORMAT={-:-/ absolute / metric / decimal}
; #@! TF.CreationDate,2020-09-26T11:25:45+02:00
; #@! TF.GenerationSoftware,Kicad,Pcbnew,(5.1.6)-1
; #@! TF.FileFunction,Plated,1,2,PTH
FMAT,2
METRIC
T1C0.400
T2C0.800
T3C1.000
T4C1.300
T5C3.000
T6C3.200
%
G90
G05
T1
X14.9Y-41.3
X19.0Y-3.9
X19.0Y-5.4
X19.0Y-6.9
X20.0Y-23.5
X20.5Y-3.9
X20.5Y-5.4
X20.5Y-6.9
X21.0Y-22.5
X21.0Y-23.5
X21.0Y-24.5
X21.2Y-30.0
X22.0Y-3.9
X22.0Y-5.4
X22.0Y-7.0
X22.0Y-22.0
X22.0Y-23.0
X22.0Y-24.0
X22.0Y-25.0
X23.5Y-26.5
X24.5Y-26.5
X24.5Y-27.5
X25.5Y-26.5
X25.5Y-27.5
X25.5Y-28.5
X26.5Y-22.5
X26.5Y-23.5
X26.5Y-24.5
X26.5Y-25.5
X26.5Y-26.5
X26.5Y-27.5
X26.5Y-28.5
X27.5Y-22.5
X27.5Y-23.5
X27.5Y-24.5
X27.5Y-25.5
X27.5Y-26.5
X27.5Y-27.5
X27.5Y-28.5
X28.5Y-22.5
X28.5Y-23.5
X28.5Y-24.5
X28.5Y-25.5
X28.5Y-26.5
X28.5Y-27.5
X28.5Y-28.5
X29.5Y-23.5
X29.5Y-24.5
X29.5Y-25.5
X29.5Y-26.5
X29.5Y-27.5
X30.0Y-41.5
X31.5Y-8.5
X31.5Y-10.5
X32.5Y-7.5
X32.5Y-9.5
X32.5Y-11.5
X33.2Y-43.6
X33.5Y-8.5
X33.5Y-10.5
X35.0Y-39.5
X37.0Y-24.5
X37.0Y-27.0
X38.4Y-42.6
X38.5Y-38.0
X38.8Y-14.8
X38.8Y-25.6
X42.5Y-31.5
X44.0Y-16.25
X51.0Y-38.0
X51.0Y-39.5
X52.6Y-42.2
X54.0Y-28.5
X54.75Y-18.25
X55.75Y-22.75
X56.25Y-17.0
X56.75Y-34.5
X62.0Y-30.5
X64.0Y-26.4
X65.0Y-44.5
X66.8Y-42.8
X67.5Y-33.5
T3
X71.245Y-15.75
X71.245Y-20.25
X71.245Y-31.75
X71.245Y-36.25
X56.134Y-38.354
X56.134Y-40.894
X58.674Y-38.354
X58.674Y-40.894
X61.214Y-38.354
X61.214Y-40.894
X63.754Y-38.354
X63.754Y-40.894
T4
X27.5Y-4.5
X32.5Y-4.5
X68.755Y-14.495
X68.755Y-21.505
X68.755Y-30.495
X68.755Y-37.505
T5
X49.0Y-20.75
T6
X69.0Y-5.0
X5.0Y-49.0
X69.0Y-49.0
X5.0Y-5.0
T2
G00X5.9Y-13.9
M15
G01X5.9Y-16.1
M16
G05
G00X7.6Y-19.8
M15
G01X9.8Y-19.8
M16
G05
G00X11.7Y-13.7
M15
G01X11.7Y-16.3
M16
G05
G00X4.5Y-35.65
M15
G01X4.5Y-36.35
M16
G05
G00X9.15Y-31.0
M15
G01X9.85Y-31.0
M16
G05
G00X9.15Y-33.5
M15
G01X9.85Y-33.5
M16
G05
G00X9.15Y-38.5
M15
G01X9.85Y-38.5
M16
G05
G00X9.15Y-41.0
M15
G01X9.85Y-41.0
M16
G05
T0
M30
