%TF.GenerationSoftware,KiCad,Pcbnew,(5.1.6)-1*%
%TF.CreationDate,2020-09-26T10:57:46+02:00*%
%TF.ProjectId,ESP32MiniDrop,45535033-324d-4696-9e69-44726f702e6b,rev?*%
%TF.SameCoordinates,Original*%
%TF.FileFunction,Legend,Top*%
%TF.FilePolarity,Positive*%
%FSLAX46Y46*%
G04 Gerber Fmt 4.6, Leading zero omitted, Abs format (unit mm)*
G04 Created by KiCad (PCBNEW (5.1.6)-1) date 2020-09-26 10:57:46*
%MOMM*%
%LPD*%
G01*
G04 APERTURE LIST*
%ADD10C,0.150000*%
%ADD11C,0.120000*%
%ADD12C,0.200000*%
%ADD13C,0.250000*%
%ADD14C,0.300000*%
G04 APERTURE END LIST*
D10*
X55586380Y-36004476D02*
X55586380Y-36480666D01*
X56062571Y-36528285D01*
X56014952Y-36480666D01*
X55967333Y-36385428D01*
X55967333Y-36147333D01*
X56014952Y-36052095D01*
X56062571Y-36004476D01*
X56157809Y-35956857D01*
X56395904Y-35956857D01*
X56491142Y-36004476D01*
X56538761Y-36052095D01*
X56586380Y-36147333D01*
X56586380Y-36385428D01*
X56538761Y-36480666D01*
X56491142Y-36528285D01*
X55586380Y-35671142D02*
X56586380Y-35337809D01*
X55586380Y-35004476D01*
X56681619Y-42672095D02*
X56681619Y-43243523D01*
X55681619Y-42957809D02*
X56681619Y-42957809D01*
X56681619Y-43481619D02*
X55681619Y-44148285D01*
X56681619Y-44148285D02*
X55681619Y-43481619D01*
X58221619Y-43267333D02*
X58697809Y-42934000D01*
X58221619Y-42695904D02*
X59221619Y-42695904D01*
X59221619Y-43076857D01*
X59174000Y-43172095D01*
X59126380Y-43219714D01*
X59031142Y-43267333D01*
X58888285Y-43267333D01*
X58793047Y-43219714D01*
X58745428Y-43172095D01*
X58697809Y-43076857D01*
X58697809Y-42695904D01*
X59221619Y-43600666D02*
X58221619Y-44267333D01*
X59221619Y-44267333D02*
X58221619Y-43600666D01*
X61761619Y-43452380D02*
X61761619Y-43547619D01*
X61714000Y-43642857D01*
X61666380Y-43690476D01*
X61571142Y-43738095D01*
X61380666Y-43785714D01*
X61142571Y-43785714D01*
X60952095Y-43738095D01*
X60856857Y-43690476D01*
X60809238Y-43642857D01*
X60761619Y-43547619D01*
X60761619Y-43452380D01*
X60809238Y-43357142D01*
X60856857Y-43309523D01*
X60952095Y-43261904D01*
X61142571Y-43214285D01*
X61380666Y-43214285D01*
X61571142Y-43261904D01*
X61666380Y-43309523D01*
X61714000Y-43357142D01*
X61761619Y-43452380D01*
X63825428Y-42695904D02*
X63825428Y-43029238D01*
X63301619Y-43172095D02*
X63301619Y-42695904D01*
X64301619Y-42695904D01*
X64301619Y-43172095D01*
X63301619Y-43600666D02*
X64301619Y-43600666D01*
X63301619Y-44172095D01*
X64301619Y-44172095D01*
D11*
X62000000Y-50000000D02*
X61500000Y-50500000D01*
X62500000Y-50500000D02*
X62000000Y-50000000D01*
X62000000Y-51000000D02*
X62500000Y-50500000D01*
X61500000Y-50500000D02*
X62000000Y-51000000D01*
X62000000Y-49000000D02*
X60000000Y-53000000D01*
X64000000Y-53000000D02*
X62000000Y-49000000D01*
X63000000Y-49000000D02*
X64000000Y-53000000D01*
X62000000Y-53000000D02*
X63000000Y-49000000D01*
X61000000Y-49000000D02*
X62000000Y-53000000D01*
X60000000Y-53000000D02*
X61000000Y-49000000D01*
X2200000Y-21100000D02*
X2800000Y-21100000D01*
X3000000Y-21100000D02*
G75*
G03*
X3000000Y-21100000I-500000J0D01*
G01*
X3500000Y-21100000D02*
X3000000Y-21100000D01*
X4300000Y-21500000D02*
G75*
G02*
X4300000Y-20700000I-300000J400000D01*
G01*
X5200000Y-21100000D02*
X5800000Y-21100000D01*
X5500000Y-20800000D02*
X5500000Y-21400000D01*
X6000000Y-21100000D02*
G75*
G03*
X6000000Y-21100000I-500000J0D01*
G01*
X4000000Y-21100000D02*
X5000000Y-21100000D01*
D12*
X4100000Y-21100000D02*
G75*
G03*
X4100000Y-21100000I-100000J0D01*
G01*
D13*
X3000000Y-23300000D02*
X3250000Y-23300000D01*
X2150000Y-23300000D02*
X2400000Y-23300000D01*
X1350000Y-23300000D02*
X1600000Y-23300000D01*
X1300000Y-22500000D02*
X3300000Y-22500000D01*
D10*
X4680952Y-23302380D02*
X4109523Y-23302380D01*
X4395238Y-23302380D02*
X4395238Y-22302380D01*
X4300000Y-22445238D01*
X4204761Y-22540476D01*
X4109523Y-22588095D01*
X5061904Y-22397619D02*
X5109523Y-22350000D01*
X5204761Y-22302380D01*
X5442857Y-22302380D01*
X5538095Y-22350000D01*
X5585714Y-22397619D01*
X5633333Y-22492857D01*
X5633333Y-22588095D01*
X5585714Y-22730952D01*
X5014285Y-23302380D01*
X5633333Y-23302380D01*
X5919047Y-22302380D02*
X6252380Y-23302380D01*
X6585714Y-22302380D01*
X66547619Y-41202380D02*
X66214285Y-40726190D01*
X65976190Y-41202380D02*
X65976190Y-40202380D01*
X66357142Y-40202380D01*
X66452380Y-40250000D01*
X66500000Y-40297619D01*
X66547619Y-40392857D01*
X66547619Y-40535714D01*
X66500000Y-40630952D01*
X66452380Y-40678571D01*
X66357142Y-40726190D01*
X65976190Y-40726190D01*
X66976190Y-40678571D02*
X67309523Y-40678571D01*
X67452380Y-41202380D02*
X66976190Y-41202380D01*
X66976190Y-40202380D01*
X67452380Y-40202380D01*
X67833333Y-41154761D02*
X67976190Y-41202380D01*
X68214285Y-41202380D01*
X68309523Y-41154761D01*
X68357142Y-41107142D01*
X68404761Y-41011904D01*
X68404761Y-40916666D01*
X68357142Y-40821428D01*
X68309523Y-40773809D01*
X68214285Y-40726190D01*
X68023809Y-40678571D01*
X67928571Y-40630952D01*
X67880952Y-40583333D01*
X67833333Y-40488095D01*
X67833333Y-40392857D01*
X67880952Y-40297619D01*
X67928571Y-40250000D01*
X68023809Y-40202380D01*
X68261904Y-40202380D01*
X68404761Y-40250000D01*
X68833333Y-40678571D02*
X69166666Y-40678571D01*
X69309523Y-41202380D02*
X68833333Y-41202380D01*
X68833333Y-40202380D01*
X69309523Y-40202380D01*
X69595238Y-40202380D02*
X70166666Y-40202380D01*
X69880952Y-41202380D02*
X69880952Y-40202380D01*
X66738095Y-11952380D02*
X66738095Y-10952380D01*
X67119047Y-10952380D01*
X67214285Y-11000000D01*
X67261904Y-11047619D01*
X67309523Y-11142857D01*
X67309523Y-11285714D01*
X67261904Y-11380952D01*
X67214285Y-11428571D01*
X67119047Y-11476190D01*
X66738095Y-11476190D01*
X68166666Y-11952380D02*
X68166666Y-11428571D01*
X68119047Y-11333333D01*
X68023809Y-11285714D01*
X67833333Y-11285714D01*
X67738095Y-11333333D01*
X68166666Y-11904761D02*
X68071428Y-11952380D01*
X67833333Y-11952380D01*
X67738095Y-11904761D01*
X67690476Y-11809523D01*
X67690476Y-11714285D01*
X67738095Y-11619047D01*
X67833333Y-11571428D01*
X68071428Y-11571428D01*
X68166666Y-11523809D01*
X68642857Y-11952380D02*
X68642857Y-11285714D01*
X68642857Y-10952380D02*
X68595238Y-11000000D01*
X68642857Y-11047619D01*
X68690476Y-11000000D01*
X68642857Y-10952380D01*
X68642857Y-11047619D01*
X69119047Y-11952380D02*
X69119047Y-11285714D01*
X69119047Y-11476190D02*
X69166666Y-11380952D01*
X69214285Y-11333333D01*
X69309523Y-11285714D01*
X69404761Y-11285714D01*
D13*
X62000000Y-8000000D02*
X61000000Y-9000000D01*
X63000000Y-9000000D02*
X62000000Y-8000000D01*
X62000000Y-10000000D02*
X63000000Y-9000000D01*
X62000000Y-6000000D02*
X62000000Y-10000000D01*
X63000000Y-7000000D02*
X62000000Y-6000000D01*
X62000000Y-8000000D02*
X63000000Y-7000000D01*
X61000000Y-7000000D02*
X62000000Y-8000000D01*
D11*
X53250000Y-50500000D02*
X58250000Y-50500000D01*
D10*
X45547619Y-49952380D02*
X45547619Y-48952380D01*
X45928571Y-48952380D01*
X46023809Y-49000000D01*
X46071428Y-49047619D01*
X46119047Y-49142857D01*
X46119047Y-49285714D01*
X46071428Y-49380952D01*
X46023809Y-49428571D01*
X45928571Y-49476190D01*
X45547619Y-49476190D01*
X47119047Y-49857142D02*
X47071428Y-49904761D01*
X46928571Y-49952380D01*
X46833333Y-49952380D01*
X46690476Y-49904761D01*
X46595238Y-49809523D01*
X46547619Y-49714285D01*
X46500000Y-49523809D01*
X46500000Y-49380952D01*
X46547619Y-49190476D01*
X46595238Y-49095238D01*
X46690476Y-49000000D01*
X46833333Y-48952380D01*
X46928571Y-48952380D01*
X47071428Y-49000000D01*
X47119047Y-49047619D01*
X47880952Y-49428571D02*
X48023809Y-49476190D01*
X48071428Y-49523809D01*
X48119047Y-49619047D01*
X48119047Y-49761904D01*
X48071428Y-49857142D01*
X48023809Y-49904761D01*
X47928571Y-49952380D01*
X47547619Y-49952380D01*
X47547619Y-48952380D01*
X47880952Y-48952380D01*
X47976190Y-49000000D01*
X48023809Y-49047619D01*
X48071428Y-49142857D01*
X48071428Y-49238095D01*
X48023809Y-49333333D01*
X47976190Y-49380952D01*
X47880952Y-49428571D01*
X47547619Y-49428571D01*
X48500000Y-49666666D02*
X48976190Y-49666666D01*
X48404761Y-49952380D02*
X48738095Y-48952380D01*
X49071428Y-49952380D01*
X50738095Y-49952380D02*
X50404761Y-49476190D01*
X50166666Y-49952380D02*
X50166666Y-48952380D01*
X50547619Y-48952380D01*
X50642857Y-49000000D01*
X50690476Y-49047619D01*
X50738095Y-49142857D01*
X50738095Y-49285714D01*
X50690476Y-49380952D01*
X50642857Y-49428571D01*
X50547619Y-49476190D01*
X50166666Y-49476190D01*
X51166666Y-49428571D02*
X51500000Y-49428571D01*
X51642857Y-49952380D02*
X51166666Y-49952380D01*
X51166666Y-48952380D01*
X51642857Y-48952380D01*
X51928571Y-48952380D02*
X52261904Y-49952380D01*
X52595238Y-48952380D01*
D11*
X44500000Y-48000000D02*
X44500000Y-53500000D01*
X45500000Y-45000000D02*
X65000000Y-45000000D01*
X44500000Y-46000000D02*
X45500000Y-45000000D01*
X44500000Y-48000000D02*
X44500000Y-46000000D01*
D14*
X45552142Y-46892857D02*
X46052142Y-46892857D01*
X46266428Y-47678571D02*
X45552142Y-47678571D01*
X45552142Y-46178571D01*
X46266428Y-46178571D01*
X46837857Y-47607142D02*
X47052142Y-47678571D01*
X47409285Y-47678571D01*
X47552142Y-47607142D01*
X47623571Y-47535714D01*
X47695000Y-47392857D01*
X47695000Y-47250000D01*
X47623571Y-47107142D01*
X47552142Y-47035714D01*
X47409285Y-46964285D01*
X47123571Y-46892857D01*
X46980714Y-46821428D01*
X46909285Y-46750000D01*
X46837857Y-46607142D01*
X46837857Y-46464285D01*
X46909285Y-46321428D01*
X46980714Y-46250000D01*
X47123571Y-46178571D01*
X47480714Y-46178571D01*
X47695000Y-46250000D01*
X48337857Y-47678571D02*
X48337857Y-46178571D01*
X48909285Y-46178571D01*
X49052142Y-46250000D01*
X49123571Y-46321428D01*
X49195000Y-46464285D01*
X49195000Y-46678571D01*
X49123571Y-46821428D01*
X49052142Y-46892857D01*
X48909285Y-46964285D01*
X48337857Y-46964285D01*
X49695000Y-46178571D02*
X50623571Y-46178571D01*
X50123571Y-46750000D01*
X50337857Y-46750000D01*
X50480714Y-46821428D01*
X50552142Y-46892857D01*
X50623571Y-47035714D01*
X50623571Y-47392857D01*
X50552142Y-47535714D01*
X50480714Y-47607142D01*
X50337857Y-47678571D01*
X49909285Y-47678571D01*
X49766428Y-47607142D01*
X49695000Y-47535714D01*
X51195000Y-46321428D02*
X51266428Y-46250000D01*
X51409285Y-46178571D01*
X51766428Y-46178571D01*
X51909285Y-46250000D01*
X51980714Y-46321428D01*
X52052142Y-46464285D01*
X52052142Y-46607142D01*
X51980714Y-46821428D01*
X51123571Y-47678571D01*
X52052142Y-47678571D01*
X53837857Y-47678571D02*
X53837857Y-46178571D01*
X54337857Y-47250000D01*
X54837857Y-46178571D01*
X54837857Y-47678571D01*
X55552142Y-47678571D02*
X55552142Y-46678571D01*
X55552142Y-46178571D02*
X55480714Y-46250000D01*
X55552142Y-46321428D01*
X55623571Y-46250000D01*
X55552142Y-46178571D01*
X55552142Y-46321428D01*
X56266428Y-46678571D02*
X56266428Y-47678571D01*
X56266428Y-46821428D02*
X56337857Y-46750000D01*
X56480714Y-46678571D01*
X56695000Y-46678571D01*
X56837857Y-46750000D01*
X56909285Y-46892857D01*
X56909285Y-47678571D01*
X57623571Y-47678571D02*
X57623571Y-46678571D01*
X57623571Y-46178571D02*
X57552142Y-46250000D01*
X57623571Y-46321428D01*
X57695000Y-46250000D01*
X57623571Y-46178571D01*
X57623571Y-46321428D01*
X59480714Y-47678571D02*
X59480714Y-46178571D01*
X59837857Y-46178571D01*
X60052142Y-46250000D01*
X60195000Y-46392857D01*
X60266428Y-46535714D01*
X60337857Y-46821428D01*
X60337857Y-47035714D01*
X60266428Y-47321428D01*
X60195000Y-47464285D01*
X60052142Y-47607142D01*
X59837857Y-47678571D01*
X59480714Y-47678571D01*
X60980714Y-47678571D02*
X60980714Y-46678571D01*
X60980714Y-46964285D02*
X61052142Y-46821428D01*
X61123571Y-46750000D01*
X61266428Y-46678571D01*
X61409285Y-46678571D01*
X62123571Y-47678571D02*
X61980714Y-47607142D01*
X61909285Y-47535714D01*
X61837857Y-47392857D01*
X61837857Y-46964285D01*
X61909285Y-46821428D01*
X61980714Y-46750000D01*
X62123571Y-46678571D01*
X62337857Y-46678571D01*
X62480714Y-46750000D01*
X62552142Y-46821428D01*
X62623571Y-46964285D01*
X62623571Y-47392857D01*
X62552142Y-47535714D01*
X62480714Y-47607142D01*
X62337857Y-47678571D01*
X62123571Y-47678571D01*
X63266428Y-46678571D02*
X63266428Y-48178571D01*
X63266428Y-46750000D02*
X63409285Y-46678571D01*
X63695000Y-46678571D01*
X63837857Y-46750000D01*
X63909285Y-46821428D01*
X63980714Y-46964285D01*
X63980714Y-47392857D01*
X63909285Y-47535714D01*
X63837857Y-47607142D01*
X63695000Y-47678571D01*
X63409285Y-47678571D01*
X63266428Y-47607142D01*
D11*
%TO.C,SW2*%
X66000000Y-30000000D02*
X66000000Y-31000000D01*
X65500000Y-29500000D02*
X66000000Y-30000000D01*
X66000000Y-31000000D02*
X65500000Y-31000000D01*
X66000000Y-28500000D02*
X65500000Y-29000000D01*
X65500000Y-29000000D02*
X65500000Y-29500000D01*
X66000000Y-37000000D02*
X65500000Y-37000000D01*
X66000000Y-38000000D02*
X66000000Y-37000000D01*
X65500000Y-38500000D02*
X66000000Y-38000000D01*
X65500000Y-39000000D02*
X65500000Y-38500000D01*
X66000000Y-39500000D02*
X65500000Y-39000000D01*
X73900000Y-37000000D02*
X70000000Y-39500000D01*
X70000000Y-39500000D02*
X66000000Y-39500000D01*
X70000000Y-28500000D02*
X66000000Y-28500000D01*
X73900000Y-31000000D02*
X70000000Y-28500000D01*
X73900000Y-34000000D02*
X73900000Y-31000000D01*
X73900000Y-37000000D02*
X73900000Y-34000000D01*
%TO.C,SW1*%
X66000000Y-14000000D02*
X66000000Y-15000000D01*
X65500000Y-13500000D02*
X66000000Y-14000000D01*
X66000000Y-15000000D02*
X65500000Y-15000000D01*
X66000000Y-12500000D02*
X65500000Y-13000000D01*
X65500000Y-13000000D02*
X65500000Y-13500000D01*
X66000000Y-21000000D02*
X65500000Y-21000000D01*
X66000000Y-22000000D02*
X66000000Y-21000000D01*
X65500000Y-22500000D02*
X66000000Y-22000000D01*
X65500000Y-23000000D02*
X65500000Y-22500000D01*
X66000000Y-23500000D02*
X65500000Y-23000000D01*
X73900000Y-21000000D02*
X70000000Y-23500000D01*
X70000000Y-23500000D02*
X66000000Y-23500000D01*
X70000000Y-12500000D02*
X66000000Y-12500000D01*
X73900000Y-15000000D02*
X70000000Y-12500000D01*
X73900000Y-18000000D02*
X73900000Y-15000000D01*
X73900000Y-21000000D02*
X73900000Y-18000000D01*
%TO.C,J5*%
X6500000Y-19600000D02*
X-2000000Y-19600000D01*
X-2000000Y-19600000D02*
X-2000000Y-10400000D01*
X-2000000Y-10400000D02*
X12700000Y-10400000D01*
X12700000Y-17500000D02*
X12700000Y-19600000D01*
X12700000Y-19600000D02*
X10900000Y-19600000D01*
X13000000Y-11800000D02*
X13000000Y-10100000D01*
X13000000Y-10100000D02*
X11400000Y-10100000D01*
X12700000Y-10400000D02*
X12700000Y-12500000D01*
%TO.C,J2*%
X30000000Y-4500000D02*
X30000000Y-8650000D01*
X30000000Y-4500000D02*
X31000000Y-2500000D01*
X29000000Y-2500000D02*
X30000000Y-4500000D01*
X35000000Y-350000D02*
X34000000Y-1350000D01*
X34000000Y-1350000D02*
X34000000Y-2500000D01*
X31000000Y-2500000D02*
X31000000Y-1350000D01*
X34000000Y-2500000D02*
X31000000Y-2500000D01*
X31000000Y-1350000D02*
X30050000Y-350000D01*
X29000000Y-1350000D02*
X29950000Y-350000D01*
X29000000Y-2500000D02*
X29000000Y-1350000D01*
X26000000Y-2500000D02*
X29000000Y-2500000D01*
X26000000Y-1350000D02*
X26000000Y-2500000D01*
X25000000Y-350000D02*
X26000000Y-1350000D01*
X35000000Y-8650000D02*
X25000000Y-8650000D01*
X35000000Y-350000D02*
X35000000Y-8650000D01*
X25000000Y-350000D02*
X35000000Y-350000D01*
X25000000Y-8650000D02*
X25000000Y-350000D01*
%TO.C,U2*%
X19265000Y-42640000D02*
X21500000Y-42640000D01*
X19265000Y-32360000D02*
X19265000Y-42640000D01*
X25735000Y-32360000D02*
X19265000Y-32360000D01*
X25735000Y-42640000D02*
X25735000Y-32360000D01*
X23500000Y-42640000D02*
X25735000Y-42640000D01*
X21500000Y-42640000D02*
G75*
G02*
X23500000Y-42640000I1000000J0D01*
G01*
%TO.C,R3*%
X39090000Y-37397936D02*
X39090000Y-38602064D01*
X40910000Y-37397936D02*
X40910000Y-38602064D01*
%TO.C,U1*%
X40880000Y-12055000D02*
X40500000Y-12055000D01*
X40880000Y-5635000D02*
X40880000Y-12055000D01*
X59120000Y-5635000D02*
X59120000Y-12055000D01*
X40880000Y-5635000D02*
X59120000Y-5635000D01*
X59120000Y-31380000D02*
X58120000Y-31380000D01*
X59120000Y-30600000D02*
X59120000Y-31380000D01*
X40880000Y-31380000D02*
X41880000Y-31380000D01*
X40880000Y-30600000D02*
X40880000Y-31380000D01*
%TO.C,R5*%
X37910000Y-22102064D02*
X37910000Y-20897936D01*
X36090000Y-22102064D02*
X36090000Y-20897936D01*
%TO.C,R6*%
X43910000Y-38602064D02*
X43910000Y-37397936D01*
X42090000Y-38602064D02*
X42090000Y-37397936D01*
%TO.C,R4*%
X37910000Y-38602064D02*
X37910000Y-37397936D01*
X36090000Y-38602064D02*
X36090000Y-37397936D01*
%TO.C,R2*%
X46910000Y-38602064D02*
X46910000Y-37397936D01*
X45090000Y-38602064D02*
X45090000Y-37397936D01*
%TO.C,R1*%
X33090000Y-29397936D02*
X33090000Y-30602064D01*
X34910000Y-29397936D02*
X34910000Y-30602064D01*
%TO.C,C3*%
X34910000Y-22102064D02*
X34910000Y-20897936D01*
X33090000Y-22102064D02*
X33090000Y-20897936D01*
%TO.C,C4*%
X49660000Y-38602064D02*
X49660000Y-37397936D01*
X47840000Y-38602064D02*
X47840000Y-37397936D01*
%TO.C,C1*%
X36090000Y-29397936D02*
X36090000Y-30602064D01*
X37910000Y-29397936D02*
X37910000Y-30602064D01*
%TO.C,J1*%
X65084000Y-37024000D02*
X65084000Y-38354000D01*
X63754000Y-37024000D02*
X65084000Y-37024000D01*
X65084000Y-39624000D02*
X65084000Y-42224000D01*
X62484000Y-39624000D02*
X65084000Y-39624000D01*
X62484000Y-37024000D02*
X62484000Y-39624000D01*
X65084000Y-42224000D02*
X54804000Y-42224000D01*
X62484000Y-37024000D02*
X54804000Y-37024000D01*
X54804000Y-37024000D02*
X54804000Y-42224000D01*
%TO.C,C2*%
X30090000Y-20897936D02*
X30090000Y-22102064D01*
X31910000Y-20897936D02*
X31910000Y-22102064D01*
%TO.C,C5*%
X13590000Y-23897936D02*
X13590000Y-25102064D01*
X15410000Y-23897936D02*
X15410000Y-25102064D01*
%TO.C,D1*%
X63135000Y-29460000D02*
X63135000Y-25400000D01*
X60865000Y-29460000D02*
X63135000Y-29460000D01*
X60865000Y-25400000D02*
X60865000Y-29460000D01*
%TO.C,D2*%
X60865000Y-13540000D02*
X60865000Y-17600000D01*
X63135000Y-13540000D02*
X60865000Y-13540000D01*
X63135000Y-17600000D02*
X63135000Y-13540000D01*
%TO.C,D4*%
X10500000Y-26700000D02*
X10500000Y-22850000D01*
X12500000Y-26700000D02*
X12500000Y-22850000D01*
X10500000Y-26700000D02*
X12500000Y-26700000D01*
%TO.C,D3*%
X34600000Y-16550000D02*
X27300000Y-16550000D01*
X34600000Y-12250000D02*
X27300000Y-12250000D01*
X34600000Y-16550000D02*
X34600000Y-12250000D01*
%TO.C,U4*%
X16900000Y-20090000D02*
X22910000Y-20090000D01*
X19150000Y-26910000D02*
X22910000Y-26910000D01*
X22910000Y-20090000D02*
X22910000Y-21350000D01*
X22910000Y-26910000D02*
X22910000Y-25650000D01*
%TO.C,Q1*%
X23680000Y-9970000D02*
X23680000Y-11070000D01*
X23950000Y-9970000D02*
X23680000Y-9970000D01*
X23950000Y-8470000D02*
X23950000Y-9970000D01*
X17320000Y-9970000D02*
X17320000Y-12800000D01*
X17050000Y-9970000D02*
X17320000Y-9970000D01*
X17050000Y-8470000D02*
X17050000Y-9970000D01*
%TO.C,J3*%
X12000000Y-42000000D02*
X12000000Y-30000000D01*
X1000000Y-40500000D02*
X1000000Y-42000000D01*
X0Y-40500000D02*
X1000000Y-40500000D01*
X0Y-38000000D02*
X0Y-40500000D01*
X1000000Y-31500000D02*
X1000000Y-30000000D01*
X0Y-31500000D02*
X1000000Y-31500000D01*
X0Y-34000000D02*
X0Y-31500000D01*
X1200000Y-34000000D02*
X1200000Y-38000000D01*
X1200000Y-38000000D02*
X0Y-38000000D01*
X0Y-34000000D02*
X1200000Y-34000000D01*
X1000000Y-42000000D02*
X12000000Y-42000000D01*
X12000000Y-30000000D02*
X1000000Y-30000000D01*
%TO.C,SW2*%
D10*
X65904761Y-35333333D02*
X65952380Y-35190476D01*
X65952380Y-34952380D01*
X65904761Y-34857142D01*
X65857142Y-34809523D01*
X65761904Y-34761904D01*
X65666666Y-34761904D01*
X65571428Y-34809523D01*
X65523809Y-34857142D01*
X65476190Y-34952380D01*
X65428571Y-35142857D01*
X65380952Y-35238095D01*
X65333333Y-35285714D01*
X65238095Y-35333333D01*
X65142857Y-35333333D01*
X65047619Y-35285714D01*
X65000000Y-35238095D01*
X64952380Y-35142857D01*
X64952380Y-34904761D01*
X65000000Y-34761904D01*
X64952380Y-34428571D02*
X65952380Y-34190476D01*
X65238095Y-34000000D01*
X65952380Y-33809523D01*
X64952380Y-33571428D01*
X65047619Y-33238095D02*
X65000000Y-33190476D01*
X64952380Y-33095238D01*
X64952380Y-32857142D01*
X65000000Y-32761904D01*
X65047619Y-32714285D01*
X65142857Y-32666666D01*
X65238095Y-32666666D01*
X65380952Y-32714285D01*
X65952380Y-33285714D01*
X65952380Y-32666666D01*
%TO.C,SW1*%
X65904761Y-19333333D02*
X65952380Y-19190476D01*
X65952380Y-18952380D01*
X65904761Y-18857142D01*
X65857142Y-18809523D01*
X65761904Y-18761904D01*
X65666666Y-18761904D01*
X65571428Y-18809523D01*
X65523809Y-18857142D01*
X65476190Y-18952380D01*
X65428571Y-19142857D01*
X65380952Y-19238095D01*
X65333333Y-19285714D01*
X65238095Y-19333333D01*
X65142857Y-19333333D01*
X65047619Y-19285714D01*
X65000000Y-19238095D01*
X64952380Y-19142857D01*
X64952380Y-18904761D01*
X65000000Y-18761904D01*
X64952380Y-18428571D02*
X65952380Y-18190476D01*
X65238095Y-18000000D01*
X65952380Y-17809523D01*
X64952380Y-17571428D01*
X65952380Y-16666666D02*
X65952380Y-17238095D01*
X65952380Y-16952380D02*
X64952380Y-16952380D01*
X65095238Y-17047619D01*
X65190476Y-17142857D01*
X65238095Y-17238095D01*
%TO.C,J5*%
X13652380Y-15333333D02*
X14366666Y-15333333D01*
X14509523Y-15380952D01*
X14604761Y-15476190D01*
X14652380Y-15619047D01*
X14652380Y-15714285D01*
X13652380Y-14380952D02*
X13652380Y-14857142D01*
X14128571Y-14904761D01*
X14080952Y-14857142D01*
X14033333Y-14761904D01*
X14033333Y-14523809D01*
X14080952Y-14428571D01*
X14128571Y-14380952D01*
X14223809Y-14333333D01*
X14461904Y-14333333D01*
X14557142Y-14380952D01*
X14604761Y-14428571D01*
X14652380Y-14523809D01*
X14652380Y-14761904D01*
X14604761Y-14857142D01*
X14557142Y-14904761D01*
%TO.C,J2*%
X29716666Y997619D02*
X29716666Y283333D01*
X29669047Y140476D01*
X29573809Y45238D01*
X29430952Y-2380D01*
X29335714Y-2380D01*
X30145238Y902380D02*
X30192857Y950000D01*
X30288095Y997619D01*
X30526190Y997619D01*
X30621428Y950000D01*
X30669047Y902380D01*
X30716666Y807142D01*
X30716666Y711904D01*
X30669047Y569047D01*
X30097619Y-2380D01*
X30716666Y-2380D01*
%TO.C,U2*%
X21738095Y-43092380D02*
X21738095Y-43901904D01*
X21785714Y-43997142D01*
X21833333Y-44044761D01*
X21928571Y-44092380D01*
X22119047Y-44092380D01*
X22214285Y-44044761D01*
X22261904Y-43997142D01*
X22309523Y-43901904D01*
X22309523Y-43092380D01*
X22738095Y-43187619D02*
X22785714Y-43140000D01*
X22880952Y-43092380D01*
X23119047Y-43092380D01*
X23214285Y-43140000D01*
X23261904Y-43187619D01*
X23309523Y-43282857D01*
X23309523Y-43378095D01*
X23261904Y-43520952D01*
X22690476Y-44092380D01*
X23309523Y-44092380D01*
%TO.C,R3*%
X40452380Y-42666666D02*
X39976190Y-43000000D01*
X40452380Y-43238095D02*
X39452380Y-43238095D01*
X39452380Y-42857142D01*
X39500000Y-42761904D01*
X39547619Y-42714285D01*
X39642857Y-42666666D01*
X39785714Y-42666666D01*
X39880952Y-42714285D01*
X39928571Y-42761904D01*
X39976190Y-42857142D01*
X39976190Y-43238095D01*
X39452380Y-42333333D02*
X39452380Y-41714285D01*
X39833333Y-42047619D01*
X39833333Y-41904761D01*
X39880952Y-41809523D01*
X39928571Y-41761904D01*
X40023809Y-41714285D01*
X40261904Y-41714285D01*
X40357142Y-41761904D01*
X40404761Y-41809523D01*
X40452380Y-41904761D01*
X40452380Y-42190476D01*
X40404761Y-42285714D01*
X40357142Y-42333333D01*
%TO.C,U1*%
X41238095Y-4052380D02*
X41238095Y-4861904D01*
X41285714Y-4957142D01*
X41333333Y-5004761D01*
X41428571Y-5052380D01*
X41619047Y-5052380D01*
X41714285Y-5004761D01*
X41761904Y-4957142D01*
X41809523Y-4861904D01*
X41809523Y-4052380D01*
X42809523Y-5052380D02*
X42238095Y-5052380D01*
X42523809Y-5052380D02*
X42523809Y-4052380D01*
X42428571Y-4195238D01*
X42333333Y-4290476D01*
X42238095Y-4338095D01*
%TO.C,R5*%
X37452380Y-25666666D02*
X36976190Y-26000000D01*
X37452380Y-26238095D02*
X36452380Y-26238095D01*
X36452380Y-25857142D01*
X36500000Y-25761904D01*
X36547619Y-25714285D01*
X36642857Y-25666666D01*
X36785714Y-25666666D01*
X36880952Y-25714285D01*
X36928571Y-25761904D01*
X36976190Y-25857142D01*
X36976190Y-26238095D01*
X36452380Y-24761904D02*
X36452380Y-25238095D01*
X36928571Y-25285714D01*
X36880952Y-25238095D01*
X36833333Y-25142857D01*
X36833333Y-24904761D01*
X36880952Y-24809523D01*
X36928571Y-24761904D01*
X37023809Y-24714285D01*
X37261904Y-24714285D01*
X37357142Y-24761904D01*
X37404761Y-24809523D01*
X37452380Y-24904761D01*
X37452380Y-25142857D01*
X37404761Y-25238095D01*
X37357142Y-25285714D01*
%TO.C,R6*%
X43452380Y-42666666D02*
X42976190Y-43000000D01*
X43452380Y-43238095D02*
X42452380Y-43238095D01*
X42452380Y-42857142D01*
X42500000Y-42761904D01*
X42547619Y-42714285D01*
X42642857Y-42666666D01*
X42785714Y-42666666D01*
X42880952Y-42714285D01*
X42928571Y-42761904D01*
X42976190Y-42857142D01*
X42976190Y-43238095D01*
X42452380Y-41809523D02*
X42452380Y-42000000D01*
X42500000Y-42095238D01*
X42547619Y-42142857D01*
X42690476Y-42238095D01*
X42880952Y-42285714D01*
X43261904Y-42285714D01*
X43357142Y-42238095D01*
X43404761Y-42190476D01*
X43452380Y-42095238D01*
X43452380Y-41904761D01*
X43404761Y-41809523D01*
X43357142Y-41761904D01*
X43261904Y-41714285D01*
X43023809Y-41714285D01*
X42928571Y-41761904D01*
X42880952Y-41809523D01*
X42833333Y-41904761D01*
X42833333Y-42095238D01*
X42880952Y-42190476D01*
X42928571Y-42238095D01*
X43023809Y-42285714D01*
%TO.C,R4*%
X37452380Y-42666666D02*
X36976190Y-43000000D01*
X37452380Y-43238095D02*
X36452380Y-43238095D01*
X36452380Y-42857142D01*
X36500000Y-42761904D01*
X36547619Y-42714285D01*
X36642857Y-42666666D01*
X36785714Y-42666666D01*
X36880952Y-42714285D01*
X36928571Y-42761904D01*
X36976190Y-42857142D01*
X36976190Y-43238095D01*
X36785714Y-41809523D02*
X37452380Y-41809523D01*
X36404761Y-42047619D02*
X37119047Y-42285714D01*
X37119047Y-41666666D01*
%TO.C,R2*%
X46452380Y-42666666D02*
X45976190Y-43000000D01*
X46452380Y-43238095D02*
X45452380Y-43238095D01*
X45452380Y-42857142D01*
X45500000Y-42761904D01*
X45547619Y-42714285D01*
X45642857Y-42666666D01*
X45785714Y-42666666D01*
X45880952Y-42714285D01*
X45928571Y-42761904D01*
X45976190Y-42857142D01*
X45976190Y-43238095D01*
X45547619Y-42285714D02*
X45500000Y-42238095D01*
X45452380Y-42142857D01*
X45452380Y-41904761D01*
X45500000Y-41809523D01*
X45547619Y-41761904D01*
X45642857Y-41714285D01*
X45738095Y-41714285D01*
X45880952Y-41761904D01*
X46452380Y-42333333D01*
X46452380Y-41714285D01*
%TO.C,R1*%
X34452380Y-34166666D02*
X33976190Y-34500000D01*
X34452380Y-34738095D02*
X33452380Y-34738095D01*
X33452380Y-34357142D01*
X33500000Y-34261904D01*
X33547619Y-34214285D01*
X33642857Y-34166666D01*
X33785714Y-34166666D01*
X33880952Y-34214285D01*
X33928571Y-34261904D01*
X33976190Y-34357142D01*
X33976190Y-34738095D01*
X34452380Y-33214285D02*
X34452380Y-33785714D01*
X34452380Y-33500000D02*
X33452380Y-33500000D01*
X33595238Y-33595238D01*
X33690476Y-33690476D01*
X33738095Y-33785714D01*
%TO.C,C3*%
X34357142Y-25666666D02*
X34404761Y-25714285D01*
X34452380Y-25857142D01*
X34452380Y-25952380D01*
X34404761Y-26095238D01*
X34309523Y-26190476D01*
X34214285Y-26238095D01*
X34023809Y-26285714D01*
X33880952Y-26285714D01*
X33690476Y-26238095D01*
X33595238Y-26190476D01*
X33500000Y-26095238D01*
X33452380Y-25952380D01*
X33452380Y-25857142D01*
X33500000Y-25714285D01*
X33547619Y-25666666D01*
X33452380Y-25333333D02*
X33452380Y-24714285D01*
X33833333Y-25047619D01*
X33833333Y-24904761D01*
X33880952Y-24809523D01*
X33928571Y-24761904D01*
X34023809Y-24714285D01*
X34261904Y-24714285D01*
X34357142Y-24761904D01*
X34404761Y-24809523D01*
X34452380Y-24904761D01*
X34452380Y-25190476D01*
X34404761Y-25285714D01*
X34357142Y-25333333D01*
%TO.C,C4*%
X49107142Y-42666666D02*
X49154761Y-42714285D01*
X49202380Y-42857142D01*
X49202380Y-42952380D01*
X49154761Y-43095238D01*
X49059523Y-43190476D01*
X48964285Y-43238095D01*
X48773809Y-43285714D01*
X48630952Y-43285714D01*
X48440476Y-43238095D01*
X48345238Y-43190476D01*
X48250000Y-43095238D01*
X48202380Y-42952380D01*
X48202380Y-42857142D01*
X48250000Y-42714285D01*
X48297619Y-42666666D01*
X48535714Y-41809523D02*
X49202380Y-41809523D01*
X48154761Y-42047619D02*
X48869047Y-42285714D01*
X48869047Y-41666666D01*
%TO.C,C1*%
X37357142Y-34166666D02*
X37404761Y-34214285D01*
X37452380Y-34357142D01*
X37452380Y-34452380D01*
X37404761Y-34595238D01*
X37309523Y-34690476D01*
X37214285Y-34738095D01*
X37023809Y-34785714D01*
X36880952Y-34785714D01*
X36690476Y-34738095D01*
X36595238Y-34690476D01*
X36500000Y-34595238D01*
X36452380Y-34452380D01*
X36452380Y-34357142D01*
X36500000Y-34214285D01*
X36547619Y-34166666D01*
X37452380Y-33214285D02*
X37452380Y-33785714D01*
X37452380Y-33500000D02*
X36452380Y-33500000D01*
X36595238Y-33595238D01*
X36690476Y-33690476D01*
X36738095Y-33785714D01*
%TO.C,J1*%
X63420666Y-35520380D02*
X63420666Y-36234666D01*
X63373047Y-36377523D01*
X63277809Y-36472761D01*
X63134952Y-36520380D01*
X63039714Y-36520380D01*
X64420666Y-36520380D02*
X63849238Y-36520380D01*
X64134952Y-36520380D02*
X64134952Y-35520380D01*
X64039714Y-35663238D01*
X63944476Y-35758476D01*
X63849238Y-35806095D01*
%TO.C,C2*%
X31357142Y-25666666D02*
X31404761Y-25714285D01*
X31452380Y-25857142D01*
X31452380Y-25952380D01*
X31404761Y-26095238D01*
X31309523Y-26190476D01*
X31214285Y-26238095D01*
X31023809Y-26285714D01*
X30880952Y-26285714D01*
X30690476Y-26238095D01*
X30595238Y-26190476D01*
X30500000Y-26095238D01*
X30452380Y-25952380D01*
X30452380Y-25857142D01*
X30500000Y-25714285D01*
X30547619Y-25666666D01*
X30547619Y-25285714D02*
X30500000Y-25238095D01*
X30452380Y-25142857D01*
X30452380Y-24904761D01*
X30500000Y-24809523D01*
X30547619Y-24761904D01*
X30642857Y-24714285D01*
X30738095Y-24714285D01*
X30880952Y-24761904D01*
X31452380Y-25333333D01*
X31452380Y-24714285D01*
%TO.C,C5*%
X14857142Y-28666666D02*
X14904761Y-28714285D01*
X14952380Y-28857142D01*
X14952380Y-28952380D01*
X14904761Y-29095238D01*
X14809523Y-29190476D01*
X14714285Y-29238095D01*
X14523809Y-29285714D01*
X14380952Y-29285714D01*
X14190476Y-29238095D01*
X14095238Y-29190476D01*
X14000000Y-29095238D01*
X13952380Y-28952380D01*
X13952380Y-28857142D01*
X14000000Y-28714285D01*
X14047619Y-28666666D01*
X13952380Y-27761904D02*
X13952380Y-28238095D01*
X14428571Y-28285714D01*
X14380952Y-28238095D01*
X14333333Y-28142857D01*
X14333333Y-27904761D01*
X14380952Y-27809523D01*
X14428571Y-27761904D01*
X14523809Y-27714285D01*
X14761904Y-27714285D01*
X14857142Y-27761904D01*
X14904761Y-27809523D01*
X14952380Y-27904761D01*
X14952380Y-28142857D01*
X14904761Y-28238095D01*
X14857142Y-28285714D01*
%TO.C,D1*%
X62452380Y-23738095D02*
X61452380Y-23738095D01*
X61452380Y-23500000D01*
X61500000Y-23357142D01*
X61595238Y-23261904D01*
X61690476Y-23214285D01*
X61880952Y-23166666D01*
X62023809Y-23166666D01*
X62214285Y-23214285D01*
X62309523Y-23261904D01*
X62404761Y-23357142D01*
X62452380Y-23500000D01*
X62452380Y-23738095D01*
X62452380Y-22214285D02*
X62452380Y-22785714D01*
X62452380Y-22500000D02*
X61452380Y-22500000D01*
X61595238Y-22595238D01*
X61690476Y-22690476D01*
X61738095Y-22785714D01*
%TO.C,D2*%
X62452380Y-12738095D02*
X61452380Y-12738095D01*
X61452380Y-12500000D01*
X61500000Y-12357142D01*
X61595238Y-12261904D01*
X61690476Y-12214285D01*
X61880952Y-12166666D01*
X62023809Y-12166666D01*
X62214285Y-12214285D01*
X62309523Y-12261904D01*
X62404761Y-12357142D01*
X62452380Y-12500000D01*
X62452380Y-12738095D01*
X61547619Y-11785714D02*
X61500000Y-11738095D01*
X61452380Y-11642857D01*
X61452380Y-11404761D01*
X61500000Y-11309523D01*
X61547619Y-11261904D01*
X61642857Y-11214285D01*
X61738095Y-11214285D01*
X61880952Y-11261904D01*
X62452380Y-11833333D01*
X62452380Y-11214285D01*
%TO.C,D4*%
X11952380Y-29238095D02*
X10952380Y-29238095D01*
X10952380Y-29000000D01*
X11000000Y-28857142D01*
X11095238Y-28761904D01*
X11190476Y-28714285D01*
X11380952Y-28666666D01*
X11523809Y-28666666D01*
X11714285Y-28714285D01*
X11809523Y-28761904D01*
X11904761Y-28857142D01*
X11952380Y-29000000D01*
X11952380Y-29238095D01*
X11285714Y-27809523D02*
X11952380Y-27809523D01*
X10904761Y-28047619D02*
X11619047Y-28285714D01*
X11619047Y-27666666D01*
%TO.C,D3*%
X35261904Y-13352380D02*
X35261904Y-12352380D01*
X35500000Y-12352380D01*
X35642857Y-12400000D01*
X35738095Y-12495238D01*
X35785714Y-12590476D01*
X35833333Y-12780952D01*
X35833333Y-12923809D01*
X35785714Y-13114285D01*
X35738095Y-13209523D01*
X35642857Y-13304761D01*
X35500000Y-13352380D01*
X35261904Y-13352380D01*
X36166666Y-12352380D02*
X36785714Y-12352380D01*
X36452380Y-12733333D01*
X36595238Y-12733333D01*
X36690476Y-12780952D01*
X36738095Y-12828571D01*
X36785714Y-12923809D01*
X36785714Y-13161904D01*
X36738095Y-13257142D01*
X36690476Y-13304761D01*
X36595238Y-13352380D01*
X36309523Y-13352380D01*
X36214285Y-13304761D01*
X36166666Y-13257142D01*
%TO.C,U4*%
X21238095Y-27452380D02*
X21238095Y-28261904D01*
X21285714Y-28357142D01*
X21333333Y-28404761D01*
X21428571Y-28452380D01*
X21619047Y-28452380D01*
X21714285Y-28404761D01*
X21761904Y-28357142D01*
X21809523Y-28261904D01*
X21809523Y-27452380D01*
X22714285Y-27785714D02*
X22714285Y-28452380D01*
X22476190Y-27404761D02*
X22238095Y-28119047D01*
X22857142Y-28119047D01*
%TO.C,Q1*%
X16547619Y-7595238D02*
X16500000Y-7690476D01*
X16404761Y-7785714D01*
X16261904Y-7928571D01*
X16214285Y-8023809D01*
X16214285Y-8119047D01*
X16452380Y-8071428D02*
X16404761Y-8166666D01*
X16309523Y-8261904D01*
X16119047Y-8309523D01*
X15785714Y-8309523D01*
X15595238Y-8261904D01*
X15500000Y-8166666D01*
X15452380Y-8071428D01*
X15452380Y-7880952D01*
X15500000Y-7785714D01*
X15595238Y-7690476D01*
X15785714Y-7642857D01*
X16119047Y-7642857D01*
X16309523Y-7690476D01*
X16404761Y-7785714D01*
X16452380Y-7880952D01*
X16452380Y-8071428D01*
X16452380Y-6690476D02*
X16452380Y-7261904D01*
X16452380Y-6976190D02*
X15452380Y-6976190D01*
X15595238Y-7071428D01*
X15690476Y-7166666D01*
X15738095Y-7261904D01*
%TO.C,J3*%
X5966666Y-28652380D02*
X5966666Y-29366666D01*
X5919047Y-29509523D01*
X5823809Y-29604761D01*
X5680952Y-29652380D01*
X5585714Y-29652380D01*
X6347619Y-28652380D02*
X6966666Y-28652380D01*
X6633333Y-29033333D01*
X6776190Y-29033333D01*
X6871428Y-29080952D01*
X6919047Y-29128571D01*
X6966666Y-29223809D01*
X6966666Y-29461904D01*
X6919047Y-29557142D01*
X6871428Y-29604761D01*
X6776190Y-29652380D01*
X6490476Y-29652380D01*
X6395238Y-29604761D01*
X6347619Y-29557142D01*
%TD*%
M02*
