%TF.GenerationSoftware,KiCad,Pcbnew,(5.1.6)-1*%
%TF.CreationDate,2020-09-26T10:57:46+02:00*%
%TF.ProjectId,ESP32MiniDrop,45535033-324d-4696-9e69-44726f702e6b,rev?*%
%TF.SameCoordinates,Original*%
%TF.FileFunction,Legend,Bot*%
%TF.FilePolarity,Positive*%
%FSLAX46Y46*%
G04 Gerber Fmt 4.6, Leading zero omitted, Abs format (unit mm)*
G04 Created by KiCad (PCBNEW (5.1.6)-1) date 2020-09-26 10:57:46*
%MOMM*%
%LPD*%
G01*
G04 APERTURE LIST*
%ADD10C,0.120000*%
%ADD11C,0.150000*%
%ADD12C,0.100000*%
G04 APERTURE END LIST*
D10*
X27000000Y-49500000D02*
X15500000Y-49500000D01*
D11*
X26119047Y-50452380D02*
X26119047Y-51166666D01*
X26166666Y-51309523D01*
X26261904Y-51404761D01*
X26404761Y-51452380D01*
X26500000Y-51452380D01*
X25166666Y-51452380D02*
X25642857Y-51452380D01*
X25642857Y-50452380D01*
X24261904Y-51357142D02*
X24309523Y-51404761D01*
X24452380Y-51452380D01*
X24547619Y-51452380D01*
X24690476Y-51404761D01*
X24785714Y-51309523D01*
X24833333Y-51214285D01*
X24880952Y-51023809D01*
X24880952Y-50880952D01*
X24833333Y-50690476D01*
X24785714Y-50595238D01*
X24690476Y-50500000D01*
X24547619Y-50452380D01*
X24452380Y-50452380D01*
X24309523Y-50500000D01*
X24261904Y-50547619D01*
X23547619Y-50452380D02*
X23547619Y-51166666D01*
X23595238Y-51309523D01*
X23690476Y-51404761D01*
X23833333Y-51452380D01*
X23928571Y-51452380D01*
X22595238Y-51452380D02*
X23071428Y-51452380D01*
X23071428Y-50452380D01*
X21690476Y-51357142D02*
X21738095Y-51404761D01*
X21880952Y-51452380D01*
X21976190Y-51452380D01*
X22119047Y-51404761D01*
X22214285Y-51309523D01*
X22261904Y-51214285D01*
X22309523Y-51023809D01*
X22309523Y-50880952D01*
X22261904Y-50690476D01*
X22214285Y-50595238D01*
X22119047Y-50500000D01*
X21976190Y-50452380D01*
X21880952Y-50452380D01*
X21738095Y-50500000D01*
X21690476Y-50547619D01*
X20976190Y-50452380D02*
X20976190Y-51166666D01*
X21023809Y-51309523D01*
X21119047Y-51404761D01*
X21261904Y-51452380D01*
X21357142Y-51452380D01*
X20023809Y-51452380D02*
X20500000Y-51452380D01*
X20500000Y-50452380D01*
X19119047Y-51357142D02*
X19166666Y-51404761D01*
X19309523Y-51452380D01*
X19404761Y-51452380D01*
X19547619Y-51404761D01*
X19642857Y-51309523D01*
X19690476Y-51214285D01*
X19738095Y-51023809D01*
X19738095Y-50880952D01*
X19690476Y-50690476D01*
X19642857Y-50595238D01*
X19547619Y-50500000D01*
X19404761Y-50452380D01*
X19309523Y-50452380D01*
X19166666Y-50500000D01*
X19119047Y-50547619D01*
X18404761Y-50452380D02*
X18404761Y-51166666D01*
X18452380Y-51309523D01*
X18547619Y-51404761D01*
X18690476Y-51452380D01*
X18785714Y-51452380D01*
X17452380Y-51452380D02*
X17928571Y-51452380D01*
X17928571Y-50452380D01*
X16547619Y-51357142D02*
X16595238Y-51404761D01*
X16738095Y-51452380D01*
X16833333Y-51452380D01*
X16976190Y-51404761D01*
X17071428Y-51309523D01*
X17119047Y-51214285D01*
X17166666Y-51023809D01*
X17166666Y-50880952D01*
X17119047Y-50690476D01*
X17071428Y-50595238D01*
X16976190Y-50500000D01*
X16833333Y-50452380D01*
X16738095Y-50452380D01*
X16595238Y-50500000D01*
X16547619Y-50547619D01*
D12*
X26904761Y-48726190D02*
X26809523Y-48726190D01*
X26761904Y-48750000D01*
X26714285Y-48797619D01*
X26690476Y-48892857D01*
X26690476Y-49059523D01*
X26714285Y-49154761D01*
X26761904Y-49202380D01*
X26809523Y-49226190D01*
X26904761Y-49226190D01*
X26952380Y-49202380D01*
X27000000Y-49154761D01*
X27023809Y-49059523D01*
X27023809Y-48892857D01*
X27000000Y-48797619D01*
X26952380Y-48750000D01*
X26904761Y-48726190D01*
X26476190Y-49226190D02*
X26476190Y-48892857D01*
X26476190Y-48988095D02*
X26452380Y-48940476D01*
X26428571Y-48916666D01*
X26380952Y-48892857D01*
X26333333Y-48892857D01*
X25952380Y-49226190D02*
X25952380Y-48726190D01*
X25952380Y-49202380D02*
X26000000Y-49226190D01*
X26095238Y-49226190D01*
X26142857Y-49202380D01*
X26166666Y-49178571D01*
X26190476Y-49130952D01*
X26190476Y-48988095D01*
X26166666Y-48940476D01*
X26142857Y-48916666D01*
X26095238Y-48892857D01*
X26000000Y-48892857D01*
X25952380Y-48916666D01*
X25523809Y-49202380D02*
X25571428Y-49226190D01*
X25666666Y-49226190D01*
X25714285Y-49202380D01*
X25738095Y-49154761D01*
X25738095Y-48964285D01*
X25714285Y-48916666D01*
X25666666Y-48892857D01*
X25571428Y-48892857D01*
X25523809Y-48916666D01*
X25500000Y-48964285D01*
X25500000Y-49011904D01*
X25738095Y-49059523D01*
X25285714Y-49226190D02*
X25285714Y-48892857D01*
X25285714Y-48988095D02*
X25261904Y-48940476D01*
X25238095Y-48916666D01*
X25190476Y-48892857D01*
X25142857Y-48892857D01*
X24595238Y-49226190D02*
X24595238Y-48726190D01*
X24309523Y-49226190D01*
X24309523Y-48726190D01*
X23857142Y-48892857D02*
X23857142Y-49226190D01*
X24071428Y-48892857D02*
X24071428Y-49154761D01*
X24047619Y-49202380D01*
X24000000Y-49226190D01*
X23928571Y-49226190D01*
X23880952Y-49202380D01*
X23857142Y-49178571D01*
X23619047Y-49226190D02*
X23619047Y-48892857D01*
X23619047Y-48940476D02*
X23595238Y-48916666D01*
X23547619Y-48892857D01*
X23476190Y-48892857D01*
X23428571Y-48916666D01*
X23404761Y-48964285D01*
X23404761Y-49226190D01*
X23404761Y-48964285D02*
X23380952Y-48916666D01*
X23333333Y-48892857D01*
X23261904Y-48892857D01*
X23214285Y-48916666D01*
X23190476Y-48964285D01*
X23190476Y-49226190D01*
X22952380Y-49226190D02*
X22952380Y-48726190D01*
X22952380Y-48916666D02*
X22904761Y-48892857D01*
X22809523Y-48892857D01*
X22761904Y-48916666D01*
X22738095Y-48940476D01*
X22714285Y-48988095D01*
X22714285Y-49130952D01*
X22738095Y-49178571D01*
X22761904Y-49202380D01*
X22809523Y-49226190D01*
X22904761Y-49226190D01*
X22952380Y-49202380D01*
X22309523Y-49202380D02*
X22357142Y-49226190D01*
X22452380Y-49226190D01*
X22500000Y-49202380D01*
X22523809Y-49154761D01*
X22523809Y-48964285D01*
X22500000Y-48916666D01*
X22452380Y-48892857D01*
X22357142Y-48892857D01*
X22309523Y-48916666D01*
X22285714Y-48964285D01*
X22285714Y-49011904D01*
X22523809Y-49059523D01*
X22071428Y-49226190D02*
X22071428Y-48892857D01*
X22071428Y-48988095D02*
X22047619Y-48940476D01*
X22023809Y-48916666D01*
X21976190Y-48892857D01*
X21928571Y-48892857D01*
D10*
X27000000Y-52000000D02*
X27000000Y-49500000D01*
M02*
